{"glyphs":{"0":{"ha":714,"x_min":0,"x_max":0,"o":"m 235 1 b 714 589 514 1 710 338 b 688 661 714 617 700 640 b 456 918 671 757 619 917 b 1 349 200 918 1 585 l 1 342 b 235 1 4 167 68 1 z m 268 122 b 256 124 264 122 260 122 b 196 263 210 138 196 196 b 228 479 196 342 215 432 b 422 824 249 561 322 824 l 428 824 b 501 722 478 818 496 771 b 442 682 478 715 457 701 b 438 668 439 678 438 672 l 438 663 b 447 647 438 656 442 651 b 472 581 460 639 472 621 l 469 547 b 268 122 454 439 364 122 z "},"1":{"ha":478,"x_min":0,"x_max":0,"o":"m 129 17 l 154 18 b 175 43 167 21 175 31 l 172 53 b 161 107 165 67 161 85 b 479 854 161 297 426 743 b 339 942 479 854 347 915 b 108 865 339 942 221 865 b 22 885 78 865 49 871 b -1 782 7 849 -1 814 b 103 661 -1 713 36 661 b 176 678 125 661 149 667 b 0 174 117 597 0 343 b 90 21 0 97 24 38 b 129 17 100 18 115 17 z "},"2":{"ha":756,"x_min":0,"x_max":0,"o":"m 486 -4 b 681 142 644 -4 681 68 b 560 297 681 211 639 283 l 557 297 b 533 279 546 297 536 290 b 371 165 513 186 439 165 l 321 168 b 219 144 254 168 219 144 l 350 233 b 757 711 350 233 757 450 b 506 939 757 893 624 939 b 133 661 254 939 133 782 b 318 483 133 565 206 483 b 403 503 347 483 376 489 b 481 625 458 533 481 579 b 426 747 481 672 446 747 b 371 693 413 747 397 693 b 343 732 357 693 343 713 b 428 799 343 767 382 799 b 546 683 475 799 546 764 b 531 608 546 663 540 638 b 167 276 479 460 218 304 b 8 149 114 250 46 194 b 1 129 4 143 1 136 b 85 13 1 90 58 36 b 99 7 89 8 94 7 b 111 10 103 7 107 7 b 210 47 164 38 189 47 b 414 0 247 47 271 17 b 486 -4 440 -3 465 -4 z "},"3":{"ha":768,"x_min":0,"x_max":0,"o":"m 304 -8 l 354 -7 b 681 288 589 8 681 157 b 561 486 681 381 635 465 b 769 724 678 507 769 618 b 507 931 769 818 697 910 l 465 933 b 161 721 329 933 161 864 l 164 692 b 339 568 176 611 261 568 b 471 678 408 568 471 603 b 463 731 471 693 468 711 b 446 753 457 746 453 753 b 425 739 440 753 433 749 b 389 724 415 731 403 724 b 363 732 381 724 371 726 b 351 753 356 738 351 744 b 435 813 351 778 386 813 l 457 810 b 571 692 511 799 571 751 l 571 688 b 325 492 563 488 329 528 l 325 490 b 354 451 325 476 343 460 b 371 444 361 447 364 446 b 524 331 483 435 524 385 b 375 182 524 261 453 185 b 225 276 258 185 225 229 b 258 375 225 313 243 350 b 261 388 261 379 261 383 b 240 411 261 399 254 410 l 217 413 b -1 196 89 413 -1 303 b 304 -8 -1 93 83 -8 z "},"4":{"ha":822,"x_min":0,"x_max":0,"o":"m 493 15 b 517 40 507 15 517 26 l 515 69 b 543 222 515 110 521 168 l 582 219 b 738 360 676 219 738 269 b 733 403 738 374 736 388 b 718 421 731 411 726 418 l 710 422 b 694 417 704 422 699 421 b 618 396 681 406 657 396 l 604 396 b 818 842 604 396 753 747 b 822 854 821 846 822 850 b 807 876 822 864 817 872 b 696 939 772 890 719 914 b 678 946 690 944 685 946 b 667 943 674 946 669 946 b 6 342 532 860 69 439 b 1 329 3 339 1 335 b 6 317 1 325 3 321 l 38 264 b 67 246 43 251 50 246 b 110 253 76 246 90 249 b 236 267 143 260 188 267 b 363 249 276 267 319 261 b 344 139 351 207 344 171 b 483 15 344 61 385 15 z m 424 413 b 374 421 407 419 389 421 b 325 414 346 421 325 414 l 531 678 z "},"5":{"ha":736,"x_min":0,"x_max":0,"o":"m 285 -12 l 336 -10 b 661 258 482 3 628 85 b 667 321 665 279 667 300 b 389 614 667 482 547 614 b 294 599 358 614 326 610 l 347 738 b 549 675 394 697 475 675 b 704 728 613 675 671 690 b 738 831 729 757 738 794 b 726 914 738 861 732 892 b 703 931 722 925 714 931 b 686 924 697 931 692 928 b 494 863 642 881 567 863 b 285 926 407 863 321 888 b 246 882 268 924 257 911 b 113 460 196 751 175 614 b 197 433 113 435 197 433 b 353 508 197 433 244 508 l 361 508 b 501 350 451 504 501 428 b 350 178 501 272 453 192 l 328 176 b 201 283 253 176 201 228 b 238 361 201 310 213 338 b 244 378 243 367 244 372 b 221 401 244 390 236 401 b 1 204 79 401 1 304 b 285 -12 1 97 90 -12 z "},"6":{"ha":701,"x_min":0,"x_max":0,"o":"m 753 807 b 751 811 753 810 753 811 z m 310 7 b 664 376 519 7 664 169 l 664 388 b 353 658 660 581 472 658 b 297 651 332 658 313 657 b 425 806 314 690 371 806 l 435 804 b 454 778 449 800 454 789 b 443 758 454 769 450 761 b 417 743 426 750 417 761 l 418 729 b 558 626 424 690 449 626 l 594 629 b 704 760 667 643 704 700 b 458 942 704 846 628 942 l 456 942 b 19 482 226 942 69 672 b 1 344 8 438 1 390 b 294 7 1 174 89 15 z m 325 231 l 306 232 b 218 358 238 242 218 297 b 249 517 218 435 249 517 b 311 522 271 521 292 522 b 474 392 428 522 474 460 b 325 231 474 314 413 231 z "},"7":{"ha":713,"x_min":0,"x_max":0,"o":"m 243 6 b 293 8 263 6 281 7 b 314 26 304 8 313 17 b 710 850 378 328 678 818 b 715 865 713 854 715 860 l 715 869 b 704 888 714 878 711 883 b 665 928 685 899 672 914 b 650 946 660 942 656 946 b 553 908 646 946 575 913 b 524 906 544 907 533 906 b 201 944 451 906 340 944 b 24 858 119 944 54 908 b 1 788 8 835 1 810 b 161 647 1 711 78 647 b 199 651 174 647 186 649 b 214 664 206 653 211 657 b 215 675 215 668 215 671 b 213 686 215 678 215 682 b 203 725 206 697 203 711 b 208 756 203 736 204 747 b 322 807 222 789 268 807 b 379 800 340 807 360 804 b 432 794 400 796 417 794 b 472 799 457 794 472 799 b 82 131 472 799 107 292 l 81 108 b 243 6 81 21 175 6 z "},"8":{"ha":756,"x_min":0,"x_max":0,"o":"m 329 -15 b 669 197 479 -15 619 46 b 679 261 676 218 679 240 b 536 511 679 360 613 453 b 753 715 536 511 715 524 b 757 757 756 731 757 743 b 503 943 757 888 625 943 l 488 943 b 218 758 415 939 260 913 b 210 696 213 740 210 718 b 296 525 210 626 236 550 b 13 296 296 525 78 517 b 1 225 6 271 1 247 b 300 -14 1 75 156 -6 z m 340 175 b 249 269 278 176 249 218 b 394 447 249 336 300 419 b 471 324 447 426 471 376 b 340 175 471 251 422 175 z m 457 581 b 392 714 413 611 392 664 b 503 850 392 783 432 850 l 511 850 b 586 765 563 847 586 811 b 457 581 586 699 538 614 z "},"9":{"ha":703,"x_min":0,"x_max":0,"o":"m 250 7 b 686 467 481 7 636 276 b 704 606 699 513 704 560 b 413 942 704 776 618 933 l 397 942 b 43 571 188 942 43 779 l 43 560 b 353 290 47 368 235 290 b 408 297 374 290 393 292 b 282 143 392 258 336 143 l 271 144 b 253 169 258 149 253 160 b 264 190 253 179 257 188 b 289 203 281 199 289 188 l 288 218 b 147 322 282 258 258 322 l 111 319 b 1 189 39 306 1 249 b 247 7 1 103 78 7 z m 396 426 b 233 557 279 426 233 489 b 382 718 233 635 294 718 l 401 717 b 489 590 469 707 489 651 b 458 432 489 514 458 432 b 396 426 436 428 415 426 z "},"\u0000":{"ha":0,"x_min":0,"x_max":0,"o":""},"\u001d":{"ha":0,"x_min":0,"x_max":0,"o":""}," ":{"ha":347,"x_min":0,"x_max":0,"o":""}," ":{"ha":347,"x_min":0,"x_max":0,"o":""},"!":{"ha":514,"x_min":0,"x_max":0,"o":"m 168 201 b 194 229 179 201 190 207 b 419 922 218 336 297 678 b 506 1050 450 981 468 1025 b 515 1069 513 1054 515 1061 b 504 1089 515 1076 511 1085 b 325 1158 461 1115 388 1154 l 318 1158 b 226 1118 282 1158 247 1149 b 72 382 153 1010 72 608 b 92 244 72 319 78 271 b 157 203 101 226 131 213 z m 113 -56 b 225 57 174 -56 225 -6 b 113 169 225 119 174 169 b 0 57 50 169 0 119 b 113 -56 0 -6 50 -56 z "},"\"":{"ha":389,"x_min":0,"x_max":0,"o":"m 69 794 l 79 797 b 181 932 131 824 181 871 b 90 1022 181 982 140 1022 b 1 932 40 1022 1 982 b 61 849 1 893 26 860 l 50 832 b 46 818 47 828 46 824 b 69 794 46 806 56 794 z m 278 794 l 288 797 b 389 932 339 824 389 871 b 299 1022 389 982 349 1022 b 210 932 249 1022 210 982 b 269 849 210 893 235 860 l 258 832 b 254 819 256 828 254 824 b 278 794 254 807 265 794 z "},"#":{"ha":639,"x_min":0,"x_max":0,"o":"m 310 149 b 329 160 318 149 325 153 l 413 288 l 493 288 b 514 299 501 288 510 292 l 542 347 b 544 358 543 351 544 354 b 521 382 544 371 535 382 l 474 382 l 514 443 l 569 443 b 590 456 579 443 586 447 l 618 504 b 621 515 619 508 621 511 b 599 538 621 526 611 538 l 575 538 l 636 632 b 640 644 639 636 640 640 b 617 667 640 656 631 667 l 531 668 b 511 657 522 668 515 664 l 440 538 l 351 538 l 411 632 b 415 644 414 636 415 640 b 393 667 415 657 406 667 l 306 668 b 286 657 297 668 290 664 l 215 538 l 153 538 b 132 526 144 538 136 533 l 107 478 b 104 467 106 474 104 471 b 128 443 104 454 114 443 l 158 443 l 122 382 l 76 382 b 56 369 68 382 60 378 l 31 321 b 28 310 29 317 28 314 b 65 288 28 290 42 288 l 4 185 b 0 172 1 181 0 176 b 24 150 0 161 10 150 l 85 149 b 104 160 93 149 100 153 l 188 288 l 290 288 l 229 185 b 225 172 226 181 225 176 b 249 150 225 161 235 150 z m 346 382 l 249 382 l 289 443 l 383 443 z "},"$":{"ha":735,"x_min":0,"x_max":0,"o":"m 167 -42 b 206 -15 183 -42 200 -33 l 221 31 b 314 19 253 24 283 19 b 393 29 342 19 368 22 b 553 204 463 47 553 129 b 546 236 553 215 550 226 b 206 513 503 335 258 417 b 197 544 200 524 197 535 b 540 728 197 639 415 728 b 574 725 553 728 564 726 b 592 711 586 722 592 717 b 472 639 592 685 517 639 b 443 665 456 639 443 646 l 443 672 b 426 676 438 675 432 676 b 325 517 383 676 325 589 b 432 425 325 467 353 425 l 443 425 b 736 714 553 431 736 613 l 736 718 b 511 881 735 768 624 865 l 538 958 l 540 972 b 485 1011 540 997 513 1011 b 435 983 463 1011 442 1003 l 401 879 b 89 711 275 865 140 811 b 64 596 74 683 64 640 b 125 415 64 531 82 460 b 376 186 232 303 376 229 b 371 172 376 181 375 176 b 329 157 361 161 346 157 b 165 231 275 157 199 203 b 136 274 146 249 136 261 b 164 313 136 288 147 300 l 167 317 b 104 338 167 328 131 338 l 96 338 b 0 214 57 332 0 278 b 10 169 0 199 3 185 b 138 58 29 124 79 86 l 122 10 l 119 -3 b 167 -42 119 -26 143 -42 z "},"%":{"ha":944,"x_min":0,"x_max":0,"o":"m 649 -119 b 946 246 822 -119 943 90 l 946 250 b 931 290 946 265 938 279 b 786 450 919 351 888 450 l 785 450 b 503 94 625 450 503 240 l 503 92 b 649 -119 506 -17 544 -119 z m 147 335 b 444 700 321 335 442 544 l 444 704 b 429 746 444 719 436 735 b 285 904 418 806 386 904 l 283 904 b 1 549 124 904 1 694 l 1 546 b 147 335 4 438 43 335 z m 169 410 l 161 411 b 124 499 132 419 124 457 b 143 632 124 547 136 604 b 263 846 156 682 201 846 l 267 846 b 314 783 299 843 310 814 b 276 758 299 779 286 769 b 272 746 274 754 272 750 b 279 736 274 742 276 739 b 294 696 288 732 294 721 l 293 675 b 169 410 283 607 228 410 z m 167 -112 b 183 -104 172 -112 179 -110 l 831 801 b 833 814 832 806 833 810 l 833 819 b 821 836 831 826 828 832 l 761 881 b 743 886 756 885 749 886 b 726 878 736 886 731 883 l 97 -44 b 93 -57 94 -49 93 -51 l 94 -64 b 108 -81 97 -71 101 -76 l 151 -108 b 167 -112 156 -111 161 -112 z m 669 -44 l 661 -43 b 625 42 633 -35 625 1 b 644 178 625 92 638 149 b 764 392 657 228 703 392 l 768 392 b 815 329 800 389 811 360 b 778 304 800 324 786 315 b 774 292 775 300 774 296 b 781 282 775 288 776 285 b 796 242 789 278 796 267 l 794 221 b 669 -44 785 153 729 -44 z "},"&":{"ha":808,"x_min":0,"x_max":0,"o":"m 636 -57 b 813 153 788 -57 813 72 l 811 183 b 801 201 811 190 807 197 b 788 204 797 203 793 204 l 782 204 b 724 196 764 199 743 196 b 646 208 694 196 665 201 b 743 390 718 286 743 346 b 608 506 743 468 664 500 l 604 506 b 588 497 597 506 592 503 b 583 483 585 493 583 488 l 585 475 b 588 458 586 469 588 464 b 506 319 588 411 532 344 b 433 425 458 374 433 419 b 667 740 583 496 667 632 b 493 899 667 829 613 899 l 469 897 b 226 618 308 885 226 764 b 258 454 226 565 236 510 b 0 163 142 396 0 310 l 1 138 b 183 -31 14 13 90 -31 b 474 65 282 -31 397 17 b 636 -57 493 44 519 -37 z m 276 179 b 221 231 240 179 221 200 b 303 350 221 265 246 311 b 369 213 326 294 347 253 b 276 179 332 189 300 179 z m 390 529 b 374 597 381 540 374 567 b 460 754 374 654 396 728 b 483 758 468 757 476 758 b 531 696 514 758 531 732 b 390 529 531 639 489 561 z "},"'":{"ha":179,"x_min":0,"x_max":0,"o":"m 71 794 l 81 797 b 181 932 132 824 181 871 b 92 1022 181 982 140 1022 b 1 932 42 1022 1 982 b 61 849 1 893 26 860 l 51 832 b 47 818 49 828 47 824 b 71 794 47 806 57 794 z "},"(":{"ha":599,"x_min":0,"x_max":0,"o":"m 125 -176 b 143 -169 132 -176 138 -174 b 149 -154 147 -165 149 -160 l 149 -149 b 140 -47 144 -128 140 -94 b 249 439 140 53 161 211 b 594 1006 308 593 446 868 b 601 1024 599 1011 601 1017 b 599 1035 601 1028 600 1031 b 579 1047 594 1042 586 1047 l 574 1046 b 103 471 353 992 168 638 b 1 43 28 278 1 140 b 121 -176 1 -110 68 -164 z "},")":{"ha":597,"x_min":0,"x_max":0,"o":"m 22 -176 l 28 -175 b 497 399 247 -121 432 232 b 600 828 572 592 600 731 b 479 1046 600 981 533 1035 l 475 1046 b 458 1039 469 1046 463 1043 b 451 1025 454 1035 451 1031 l 453 1018 b 461 917 457 997 461 964 b 353 431 461 818 440 658 b 7 -136 293 276 156 1 b 0 -153 1 -140 0 -146 b 3 -164 0 -157 0 -161 b 22 -176 6 -172 14 -176 z "},"*":{"ha":233,"x_min":0,"x_max":0,"o":"m 115 724 b 138 743 126 724 136 731 l 147 799 l 192 783 l 199 782 b 221 796 208 782 217 788 l 235 826 l 238 838 l 235 847 b 219 858 232 853 226 857 l 183 867 l 222 911 b 228 928 226 917 228 922 b 219 944 228 935 225 940 l 201 960 b 188 965 197 963 192 965 l 185 965 b 168 957 178 965 172 963 l 132 911 l 114 950 b 99 963 111 956 106 960 l 94 963 b 81 958 90 963 85 961 l 50 939 b 40 919 43 935 40 926 b 43 908 40 915 40 911 l 71 863 l 14 839 b 0 817 6 835 0 826 b 3 792 0 801 1 806 b 15 775 4 785 8 778 b 26 772 19 774 22 772 b 38 775 31 772 35 774 l 79 797 l 68 751 l 68 746 b 72 732 68 742 69 736 b 90 724 78 726 83 724 z "},"+":{"ha":419,"x_min":0,"x_max":0,"o":"m 189 158 b 211 175 199 158 208 165 l 251 294 l 369 294 b 390 310 379 294 388 300 l 419 388 l 421 396 b 397 419 421 408 411 419 l 293 419 l 328 525 l 329 533 b 306 556 329 546 319 556 l 231 556 b 208 539 219 556 211 549 l 168 419 l 50 419 b 28 404 40 419 32 414 l 0 325 l -1 318 b 21 294 -1 306 8 294 l 126 294 l 92 189 l 90 181 b 113 158 90 168 100 158 z "},",":{"ha":275,"x_min":0,"x_max":0,"o":"m 139 -56 b 150 -53 143 -56 146 -54 b 251 82 201 -28 251 21 b 161 171 251 131 211 171 b 72 82 111 171 72 131 b 132 -3 72 43 97 10 l 121 -19 b 117 -32 118 -24 117 -28 b 139 -56 117 -44 126 -56 z "},"-":{"ha":418,"x_min":0,"x_max":0,"o":"m 369 311 b 390 326 379 311 388 317 l 419 404 l 421 413 b 397 435 421 425 411 435 l 50 435 b 29 421 40 435 32 429 l 0 342 l -1 333 b 22 311 -1 321 8 311 z "},"­":{"ha":418,"x_min":0,"x_max":0,"o":"m 369 311 b 390 326 379 311 388 317 l 419 404 l 421 413 b 397 435 421 425 411 435 l 50 435 b 29 421 40 435 32 429 l 0 342 l -1 333 b 22 311 -1 321 8 311 z "},".":{"ha":282,"x_min":0,"x_max":0,"o":"m 149 -18 b 239 71 199 -18 239 21 b 149 160 239 121 199 160 b 60 71 100 160 60 121 b 149 -18 60 21 100 -18 z "},"/":{"ha":618,"x_min":0,"x_max":0,"o":"m 79 -94 b 96 -86 86 -94 93 -92 l 619 819 l 622 828 l 619 838 b 606 856 617 844 613 851 l 539 900 b 522 906 533 904 528 906 b 506 897 515 906 508 903 l 1 -25 b -1 -35 0 -28 -1 -32 b 1 -44 -1 -37 0 -42 b 17 -62 4 -51 10 -58 l 64 -90 b 79 -94 69 -93 75 -94 z "},":":{"ha":253,"x_min":0,"x_max":0,"o":"m 164 436 b 253 525 213 436 253 475 b 164 615 253 575 213 615 b 74 525 114 615 74 575 b 164 436 74 475 114 436 z m 90 67 b 179 157 139 67 179 107 b 90 246 179 206 139 246 b 0 157 40 246 0 206 b 90 67 0 107 40 67 z "},";":{"ha":250,"x_min":0,"x_max":0,"o":"m 164 436 b 253 525 213 436 253 475 b 164 615 253 575 213 615 b 74 525 114 615 74 575 b 164 436 74 475 114 436 z m 69 19 b 81 22 74 19 76 21 b 181 157 132 47 181 94 b 92 246 181 206 140 246 b 1 157 42 246 1 206 b 61 72 1 117 26 85 l 51 56 b 47 42 49 51 47 47 b 69 19 47 31 57 19 z "},";":{"ha":250,"x_min":0,"x_max":0,"o":"m 164 436 b 253 525 213 436 253 475 b 164 615 253 575 213 615 b 74 525 114 615 74 575 b 164 436 74 475 114 436 z m 69 19 b 81 22 74 19 76 21 b 181 157 132 47 181 94 b 92 246 181 206 140 246 b 1 157 42 246 1 206 b 61 72 1 117 26 85 l 51 56 b 47 42 49 51 47 47 b 69 19 47 31 57 19 z "},"<":{"ha":283,"x_min":0,"x_max":0,"o":"m 193 335 b 210 344 200 336 206 339 l 247 399 b 251 411 250 403 251 407 b 244 428 251 417 249 424 l 143 529 l 275 617 b 285 636 281 621 285 628 l 278 688 b 264 704 276 694 271 701 b 254 707 261 706 258 707 b 242 703 250 707 246 706 l 10 543 b 0 526 4 539 0 533 l 0 522 b 7 508 0 517 3 511 l 175 342 b 193 335 179 336 186 335 z "},"=":{"ha":382,"x_min":0,"x_max":0,"o":"m 343 389 b 365 404 353 389 361 394 l 383 456 l 385 464 b 363 486 385 476 375 486 l 75 486 b 54 471 65 486 57 481 l 35 419 l 33 413 b 57 389 33 400 43 389 z m 308 247 b 329 263 318 247 326 253 l 349 314 l 350 322 b 328 344 350 335 340 344 l 40 344 b 18 331 31 344 22 339 l 0 278 l -1 271 b 21 247 -1 258 8 247 z "},">":{"ha":285,"x_min":0,"x_max":0,"o":"m 31 335 b 44 339 36 335 40 336 l 276 499 b 288 515 283 501 286 508 b 281 533 288 522 285 528 l 113 700 b 93 707 107 706 100 707 b 76 697 86 706 81 703 l 39 643 b 35 631 36 639 35 635 b 42 614 35 625 38 618 l 143 511 l 13 425 b 1 401 4 419 1 411 l 8 354 b 22 336 10 346 15 340 z "},"?":{"ha":650,"x_min":0,"x_max":0,"o":"m 160 228 b 239 247 196 228 239 239 l 238 249 b 219 308 233 254 219 274 b 375 558 219 360 249 442 b 650 981 528 699 650 849 b 585 1129 650 1033 631 1083 b 389 1201 536 1178 465 1201 b 4 917 221 1201 28 1089 b 1 878 3 903 1 890 b 165 697 1 760 86 697 b 288 794 221 697 272 729 l 288 800 b 271 821 288 810 282 818 b 244 857 253 825 244 840 b 324 931 244 889 275 931 l 340 929 b 394 860 371 924 394 899 b 329 729 394 826 376 782 b 88 321 254 647 88 458 b 113 242 88 292 94 264 b 160 228 119 232 139 228 z m 161 17 b 250 106 211 17 250 57 b 161 196 250 156 211 196 b 71 106 111 196 71 156 b 161 17 71 57 111 17 z "},"@":{"ha":967,"x_min":0,"x_max":0,"o":"m 557 -94 b 761 129 713 -94 751 50 l 761 132 b 739 156 761 146 750 156 b 726 151 735 156 731 154 b 515 92 661 108 593 92 l 478 93 b 143 403 289 104 143 211 b 149 468 143 424 144 446 b 550 828 186 701 381 828 b 628 818 576 828 603 825 b 821 568 761 782 821 674 b 771 411 821 511 804 456 b 707 363 756 392 728 363 b 683 400 696 363 686 372 l 683 404 b 725 551 683 435 708 492 b 733 603 731 571 733 588 b 610 719 733 679 671 719 b 571 714 597 719 583 718 b 558 703 565 713 561 708 b 557 694 557 700 557 697 b 558 685 557 690 557 688 b 563 663 561 679 563 672 l 561 646 b 458 704 533 688 497 704 b 213 397 346 704 213 557 b 221 331 213 375 215 353 b 342 194 239 258 285 211 b 365 192 349 192 357 192 b 500 267 407 192 458 219 b 635 188 531 208 581 188 b 751 211 674 188 714 197 b 965 574 896 267 965 414 b 960 657 965 601 964 629 b 646 956 940 797 847 914 b 558 964 617 961 588 964 b 4 467 304 964 32 751 b 0 396 1 443 0 419 b 550 -94 0 110 185 -83 z m 483 428 l 467 429 b 435 485 444 432 435 456 b 494 586 435 531 458 586 l 501 586 b 533 547 518 583 528 568 b 496 429 519 510 506 468 z "},"A":{"ha":1071,"x_min":0,"x_max":0,"o":"m 924 -61 b 1086 -6 981 -61 1044 -37 b 1096 14 1093 0 1096 7 b 1086 33 1096 21 1093 29 b 1022 201 1051 58 1022 97 b 1174 901 1022 322 1061 528 l 1175 910 b 1154 932 1175 921 1167 931 l 1119 933 b 751 739 975 933 857 847 b 492 975 686 847 610 943 b 438 982 474 979 456 982 b 235 767 319 982 235 876 b 342 585 235 700 267 631 b 475 544 383 560 429 544 b 589 588 515 544 556 557 b 596 604 593 592 596 599 b 583 626 596 613 592 622 b 539 692 558 640 539 667 b 551 719 539 701 543 711 b 572 728 558 725 565 728 b 672 651 600 728 635 696 b 381 342 565 526 472 394 b 311 321 354 326 332 321 b 211 450 249 321 211 381 b 218 503 211 468 214 485 l 219 508 b 194 532 219 522 208 532 l 190 532 b 0 271 61 494 0 385 b 314 -46 0 115 111 -46 b 422 -32 347 -46 383 -42 b 794 474 622 18 703 269 l 844 396 b 785 108 811 296 785 192 b 825 -25 785 51 796 4 b 924 -61 850 -50 885 -61 z m 886 513 l 844 578 b 988 733 885 650 929 707 b 886 513 968 697 926 613 z "},"B":{"ha":1157,"x_min":0,"x_max":0,"o":"m 743 -61 b 1124 244 985 -61 1124 90 b 931 510 1124 346 1063 449 b 1064 671 1018 536 1064 600 b 878 894 1064 751 1004 843 l 889 904 b 897 922 894 908 897 915 b 882 944 897 932 892 942 b 811 958 857 954 833 958 b 736 931 783 958 758 950 b 572 940 683 938 625 940 b 190 656 339 939 190 793 b 297 485 190 592 224 529 b 397 456 329 465 364 456 b 553 592 471 456 538 501 l 554 601 b 542 618 554 610 551 618 l 525 617 b 483 665 494 617 483 639 b 488 694 483 675 485 685 b 614 776 503 758 556 776 l 653 774 b 328 322 579 586 499 322 l 315 322 b 215 451 281 325 215 350 b 221 506 215 468 217 486 l 221 508 b 196 531 221 521 208 531 l 190 529 b 1 260 67 493 1 378 b 328 -42 1 114 104 -37 l 333 -42 b 517 26 407 -42 467 -15 b 738 -61 561 -25 632 -60 z m 751 558 b 806 744 768 622 786 688 b 917 646 878 718 917 681 b 751 558 917 603 863 565 z m 851 214 l 850 214 b 782 292 811 214 782 256 b 813 338 782 313 790 331 b 829 353 819 340 825 344 b 832 364 832 357 832 361 b 831 372 832 367 832 369 b 719 438 815 403 775 432 b 764 454 722 449 740 454 b 917 354 814 454 890 428 b 926 300 924 336 926 318 b 851 214 926 254 903 215 z "},"C":{"ha":854,"x_min":0,"x_max":0,"o":"m 446 -62 b 813 228 635 -56 813 64 b 724 435 813 292 786 361 b 706 443 719 440 713 443 b 685 431 697 443 689 439 b 468 300 650 340 560 300 b 239 461 360 300 253 357 l 238 485 b 443 774 238 615 361 774 b 468 768 451 774 460 772 b 496 728 488 757 496 743 b 331 596 496 671 381 596 l 328 596 b 540 433 333 511 451 433 b 574 438 551 433 563 435 b 733 693 672 467 733 582 b 497 928 733 813 664 928 l 454 925 b 10 439 236 901 50 672 b 0 332 3 401 0 365 b 426 -62 0 51 217 -62 z "},"D":{"ha":1208,"x_min":0,"x_max":0,"o":"m 747 -61 b 1196 431 1022 -61 1196 183 b 881 892 1196 614 1101 800 l 892 903 b 901 922 899 908 901 915 b 886 943 901 931 896 940 b 815 958 861 953 838 958 b 738 928 786 958 760 949 b 576 939 697 936 636 939 b 194 656 343 938 194 792 b 301 483 194 590 228 528 b 400 456 333 464 367 456 b 557 592 474 456 540 501 l 558 600 b 544 617 558 608 554 617 l 529 615 b 488 667 497 615 488 639 b 490 694 488 675 489 685 b 610 769 504 751 554 769 b 654 767 625 769 639 768 b 332 321 582 579 501 321 l 319 321 b 219 450 285 325 219 349 b 225 504 219 467 221 485 l 225 507 b 201 529 225 519 214 529 l 194 528 b 4 258 71 492 4 376 b 332 -43 4 113 108 -39 l 338 -43 b 521 25 411 -43 471 -17 b 747 -61 576 -40 664 -61 z m 839 229 b 800 246 825 229 811 235 b 786 292 790 260 786 276 b 817 336 786 311 794 329 b 836 363 826 340 836 351 l 833 372 b 724 436 818 401 779 432 b 801 722 747 529 774 635 b 992 468 943 663 992 563 b 839 229 992 344 907 229 z "},"E":{"ha":854,"x_min":0,"x_max":0,"o":"m 368 672 l 367 679 l 363 672 z m 447 -40 b 815 247 636 -33 815 85 b 726 450 815 310 789 378 b 708 458 722 456 715 458 b 688 446 700 458 692 454 b 488 313 649 347 569 313 b 253 458 371 313 253 386 b 293 524 253 481 264 504 b 443 486 318 514 390 486 b 499 515 469 486 492 494 l 500 524 b 326 621 500 564 425 621 l 308 621 b 300 653 303 631 300 642 b 449 783 300 715 394 783 b 471 778 457 783 465 781 b 493 749 488 774 493 763 b 424 682 493 721 464 682 l 421 682 b 579 540 426 601 501 540 b 617 546 592 540 604 542 b 758 736 707 572 758 654 b 510 936 758 836 682 936 b 457 933 493 936 475 935 b 153 696 344 921 153 819 b 200 593 153 663 167 628 b 4 317 97 557 4 449 l 6 288 b 426 -40 22 124 190 -40 z m 407 549 l 404 549 b 378 557 397 549 378 557 b 386 558 381 558 383 558 b 407 549 396 558 407 550 z "},"F":{"ha":940,"x_min":0,"x_max":0,"o":"m 338 -44 b 661 235 500 -44 599 88 b 710 358 678 272 694 314 b 850 325 761 339 813 325 b 886 332 864 325 876 326 b 944 475 936 360 944 432 l 944 486 b 932 501 944 489 943 501 b 922 499 929 501 926 500 b 847 482 901 488 875 482 b 753 496 818 482 785 488 b 797 715 776 576 792 654 b 979 664 850 696 908 672 l 1018 661 b 1181 792 1125 661 1181 724 b 1154 871 1181 818 1172 846 b 1136 881 1150 878 1143 881 b 1114 868 1128 881 1119 876 b 1033 828 1096 839 1067 828 b 882 868 981 828 919 854 b 510 951 785 906 644 951 l 460 949 b 172 697 311 933 172 861 l 172 685 b 289 494 174 635 194 539 b 389 472 321 481 356 472 b 463 486 414 472 440 478 b 450 457 457 476 453 467 b 447 433 447 447 447 439 b 454 421 447 424 450 421 b 489 431 463 421 476 429 b 329 319 447 365 393 319 l 318 319 b 217 447 282 322 217 346 b 222 501 217 464 218 482 l 222 506 b 197 528 222 518 210 528 l 192 526 b 3 257 68 490 3 375 b 331 -44 3 111 106 -40 z m 528 539 b 549 608 539 558 547 582 l 549 610 b 528 635 549 621 539 635 l 525 635 b 501 629 517 631 508 629 b 451 693 469 629 451 661 l 453 703 b 556 763 460 750 504 763 b 607 760 572 763 590 761 b 546 543 594 692 574 614 z "},"G":{"ha":806,"x_min":0,"x_max":0,"o":"m 160 -346 l 142 -337 b 160 -346 143 -340 157 -343 z m 328 40 l 314 40 b 214 168 279 43 214 67 l 215 192 b 390 151 267 167 326 151 l 407 151 b 503 158 439 153 472 156 b 328 40 457 88 400 40 z m 335 -324 b 658 -44 497 -324 594 -192 b 888 621 719 100 790 547 b 896 639 893 625 896 632 b 881 663 896 649 890 658 b 810 676 856 672 832 676 b 706 611 768 676 732 658 b 661 517 690 586 676 553 b 425 388 611 432 514 388 b 281 444 368 388 314 406 b 246 542 256 472 246 507 b 404 772 246 651 342 772 b 422 768 410 772 417 771 b 450 729 442 757 450 744 b 283 596 450 672 333 596 l 282 596 b 492 435 288 511 404 435 b 526 439 504 435 515 436 b 686 694 625 467 686 583 b 451 928 686 813 617 928 l 407 925 b 29 474 219 906 29 679 b 53 358 29 435 38 394 b 150 232 75 310 108 267 b -1 -22 51 186 -1 83 b 326 -324 -1 -169 101 -319 z "},"H":{"ha":1026,"x_min":0,"x_max":0,"o":"m 886 -65 b 1050 -10 943 -65 1008 -42 b 1060 10 1057 -4 1060 3 b 1050 28 1060 17 1057 24 b 968 217 1010 57 968 90 b 990 415 968 267 975 332 b 1210 753 1094 515 1175 644 b 1224 833 1219 783 1224 810 b 1153 950 1224 906 1185 943 l 1138 951 b 794 411 990 951 836 535 b 771 410 786 410 779 410 b 726 417 756 410 740 413 b 785 647 751 496 772 578 b 906 806 861 665 906 736 b 810 946 906 863 876 919 b 764 954 796 951 779 954 b 651 879 722 954 679 933 b 526 915 611 896 569 908 b 442 924 499 921 469 924 b 181 736 321 924 213 872 b 174 678 178 721 174 700 b 243 522 174 629 189 568 b 388 467 285 488 339 467 b 525 564 447 467 501 496 l 526 571 b 510 594 526 582 519 594 l 497 593 b 450 649 464 593 450 621 b 456 679 450 658 451 669 b 522 719 468 708 493 719 b 592 706 543 719 568 714 b 326 319 551 529 464 319 l 315 319 b 214 449 279 324 214 347 b 219 503 214 465 215 483 l 219 506 b 194 528 219 518 207 528 l 189 526 b 0 257 65 490 0 375 b 326 -44 0 111 103 -40 l 333 -44 b 667 256 511 -44 607 108 b 756 269 696 256 726 261 b 739 128 746 219 739 171 b 789 -31 739 63 754 7 b 886 -65 813 -56 849 -65 z m 1044 650 b 1094 776 1050 671 1078 775 l 1096 776 b 1103 767 1100 776 1103 774 b 1044 650 1103 749 1078 701 z m 815 826 l 814 832 b 821 861 814 843 819 861 b 822 854 822 860 822 857 b 815 826 822 846 818 831 z "},"I":{"ha":731,"x_min":0,"x_max":0,"o":"m 332 -42 b 658 238 496 -42 593 89 b 785 650 711 360 763 524 b 906 808 861 668 906 739 b 810 949 906 865 876 922 b 764 957 796 954 779 957 b 651 882 722 957 679 936 b 526 918 611 899 569 911 b 442 926 499 924 469 926 b 181 739 321 926 211 875 b 174 681 178 724 174 703 b 243 525 174 632 189 571 b 388 469 285 490 339 469 b 525 567 447 469 501 499 l 526 575 l 524 586 b 510 597 519 592 517 597 l 497 596 b 450 651 464 596 450 624 b 456 683 450 663 451 674 b 521 722 468 713 492 722 b 592 708 543 722 568 717 b 325 322 551 532 464 322 l 314 322 b 214 451 279 326 214 350 b 219 506 214 468 215 486 l 219 508 b 194 531 219 521 207 531 l 189 529 b 0 260 65 493 0 378 b 326 -42 0 114 103 -37 z m 815 829 l 814 835 b 821 864 814 846 819 864 b 822 857 822 863 822 860 b 815 829 822 849 818 833 z "},"J":{"ha":806,"x_min":0,"x_max":0,"o":"m 332 -214 b 828 660 654 -214 828 417 b 950 794 907 671 950 731 b 840 944 950 853 914 915 b 790 956 824 951 807 956 b 689 885 753 956 715 936 b 564 921 649 900 607 914 b 482 928 536 925 508 928 b 218 742 360 928 250 878 b 211 683 215 726 211 706 b 281 526 211 633 226 572 b 425 472 322 492 375 472 b 563 569 485 472 539 501 l 564 578 l 561 589 b 547 600 557 594 554 600 l 533 599 b 488 653 501 599 488 625 b 493 685 488 664 489 675 b 558 724 506 714 529 724 b 638 707 583 724 611 717 b 328 150 593 565 529 150 l 315 150 b 214 278 279 153 214 176 b 219 332 214 294 215 313 l 219 335 b 194 358 219 349 207 358 l 189 357 b 0 88 65 321 0 204 b 326 -214 0 -60 103 -210 z m 853 831 l 851 838 b 858 867 851 849 857 867 l 860 860 b 853 831 860 851 856 838 z "},"K":{"ha":1122,"x_min":0,"x_max":0,"o":"m 1003 -199 b 1265 -28 1153 -199 1251 -93 l 1265 -22 b 1258 -6 1265 -17 1264 -11 b 1242 0 1254 -1 1249 0 l 1236 0 b 1207 -3 1228 -3 1218 -3 b 1029 63 1146 -3 1068 33 b 864 326 939 129 897 235 b 1189 718 1069 369 1189 561 b 1011 929 1189 825 1133 915 l 1008 929 b 985 904 994 929 985 918 l 985 900 b 997 776 993 864 997 821 b 821 431 997 636 951 475 b 750 501 804 463 786 489 b 785 650 765 553 776 604 b 906 808 861 668 906 739 b 810 949 906 865 876 922 b 764 957 796 954 779 957 b 651 882 722 957 679 936 b 526 918 611 899 569 911 b 442 926 499 924 469 926 b 181 739 321 926 213 875 b 174 681 178 724 174 703 b 243 525 174 632 189 571 b 388 469 285 490 339 469 b 525 567 447 469 501 499 l 526 574 b 510 597 526 585 519 597 l 497 596 b 450 651 464 596 450 624 b 456 682 450 661 451 672 b 522 722 468 711 492 722 b 592 708 543 722 568 717 b 325 322 551 532 464 322 l 314 322 b 214 451 279 326 214 350 b 219 506 214 468 215 486 l 219 508 b 194 531 219 521 207 531 l 189 529 b 0 260 65 493 0 378 b 326 -42 0 114 103 -37 l 333 -42 b 693 325 538 -42 631 160 b 750 318 713 322 732 319 b 746 160 749 271 746 215 b 908 -185 746 11 768 -144 b 1003 -199 942 -194 974 -199 z m 724 414 l 733 443 b 744 415 739 436 742 426 z m 815 829 l 814 835 b 821 864 814 846 819 864 b 822 857 822 863 822 860 b 815 829 822 849 818 833 z "},"L":{"ha":1032,"x_min":0,"x_max":0,"o":"m 726 -72 b 993 149 901 -72 993 42 b 896 310 993 213 961 275 b 883 313 892 313 888 313 b 861 293 872 313 863 306 b 721 193 849 214 789 193 b 533 222 656 193 583 213 b 596 467 569 317 588 411 b 761 708 690 513 751 611 b 764 765 763 725 764 744 b 664 951 764 844 746 942 l 650 953 b 414 593 540 953 472 783 b 325 668 369 604 325 631 b 386 731 325 700 350 731 l 392 731 b 410 742 399 731 406 735 b 414 754 413 746 414 750 b 411 765 414 758 413 763 b 278 854 375 828 326 854 b 88 654 182 854 88 758 b 258 456 88 582 133 506 b 365 431 293 442 329 433 b 311 254 347 368 329 308 b 247 257 292 256 269 257 b 3 125 142 257 18 235 l 1 106 b 219 -46 1 8 108 -46 b 400 14 285 -46 353 -28 b 582 -50 461 -10 524 -33 b 726 -72 635 -65 683 -72 z m 633 642 l 631 643 b 676 819 631 643 664 819 b 678 813 678 819 678 817 b 633 642 678 781 647 642 z m 164 67 b 129 85 144 67 129 74 l 131 90 b 156 106 133 101 143 106 b 221 88 174 106 199 97 b 164 67 207 74 183 67 z "},"M":{"ha":1285,"x_min":0,"x_max":0,"o":"m 1288 -217 b 1547 -29 1411 -217 1518 -111 l 1549 -19 b 1531 3 1549 -8 1543 3 l 1519 0 b 1482 -6 1510 -4 1497 -6 b 1351 19 1450 -6 1407 3 b 1226 261 1256 47 1226 143 b 1307 819 1226 454 1307 707 b 1303 853 1307 833 1306 844 b 1215 883 1297 872 1254 883 b 1151 854 1182 883 1151 875 l 1154 839 b 857 267 1154 760 857 267 b 788 596 794 338 788 515 l 788 635 b 908 794 864 654 908 725 b 813 935 908 851 879 908 b 767 943 799 940 782 943 b 654 868 725 943 682 922 b 531 904 614 883 572 896 b 447 911 503 908 475 911 b 183 724 325 911 215 861 b 176 667 181 708 176 689 b 247 510 176 617 192 556 b 390 456 289 475 342 456 b 528 553 450 456 504 485 l 529 560 b 513 583 529 569 522 583 l 500 582 b 453 638 467 582 453 610 b 458 668 453 649 454 658 b 525 707 471 697 496 707 b 596 693 546 707 571 701 b 329 308 556 518 467 308 l 318 308 b 217 436 282 311 217 335 b 222 490 217 453 218 471 l 222 493 b 200 515 222 506 211 515 l 192 514 b 3 246 68 478 3 363 b 331 -57 3 99 106 -51 l 336 -57 b 700 321 544 -57 638 153 b 828 -39 725 174 778 35 b 849 -50 833 -46 840 -50 b 869 -36 857 -50 865 -44 b 1057 318 954 144 1003 249 b 1022 113 1057 318 1022 225 b 1144 -165 1022 17 1049 -92 b 1288 -217 1193 -201 1242 -217 z m 818 814 l 817 821 b 824 850 817 832 822 850 b 825 843 825 849 825 846 b 818 814 825 833 821 819 z "},"N":{"ha":1092,"x_min":0,"x_max":0,"o":"m 339 -53 b 663 226 501 -53 599 79 b 732 413 686 282 710 347 b 847 32 783 278 847 96 b 843 13 847 24 846 17 b 838 -1 839 7 838 3 b 938 -46 838 -28 894 -46 b 983 -32 958 -46 976 -42 b 1101 554 1038 50 1029 358 b 1314 729 1140 660 1224 729 b 1435 683 1354 729 1396 714 b 1449 678 1440 679 1444 678 b 1471 706 1463 678 1471 693 b 1236 960 1471 804 1386 960 b 1138 939 1206 960 1172 953 b 910 365 926 854 910 481 l 910 331 b 789 636 888 396 822 497 l 789 638 b 910 797 865 657 910 728 b 814 938 910 854 881 911 b 768 946 800 943 783 946 b 656 871 726 946 683 925 b 531 907 615 886 574 900 b 447 914 503 911 475 914 b 185 728 325 914 217 865 b 178 669 182 713 178 692 b 247 513 178 619 193 558 b 392 458 289 478 342 458 b 529 556 451 458 506 488 l 531 563 b 515 586 531 574 524 586 l 500 585 b 454 639 468 585 454 611 b 460 671 454 650 456 661 b 525 711 472 700 496 711 b 596 696 547 711 571 704 b 331 311 556 521 468 311 l 319 311 b 218 439 283 314 218 338 b 224 493 218 456 219 474 l 224 496 b 199 519 224 510 211 519 l 193 518 b 4 249 69 482 4 365 b 331 -53 4 101 107 -49 z m 819 817 l 818 824 b 825 853 818 835 824 853 b 826 846 826 851 826 849 b 819 817 826 836 822 822 z "},"O":{"ha":776,"x_min":0,"x_max":0,"o":"m 356 225 l 351 225 b 236 336 285 226 244 271 l 235 350 b 293 417 235 394 267 417 b 329 382 313 417 329 404 l 329 379 b 303 354 328 360 317 354 b 281 339 293 353 285 349 l 278 329 b 283 313 278 324 281 318 b 368 276 303 289 333 276 b 546 414 435 276 515 322 b 558 486 554 438 558 463 b 446 622 558 550 526 608 b 403 626 432 625 417 626 b 161 474 303 626 203 565 l 160 489 b 401 771 160 597 286 771 l 410 771 b 583 525 528 764 583 647 b 356 225 583 379 506 225 z m 325 -53 b 757 438 615 -53 738 199 l 760 492 b 425 928 760 697 658 928 b 11 550 218 928 64 733 b 1 468 7 531 1 500 b 99 350 1 410 19 350 l 107 350 b 83 219 92 311 83 265 b 325 -53 83 86 151 -53 z "},"P":{"ha":1118,"x_min":0,"x_max":0,"o":"m 336 -43 b 696 339 540 -43 646 167 b 847 313 749 321 800 313 b 1178 608 1044 313 1178 458 b 893 904 1178 726 1094 849 b 900 921 897 908 900 915 b 885 943 900 931 894 940 b 814 957 860 953 836 957 b 740 931 786 957 763 949 b 575 939 689 936 625 939 b 193 654 342 938 193 792 b 300 483 193 590 226 528 b 400 454 332 464 367 454 b 556 590 472 454 539 500 l 557 600 b 543 617 557 608 553 617 l 526 615 b 486 665 496 615 486 639 b 489 693 486 675 488 683 b 615 775 504 757 557 775 l 654 772 b 331 321 582 585 501 321 l 318 321 b 217 450 282 325 217 349 b 222 504 217 467 218 485 l 222 508 b 199 529 222 519 211 529 l 192 528 b 3 258 68 492 3 376 b 331 -43 3 113 106 -39 z m 776 425 b 719 429 758 425 739 426 b 808 749 747 535 776 654 b 965 572 915 711 965 639 b 776 425 965 494 899 425 z "},"Q":{"ha":781,"x_min":0,"x_max":0,"o":"m 510 146 b 425 183 476 172 450 174 b 508 353 474 228 508 288 b 501 401 508 368 506 385 b 382 494 483 467 433 494 b 253 388 318 494 253 451 l 254 374 b 269 354 256 364 261 357 l 279 351 b 293 357 285 351 289 354 b 324 367 301 364 313 367 b 372 340 346 367 367 357 b 374 329 374 336 374 333 b 285 268 374 294 315 269 l 282 268 b 183 382 235 268 186 297 b 428 681 188 481 257 672 l 435 681 b 614 406 471 681 607 658 b 510 146 607 265 567 196 z m 374 79 b 364 86 368 79 364 81 l 364 89 b 381 104 365 100 372 104 b 413 89 392 104 406 96 b 374 79 406 88 386 79 z m 771 -315 b 999 -110 915 -315 999 -189 b 996 -85 999 -100 999 -92 b 979 -68 993 -76 988 -71 l 971 -67 b 956 -72 965 -67 960 -68 b 899 -92 938 -86 918 -92 b 847 -85 882 -92 865 -89 b 596 72 760 -68 676 6 b 764 481 718 182 756 314 l 765 506 b 421 928 765 672 671 917 l 408 928 b 1 385 149 928 1 622 b 3 340 1 369 1 356 b 219 100 18 167 115 100 b 297 111 246 100 272 104 b 288 64 290 93 288 78 b 399 -26 288 6 338 -26 b 465 -14 419 -26 443 -22 b 743 -314 514 -131 582 -297 z "},"R":{"ha":1114,"x_min":0,"x_max":0,"o":"m 990 -199 b 1253 -28 1140 -199 1239 -93 l 1254 -21 b 1247 -6 1254 -15 1251 -10 b 1232 1 1242 -1 1238 1 l 1225 0 b 1179 -6 1210 -4 1194 -6 b 857 314 1021 -6 904 188 b 1175 610 1049 319 1175 463 b 890 907 1175 729 1092 851 b 896 922 894 911 896 917 b 881 944 896 932 890 942 b 810 958 856 954 832 958 b 738 933 783 958 758 951 b 571 940 685 938 624 940 b 189 656 338 939 189 793 b 296 485 189 592 222 529 b 394 457 328 465 361 457 b 553 592 468 457 536 503 l 553 599 b 540 618 553 608 550 618 l 524 617 b 482 665 493 617 482 639 b 486 694 482 675 483 685 b 613 776 501 758 554 776 l 651 774 b 328 322 578 586 497 322 l 315 322 b 214 451 279 326 214 350 b 219 506 214 468 215 486 l 219 508 b 194 531 219 521 207 531 l 189 529 b 0 260 65 493 0 378 b 326 -42 0 114 103 -37 l 332 -42 b 693 340 538 -42 643 168 b 738 328 708 335 724 331 b 733 163 738 279 733 221 b 896 -185 733 14 754 -144 b 990 -199 929 -194 961 -199 z m 728 429 l 717 432 l 721 444 b 728 429 724 440 726 436 z m 810 429 b 735 503 793 464 774 490 b 806 750 757 588 781 676 b 963 574 913 713 963 640 b 810 429 963 504 908 442 z "},"S":{"ha":821,"x_min":0,"x_max":0,"o":"m 417 -49 b 781 276 633 -49 781 106 b 778 319 781 290 781 306 b 631 636 760 435 683 535 b 786 813 731 668 786 743 b 694 933 786 863 757 910 b 626 947 671 943 647 947 b 446 781 536 947 472 872 b 407 826 425 789 410 801 l 407 835 b 447 889 407 861 421 889 b 468 883 454 889 461 888 l 471 882 b 489 906 481 882 489 896 b 353 1021 483 985 421 1021 b 269 1003 325 1021 296 1014 b 169 842 189 965 171 885 l 169 832 b 413 618 169 693 286 631 b 456 617 426 617 442 617 b 569 326 494 554 569 421 b 451 225 569 268 540 225 l 433 225 b 342 318 381 228 342 269 l 342 328 b 408 415 347 388 381 415 b 435 406 418 415 428 413 b 450 399 439 401 444 399 b 472 414 458 399 468 404 b 481 454 478 426 481 440 b 294 625 481 533 385 613 l 261 628 b 1 292 100 628 1 451 l 3 260 b 417 -49 24 32 207 -49 z m 597 751 b 599 767 597 757 597 761 b 654 838 611 819 635 838 b 683 810 671 838 683 825 b 657 771 683 797 675 783 b 597 751 636 757 618 751 z "},"T":{"ha":743,"x_min":0,"x_max":0,"o":"m 336 -44 b 661 236 499 -44 597 88 b 797 715 724 381 786 586 b 979 664 850 697 908 674 l 1017 661 b 1181 792 1125 661 1181 724 b 1154 871 1181 818 1172 846 b 1135 881 1150 878 1142 881 b 1114 869 1126 881 1119 878 b 1033 829 1096 840 1067 829 b 882 869 981 829 919 856 b 511 951 785 907 644 951 l 460 949 b 172 699 310 935 172 863 l 172 686 b 289 496 174 635 193 539 b 389 474 321 481 356 474 b 549 610 469 474 543 517 l 549 611 b 529 636 549 622 539 636 l 525 635 b 501 629 517 631 508 629 b 451 693 469 629 451 661 l 453 703 b 553 764 458 750 501 764 b 607 760 569 764 589 763 b 331 321 574 578 482 321 l 318 321 b 217 449 282 324 217 347 b 222 503 217 465 218 483 l 222 506 b 200 528 222 518 211 528 l 192 526 b 3 257 68 490 3 375 b 331 -44 3 111 106 -40 z "},"U":{"ha":1029,"x_min":0,"x_max":0,"o":"m 914 -156 b 1090 3 1047 -156 1090 -64 b 1083 46 1090 19 1088 35 b 1072 53 1079 51 1075 53 b 1063 46 1067 53 1064 49 b 1024 25 1058 32 1042 25 b 968 72 1000 25 972 39 b 965 124 967 89 965 106 b 1074 774 965 319 1074 592 b 1071 822 1074 790 1074 807 b 926 911 1060 896 975 910 l 924 911 b 900 888 911 911 900 900 l 901 867 b 618 167 901 704 754 167 b 601 169 613 167 607 168 b 565 285 574 186 565 231 b 601 550 565 376 592 494 b 742 728 686 571 742 653 b 653 856 742 781 715 831 b 606 864 638 861 622 864 b 489 786 563 864 518 843 b 361 824 447 803 404 815 b 275 831 332 828 303 831 b 3 638 149 831 36 779 b -4 578 -1 621 -4 600 b 68 417 -4 526 11 464 b 217 361 111 382 165 361 b 358 461 278 361 335 390 l 360 468 b 344 492 360 479 353 492 l 331 490 b 281 549 296 490 281 518 b 288 581 281 560 283 571 b 356 621 300 610 325 621 b 428 606 378 621 403 614 b 353 190 410 524 353 340 b 524 -37 353 64 392 -37 l 533 -37 b 739 51 613 -35 682 -7 b 911 -156 739 -68 781 -156 z m 658 731 l 657 738 b 664 768 657 749 663 768 b 665 761 665 767 665 764 b 658 731 665 751 661 736 z "},"V":{"ha":1014,"x_min":0,"x_max":0,"o":"m 556 -53 b 1118 750 921 -53 1025 522 b 1143 776 1125 768 1135 776 b 1172 726 1158 776 1172 757 l 1171 711 b 1193 688 1171 699 1181 688 l 1196 688 b 1414 865 1347 700 1414 781 b 1218 1067 1414 953 1342 1044 b 1175 1071 1203 1069 1189 1071 b 863 706 993 1071 900 861 b 626 164 818 521 733 164 l 618 164 b 579 269 589 169 579 213 b 617 549 579 371 611 513 b 760 731 703 569 760 653 b 669 860 760 783 733 835 b 621 869 654 865 638 869 b 501 789 576 869 532 846 b 371 828 458 807 415 819 b 283 835 342 832 311 835 b 4 638 153 835 38 783 b -3 576 0 621 -3 600 b 71 411 -3 524 13 460 b 222 354 114 375 171 354 b 368 457 286 354 343 385 l 369 465 b 367 476 369 469 368 474 b 351 489 363 483 358 489 l 338 488 b 289 546 304 488 289 515 b 296 579 289 557 292 568 b 365 621 308 610 335 621 b 439 606 388 621 414 614 b 361 183 418 515 361 333 b 536 -53 361 57 401 -46 z m 675 733 l 674 739 b 681 771 674 750 681 771 b 682 764 682 769 682 767 b 675 733 682 754 678 739 z "},"W":{"ha":1285,"x_min":0,"x_max":0,"o":"m 865 -60 l 888 -58 b 1383 756 1214 -8 1289 521 b 1410 782 1390 774 1400 782 b 1438 733 1424 782 1438 764 l 1436 718 b 1458 694 1436 706 1446 694 l 1461 694 b 1678 871 1611 707 1678 788 b 1483 1071 1678 958 1606 1049 b 1447 1074 1471 1072 1460 1074 b 1154 808 1315 1074 1201 950 b 901 175 1117 696 1047 217 b 889 174 897 174 893 174 b 847 267 858 174 847 214 l 849 294 b 944 589 864 329 944 497 b 907 649 944 622 935 644 l 899 649 b 746 265 799 649 758 354 b 644 160 735 240 694 160 b 614 169 635 160 625 163 b 578 283 588 188 578 231 b 617 556 578 375 606 492 b 760 736 703 576 760 660 b 669 865 760 789 732 840 b 621 875 654 871 638 875 b 501 796 576 875 532 851 b 372 833 460 813 415 825 b 285 840 343 838 313 840 b 7 644 156 840 40 789 b 0 583 4 628 0 607 b 74 419 0 532 15 467 b 225 363 118 383 174 363 b 369 464 288 363 344 392 l 371 471 b 354 496 371 482 363 496 l 339 494 b 290 553 306 494 290 522 b 297 586 290 564 293 575 b 367 628 310 617 336 628 b 440 613 389 628 415 621 b 363 225 413 492 363 356 b 381 101 363 183 368 142 b 536 -49 403 32 449 -49 b 607 -33 557 -49 581 -44 b 739 92 651 -15 697 31 b 865 -60 747 -1 790 -60 z m 674 739 l 674 743 b 681 776 674 754 679 776 b 682 769 682 775 682 772 b 674 739 682 760 676 744 z "},"X":{"ha":1282,"x_min":0,"x_max":0,"o":"m 1033 -193 b 1061 -192 1043 -193 1051 -193 b 1274 26 1210 -172 1274 -71 b 1115 231 1274 121 1215 213 l 1113 231 b 1094 215 1104 231 1094 224 l 1096 210 b 1104 156 1103 189 1104 171 b 1042 72 1104 96 1065 75 l 1035 72 b 772 442 958 72 860 253 b 967 851 846 644 900 832 b 978 853 971 853 974 853 b 1003 846 986 853 994 850 l 1011 844 b 1035 861 1022 844 1032 850 b 1040 892 1039 874 1040 883 b 988 947 1040 931 1008 940 b 935 953 969 951 951 953 b 657 699 804 953 725 836 b 586 840 626 767 601 819 b 418 936 543 897 481 936 b 388 933 408 936 397 936 b 253 785 303 917 253 849 b 397 664 253 726 297 671 l 400 664 b 422 685 411 664 419 674 b 436 703 424 699 429 703 b 510 624 457 703 497 649 b 567 506 529 586 549 546 b 332 269 504 376 438 269 l 318 269 b 218 401 242 275 218 338 b 222 451 218 418 219 435 l 222 454 b 200 476 222 467 211 476 l 192 475 b 3 206 68 439 3 324 b 331 -96 3 60 106 -92 l 335 -96 b 686 229 493 -96 603 50 b 801 -17 725 136 764 50 b 1033 -193 856 -111 928 -193 z "},"Y":{"ha":965,"x_min":0,"x_max":0,"o":"m 489 -219 b 983 626 814 -219 958 375 b 1000 839 993 719 1000 788 b 944 963 1000 915 985 950 b 896 971 928 968 911 971 b 831 942 858 971 831 956 b 833 933 831 939 831 936 b 838 908 836 929 838 921 b 792 626 838 840 801 667 b 608 417 761 496 667 417 b 558 474 581 417 560 435 b 588 653 565 543 581 614 b 724 824 669 672 724 751 b 638 947 724 875 697 922 b 592 956 624 953 607 956 b 479 881 550 956 507 935 b 356 917 439 896 397 908 b 272 924 328 921 300 924 b 8 736 150 924 40 874 b 1 679 6 721 1 701 b 72 522 1 629 17 568 b 215 468 114 488 167 468 b 353 565 275 468 329 497 l 354 572 b 338 596 354 582 347 596 l 325 594 b 278 650 292 594 278 622 b 283 681 278 661 279 671 b 350 721 296 710 321 721 b 421 706 372 721 396 714 b 364 436 403 626 364 525 b 514 258 364 353 399 283 b 561 253 529 254 546 253 b 676 279 601 253 640 264 b 485 146 628 200 563 146 l 471 146 b 369 275 436 149 369 172 b 375 328 369 290 371 308 l 375 332 b 353 353 375 344 365 353 l 344 351 b 156 82 221 315 156 200 b 483 -219 156 -64 258 -215 z m 643 826 l 642 833 b 649 863 642 844 647 863 b 650 856 650 861 650 858 b 643 826 650 846 646 832 z "},"Z":{"ha":1029,"x_min":0,"x_max":0,"o":"m 726 -72 b 992 150 901 -72 992 42 b 894 311 992 214 960 276 b 882 314 890 314 886 314 b 860 294 871 314 861 307 b 711 192 853 254 821 192 b 606 207 682 192 647 196 b 532 224 581 213 557 219 b 707 621 622 363 651 422 b 857 786 804 635 857 711 b 764 922 857 842 828 897 b 718 931 750 928 733 931 b 606 856 676 931 633 910 b 317 911 528 886 419 911 b 17 728 178 911 49 865 b 10 669 14 713 10 692 b 81 514 10 619 25 558 b 225 458 122 479 175 458 b 361 556 283 458 338 488 l 363 563 b 347 586 363 574 356 586 l 333 585 b 286 639 301 585 286 611 b 293 671 286 650 289 661 b 386 710 306 700 343 710 b 546 681 446 710 515 692 b 319 256 508 515 413 350 b 254 258 300 257 278 258 b 1 126 149 258 17 236 l 0 107 b 189 -46 0 11 104 -33 b 231 -49 203 -49 217 -49 b 399 15 297 -49 354 -24 b 581 -49 460 -8 522 -32 b 726 -72 635 -64 683 -72 z m 769 801 l 768 808 b 775 838 768 819 774 838 b 776 831 776 836 776 833 b 769 801 776 821 772 807 z m 151 71 b 128 86 138 71 128 75 l 129 92 b 153 110 133 104 142 110 b 207 93 168 110 186 103 b 151 71 192 79 168 71 z "},"[":{"ha":694,"x_min":0,"x_max":0,"o":"m 163 -64 b 274 -33 211 -64 247 -54 b 313 19 289 -19 303 -1 l 315 29 b 293 53 315 42 306 53 l 175 53 l 526 1001 l 667 1001 b 689 1017 676 1001 686 1007 b 697 1047 693 1028 697 1039 l 699 1058 b 693 1086 699 1068 696 1078 b 626 1111 685 1104 663 1111 l 436 1111 b 414 1096 426 1111 418 1106 l 1 -33 l 0 -42 b 22 -64 0 -54 10 -64 z "},"\\":{"ha":621,"x_min":0,"x_max":0,"o":"m 542 -94 b 557 -90 546 -94 551 -93 l 603 -62 b 619 -44 611 -58 615 -51 l 622 -35 l 619 -25 l 115 897 b 99 906 113 903 106 906 b 81 900 93 906 86 904 l 15 856 b 0 838 8 851 3 844 l -1 829 l 1 819 l 525 -86 b 542 -94 528 -92 535 -94 z "},"]":{"ha":692,"x_min":0,"x_max":0,"o":"m 264 -64 b 285 -49 274 -64 282 -58 l 699 1081 l 700 1088 b 676 1111 700 1100 689 1111 l 536 1111 b 426 1081 489 1111 451 1101 b 386 1028 410 1067 396 1049 l 383 1018 b 407 994 383 1006 394 994 l 524 994 l 174 46 l 32 46 b 11 31 22 46 14 40 b 1 0 7 19 3 8 l 1 -10 b 7 -37 1 -19 3 -29 b 74 -64 15 -57 36 -64 z "},"^":{"ha":421,"x_min":0,"x_max":0,"o":"m 335 650 l 343 651 l 410 681 b 422 694 415 683 419 688 l 424 703 l 421 713 b 236 953 375 794 331 953 l 219 951 b 4 749 146 936 83 824 b -3 733 0 744 -3 739 l -3 731 b 6 714 -3 724 0 718 l 69 664 b 86 658 75 660 81 658 b 103 668 93 660 99 663 l 218 825 l 314 661 b 335 650 318 654 326 650 z "},"_":{"ha":564,"x_min":0,"x_max":0,"o":"m 526 -39 b 547 -24 536 -39 544 -33 l 567 28 l 568 36 b 544 60 568 49 558 60 l 40 60 b 19 44 31 60 22 53 l 0 -7 l -1 -15 b 22 -39 -1 -28 8 -39 z "},"`":{"ha":164,"x_min":0,"x_max":0,"o":"m 106 906 l 115 908 l 154 928 b 167 949 161 932 167 940 l 165 957 l 121 1063 b 65 1106 107 1094 88 1106 b 13 1090 49 1106 31 1100 b 0 1074 6 1086 1 1081 l 0 1068 b 4 1056 0 1064 1 1060 b 85 918 29 1024 58 965 b 106 906 90 910 97 906 z "},"a":{"ha":607,"x_min":0,"x_max":0,"o":"m 450 3 b 717 285 590 3 672 149 l 719 299 b 674 336 719 322 696 336 b 632 308 656 336 638 328 b 563 196 613 249 589 196 b 549 200 558 196 553 197 b 529 239 539 207 531 219 l 529 246 b 576 407 529 279 556 342 b 586 464 582 428 586 447 b 446 597 586 551 514 597 b 403 590 431 597 417 594 b 389 576 397 588 392 583 b 388 567 388 574 388 569 b 389 557 388 564 388 561 b 393 535 392 551 393 543 l 392 514 b 276 579 361 560 319 579 b 3 236 151 579 3 414 b 13 161 3 211 6 186 b 147 8 32 81 83 26 b 171 6 154 6 163 6 b 325 89 218 6 276 38 b 440 3 351 38 396 4 z m 306 269 l 288 271 b 251 333 263 274 251 301 b 317 447 251 385 278 447 l 325 446 b 360 403 343 443 354 426 b 319 271 346 361 331 315 z "},"b":{"ha":642,"x_min":0,"x_max":0,"o":"m 294 4 b 629 382 526 4 629 210 b 626 431 629 399 628 415 b 443 617 611 561 533 617 b 293 569 393 617 340 600 b 335 693 313 626 331 667 b 338 729 336 706 338 718 b 189 871 338 838 251 871 b 128 853 160 871 135 863 b 122 839 124 847 122 843 b 138 776 122 824 138 808 b 133 747 138 768 136 758 b 15 410 118 685 58 549 b 0 310 6 376 0 343 b 274 4 0 156 104 14 z m 300 267 l 293 267 b 235 347 250 272 235 310 b 239 379 235 358 236 369 b 369 501 253 440 308 501 b 415 489 385 501 400 497 b 432 451 426 482 432 469 b 300 267 432 386 363 267 z "},"c":{"ha":522,"x_min":0,"x_max":0,"o":"m 261 -4 b 619 282 422 1 547 100 b 624 299 622 288 624 294 b 578 338 624 322 600 338 b 538 311 561 338 544 329 b 347 132 494 207 435 146 l 329 131 b 244 247 267 131 244 182 b 249 303 244 265 246 283 b 360 511 271 456 325 511 b 381 503 368 511 375 508 b 389 474 385 494 389 483 b 333 428 389 450 375 428 l 328 428 b 304 413 317 428 308 422 b 294 364 297 394 294 379 b 390 274 294 307 342 274 b 443 288 408 274 426 278 b 519 439 494 317 519 378 b 506 514 519 465 515 490 b 343 607 476 582 414 607 l 315 606 b -1 239 119 589 -1 401 b 247 -4 -1 110 75 -4 z "},"d":{"ha":657,"x_min":0,"x_max":0,"o":"m 721 751 l 721 760 l 719 760 z m 469 1 b 772 285 628 1 724 139 b 775 300 774 290 775 294 b 726 338 775 324 750 338 b 681 311 707 338 688 329 b 600 213 660 260 632 213 l 593 214 b 560 289 568 219 560 250 b 597 493 560 365 593 475 b 665 693 628 592 660 656 b 668 729 667 706 668 718 b 519 871 668 838 582 871 b 458 853 490 871 465 863 b 453 839 454 847 453 843 b 468 776 453 824 468 808 b 464 747 468 768 467 758 b 383 521 453 701 418 617 b 278 581 356 563 318 581 b 7 238 156 581 7 415 b 17 161 7 211 10 186 b 151 8 36 81 88 26 b 176 6 160 6 168 6 b 322 82 221 6 275 35 b 463 1 349 25 403 3 z m 285 271 b 250 336 261 271 250 303 b 254 369 250 347 251 360 b 321 447 264 410 290 447 l 329 446 b 344 417 340 444 344 432 b 314 282 344 376 319 308 b 285 271 303 274 293 271 z "},"e":{"ha":518,"x_min":0,"x_max":0,"o":"m 265 -4 b 632 283 449 -1 565 97 b 635 299 635 289 635 294 b 588 338 635 324 611 338 b 544 311 569 338 551 329 b 351 132 506 208 447 146 l 340 132 b 254 215 293 132 254 171 l 254 224 b 346 176 285 190 315 176 b 524 435 440 176 524 315 b 347 607 524 526 475 607 l 319 606 b 3 240 124 589 3 403 b 257 -4 3 111 81 -4 z m 303 349 b 282 356 294 349 288 350 b 360 514 288 389 339 514 l 363 514 b 394 463 386 503 394 483 b 303 349 394 413 342 349 z "},"f":{"ha":464,"x_min":0,"x_max":0,"o":"m 110 -204 b 428 165 306 -204 428 -19 b 424 224 428 185 426 204 b 601 403 501 261 571 322 b 604 419 604 408 604 414 b 560 457 604 442 582 457 b 519 431 543 457 526 449 b 396 318 499 376 451 340 b 264 442 369 374 326 418 b 293 585 276 492 289 538 l 294 606 b 135 763 294 726 200 763 b 75 744 106 763 82 754 b 71 732 72 740 71 736 b 89 660 71 714 89 699 b 88 638 89 653 89 646 b -50 106 58 458 8 278 b -69 -14 -62 68 -69 26 b 76 -203 -69 -107 -29 -192 b 110 -204 88 -204 99 -204 z m 224 288 l 242 360 b 278 290 263 336 271 324 z m 196 61 b 181 76 189 61 183 67 b 196 176 185 111 190 144 l 224 175 b 271 178 239 175 254 176 b 196 61 253 114 217 61 z "},"g":{"ha":599,"x_min":0,"x_max":0,"o":"m 225 -349 b 585 422 457 -349 585 186 b 571 519 585 468 581 501 b 436 596 543 571 486 596 b 388 588 418 596 403 593 b 372 567 376 583 372 575 l 375 554 b 297 578 351 571 325 578 b 0 226 164 578 0 408 b 8 157 0 203 3 181 b 176 15 32 68 99 15 b 297 58 215 15 257 29 b 192 -87 283 6 254 -87 l 181 -86 b 92 -39 150 -81 108 -56 b 75 -32 88 -35 81 -32 b 54 -44 67 -32 58 -36 b 26 -147 36 -79 26 -114 b 204 -347 26 -249 103 -333 z m 281 271 l 275 271 b 242 325 251 272 242 296 b 313 444 242 376 271 443 l 314 444 b 369 378 340 444 369 404 l 369 375 l 364 342 b 281 271 347 308 319 271 z "},"h":{"ha":625,"x_min":0,"x_max":0,"o":"m 496 -6 b 649 114 574 -6 649 39 l 649 117 l 636 117 b 569 175 586 117 569 139 b 638 467 569 247 638 372 b 500 592 638 531 606 582 l 479 593 b 303 521 410 593 351 563 b 361 693 329 604 356 660 b 364 729 363 706 364 718 b 217 871 364 838 278 871 b 156 853 186 871 163 863 b 150 838 151 847 150 842 b 164 776 150 822 164 807 b 160 747 164 768 163 758 b 0 182 138 649 0 369 b 151 1 0 82 38 10 l 163 1 b 238 38 204 1 238 15 b 231 126 232 68 231 97 b 243 261 231 172 236 215 b 388 460 264 315 328 460 b 408 454 394 460 401 458 b 426 429 421 446 426 439 b 336 233 426 397 363 347 b 328 164 331 208 328 185 b 496 -6 328 46 414 -6 z "},"i":{"ha":317,"x_min":0,"x_max":0,"o":"m 213 649 b 328 764 276 649 328 700 b 213 879 328 828 276 879 b 97 764 150 879 97 828 b 213 649 97 700 150 649 z m 136 3 b 403 285 276 3 358 149 l 406 299 b 360 336 406 322 382 336 b 318 308 342 336 324 328 b 249 196 299 249 275 196 b 235 200 244 196 239 197 b 215 239 225 207 217 219 l 215 244 b 285 525 215 300 285 432 b 210 625 285 574 267 613 b 190 626 203 626 197 626 b 83 590 151 626 110 607 b 72 569 76 586 72 578 b 75 558 72 567 72 563 b 79 535 78 553 79 544 b -10 171 79 461 -10 286 b -6 132 -10 157 -8 144 b 126 3 14 57 71 6 z "},"j":{"ha":244,"x_min":0,"x_max":0,"o":"m 136 649 b 250 761 199 649 250 699 l 250 764 b 133 879 250 828 197 879 b 19 764 69 879 19 828 b 136 649 21 700 72 649 z m -129 -365 b 229 421 101 -365 229 182 b 215 519 229 468 225 501 b 81 596 188 571 131 596 b 32 588 63 596 47 593 b 17 565 22 583 17 575 l 18 557 b 25 500 22 544 25 525 b -178 -68 25 336 -72 -58 l -186 -68 b -262 -39 -210 -68 -244 -58 b -281 -32 -267 -35 -274 -32 b -301 -44 -289 -32 -297 -36 b -329 -150 -319 -79 -329 -115 b -150 -364 -329 -256 -253 -349 z "},"k":{"ha":625,"x_min":0,"x_max":0,"o":"m 428 -12 b 711 285 586 -12 667 140 l 714 299 b 669 338 714 322 692 338 b 629 310 651 338 635 328 b 494 161 601 228 560 161 l 485 161 b 360 225 424 167 383 197 b 614 515 497 269 614 414 b 478 622 614 575 574 619 l 472 622 b 318 565 417 622 364 600 b 361 693 339 624 357 665 b 364 729 363 706 364 718 b 217 871 364 838 278 871 b 156 853 186 871 163 863 b 150 838 151 847 150 842 b 164 776 150 822 164 807 b 160 747 164 768 163 758 b 0 182 138 649 0 369 b 151 1 0 82 38 10 l 163 1 b 238 38 204 1 238 15 b 231 129 232 68 231 99 l 231 154 b 417 -12 271 76 333 -10 z m 283 286 b 249 292 272 286 261 288 b 379 492 254 326 326 492 b 411 460 392 492 403 483 b 415 432 414 451 415 442 b 283 286 415 369 361 286 z "},"l":{"ha":346,"x_min":0,"x_max":0,"o":"m 169 1 b 467 285 328 1 418 142 l 469 299 b 421 338 469 324 444 338 b 376 311 401 338 383 329 b 296 213 356 260 328 213 l 289 214 b 253 285 263 219 253 247 b 361 693 253 406 353 640 b 364 729 363 706 364 718 b 215 871 364 838 278 871 b 154 853 186 871 161 863 b 149 839 150 847 149 843 b 164 776 149 824 164 808 b 160 747 164 768 163 758 b 0 181 136 646 0 368 b 151 1 0 82 38 10 z "},"m":{"ha":863,"x_min":0,"x_max":0,"o":"m 367 -31 b 481 19 417 -31 458 0 b 488 36 485 24 488 31 b 486 46 488 40 488 43 b 482 81 483 54 482 67 b 622 457 482 192 567 457 l 624 457 b 649 431 642 456 649 446 b 564 232 649 382 575 279 b 556 163 558 207 556 183 b 725 -7 556 43 642 -7 b 874 85 792 -7 858 26 l 875 92 b 853 114 875 103 865 114 b 799 172 813 118 799 140 b 865 464 799 246 865 369 b 728 589 865 529 833 579 l 708 590 b 550 511 640 590 588 557 b 433 597 539 557 508 597 l 429 597 b 272 507 369 597 317 558 b 115 618 250 590 172 618 b 57 600 86 618 63 611 b 53 588 54 596 53 592 b 72 514 53 569 72 553 l 71 493 b -33 118 49 333 -10 261 l -35 106 b 150 -8 -35 32 78 -8 b 207 17 182 -8 206 0 l 207 19 b 353 464 207 103 257 464 l 360 464 b 388 431 381 461 388 446 b 372 376 388 406 372 376 b 260 74 372 376 260 192 b 292 -4 260 40 269 13 b 367 -31 318 -24 343 -31 z "},"n":{"ha":626,"x_min":0,"x_max":0,"o":"m 496 -6 b 649 115 574 -6 649 39 l 649 117 l 636 117 b 569 175 586 117 569 139 b 636 467 569 247 636 372 b 499 592 636 531 604 582 l 478 593 b 275 496 396 593 328 550 b 117 619 257 590 175 619 b 57 601 88 619 64 613 b 53 589 54 597 53 593 b 72 515 53 571 72 554 l 71 494 b -33 121 49 335 -10 264 l -35 108 b 150 -6 -35 35 78 -6 b 208 19 182 -6 207 3 l 208 50 b 239 253 208 132 222 194 b 386 460 257 300 324 460 b 407 454 393 460 400 458 b 425 429 419 446 425 439 b 335 233 425 397 361 347 b 326 165 329 208 326 186 b 496 -6 326 46 413 -6 z "},"o":{"ha":615,"x_min":0,"x_max":0,"o":"m 274 4 b 586 318 449 4 586 158 b 536 475 586 371 571 425 b 351 585 500 528 421 585 b 288 564 329 585 307 579 b 254 581 282 576 267 581 b 239 579 249 581 243 581 b 1 296 111 546 11 432 l 0 275 b 274 4 0 124 118 4 z m 279 261 b 260 263 274 261 267 261 b 181 361 206 272 181 315 b 215 451 181 393 192 426 b 210 414 213 439 210 426 b 232 351 210 390 217 368 b 290 325 249 332 269 325 b 379 375 335 325 379 357 l 379 379 b 325 399 376 385 335 379 b 319 422 321 407 319 415 b 363 464 319 449 340 464 b 410 404 386 464 410 447 b 403 357 410 390 408 375 b 279 261 386 300 333 261 z "},"p":{"ha":642,"x_min":0,"x_max":0,"o":"m 110 -275 b 235 -214 160 -275 203 -249 b 242 -197 240 -210 242 -203 b 236 -182 242 -192 240 -186 b 189 -6 199 -143 189 -65 b 190 39 189 11 189 26 b 311 3 222 17 264 4 l 332 3 b 597 224 485 3 564 104 b 618 369 613 275 618 325 b 450 606 618 507 556 606 b 246 507 393 606 324 575 b 93 601 218 579 146 601 b 35 585 64 601 40 594 b 31 572 32 581 31 576 b 53 494 31 554 53 536 l 51 478 b -44 35 32 307 3 199 b -61 -74 -56 -6 -61 -42 b 96 -274 -61 -196 13 -265 z m 286 224 l 279 224 b 236 279 246 228 236 251 b 261 382 236 314 251 357 b 372 481 276 424 324 481 l 375 481 b 417 424 406 479 417 457 b 286 224 417 349 350 224 z "},"q":{"ha":564,"x_min":0,"x_max":0,"o":"m 351 -278 b 485 -215 403 -278 449 -251 b 493 -199 490 -211 493 -204 b 488 -183 493 -193 490 -187 b 457 -60 465 -156 457 -110 b 461 3 457 -39 458 -18 b 581 422 489 175 561 300 b 583 458 582 435 583 447 b 435 600 583 567 497 600 b 374 582 406 600 381 592 b 368 567 369 576 368 572 b 382 518 368 554 379 542 b 261 608 351 582 308 608 b 3 232 143 608 3 432 b 10 160 3 208 6 185 b 149 -1 31 49 83 -1 b 226 19 174 -1 200 6 b 201 -107 208 -28 201 -71 b 338 -276 201 -210 263 -268 z m 306 269 l 285 271 b 251 335 261 274 251 301 b 324 471 251 393 281 471 l 331 469 b 365 424 350 467 360 447 l 367 424 b 322 271 353 368 338 319 z "},"r":{"ha":450,"x_min":0,"x_max":0,"o":"m 289 1 b 563 283 419 1 511 143 b 565 299 564 289 565 294 b 518 338 565 324 542 338 b 475 311 500 338 482 329 b 390 196 451 250 419 196 b 376 200 386 196 381 197 b 357 243 363 210 357 225 b 393 431 357 293 393 367 b 325 536 393 474 376 511 b 168 593 288 560 218 565 b 78 718 167 651 150 718 l 74 718 b 17 635 40 717 17 679 b 72 531 17 599 33 557 b 19 303 57 454 42 378 b 18 290 18 299 18 294 b 64 253 18 267 40 253 b 106 281 82 253 100 261 b 154 488 126 349 140 418 b 201 461 169 482 197 478 b 115 163 171 378 115 260 b 239 8 115 92 146 33 b 289 1 256 4 274 1 z "},"s":{"ha":492,"x_min":0,"x_max":0,"o":"m 242 1 b 496 207 358 1 478 72 b 497 238 497 217 497 228 b 410 489 497 328 444 408 b 375 586 390 533 375 565 b 379 603 375 593 376 599 b 389 635 386 615 389 626 b 349 667 389 656 371 667 b 249 565 307 667 249 632 b 192 486 243 557 194 486 b 169 488 185 488 176 488 b 0 240 65 488 0 356 l 0 224 b 242 1 8 74 124 1 z m 283 196 b 217 269 250 196 217 222 l 217 272 b 267 331 218 307 246 331 l 274 329 b 283 328 278 328 281 328 b 293 329 286 328 290 328 b 306 344 299 332 303 338 b 308 365 307 351 308 358 b 271 443 308 393 293 422 l 285 465 b 356 285 336 388 356 328 b 283 196 356 225 319 196 z "},"t":{"ha":376,"x_min":0,"x_max":0,"o":"m 181 1 b 479 285 336 1 431 140 b 482 300 482 290 482 296 b 433 338 482 325 458 338 b 388 311 414 338 394 329 b 308 214 368 260 340 214 l 300 214 b 267 289 276 219 267 250 b 297 465 267 349 288 426 b 357 450 324 460 343 454 b 372 447 363 449 368 447 b 389 456 379 447 385 450 b 411 518 399 469 411 490 l 410 529 b 331 569 407 550 375 563 b 372 693 350 626 368 667 b 376 731 375 707 376 719 b 228 871 376 838 290 871 b 165 853 197 871 174 864 b 161 839 163 849 161 843 b 175 778 161 824 175 808 b 171 747 175 768 174 758 b 108 569 163 708 136 644 b 40 560 81 567 57 564 b 1 486 8 544 1 511 l 1 478 b 24 456 1 465 13 456 l 71 463 b 11 185 47 394 11 281 b 168 1 11 88 47 6 z "},"u":{"ha":590,"x_min":0,"x_max":0,"o":"m 429 3 b 696 285 569 3 651 150 l 699 300 b 653 338 699 324 676 338 b 611 308 636 338 618 328 b 542 196 593 250 568 196 b 528 200 538 196 533 197 b 507 239 517 207 510 219 l 507 244 b 571 471 507 290 556 388 l 574 497 b 446 603 574 568 511 603 b 379 590 424 603 400 599 b 365 568 371 586 365 578 l 367 557 b 369 546 368 556 369 551 b 269 201 369 482 293 221 b 251 194 264 197 257 194 b 214 239 235 194 218 211 l 214 246 b 282 518 214 306 282 429 b 204 614 282 565 263 603 b 167 618 192 618 179 618 b 76 594 132 618 99 608 b 65 575 69 592 65 583 l 67 564 b 69 551 69 561 69 557 b -19 183 69 494 -19 319 b 132 10 -19 99 15 28 l 142 10 b 293 113 186 10 238 47 b 419 3 317 47 369 4 z "},"v":{"ha":471,"x_min":0,"x_max":0,"o":"m 133 3 b 428 272 299 3 382 126 l 435 272 b 613 404 518 272 586 326 l 615 418 b 568 457 615 443 592 457 b 526 429 551 457 533 449 b 475 367 517 397 500 367 b 457 369 469 367 464 367 b 489 532 475 415 489 478 b 435 635 489 589 474 635 b 415 631 429 635 422 633 b 318 421 351 603 318 504 b 333 335 318 389 324 358 b 246 196 308 258 278 196 b 231 200 242 196 236 197 b 214 244 219 208 214 225 b 275 471 214 313 267 426 l 278 497 b 149 603 278 568 214 603 b 83 590 126 603 104 599 b 69 569 75 588 69 578 b 72 558 69 565 71 563 b 76 538 75 553 76 546 b -14 172 76 463 -14 288 b -10 132 -14 158 -12 144 b 122 3 10 57 68 4 z "},"w":{"ha":790,"x_min":0,"x_max":0,"o":"m 453 3 b 749 272 618 3 701 126 l 756 272 b 931 403 844 272 903 328 b 935 418 933 408 935 414 b 926 439 935 425 932 433 b 894 456 919 450 907 456 l 883 456 b 846 429 867 456 851 446 b 794 367 838 397 821 367 b 776 369 789 367 783 367 b 808 531 796 415 808 478 b 754 635 808 588 793 635 b 735 631 749 635 742 633 b 638 421 671 603 638 504 b 653 335 638 389 643 358 b 567 196 628 258 597 196 b 551 200 563 196 557 197 b 531 239 540 207 533 219 l 531 244 b 594 471 531 290 579 388 b 597 497 597 481 597 489 b 469 603 597 568 535 603 b 399 588 446 603 421 599 b 385 567 390 583 385 575 l 386 558 b 390 532 389 551 390 543 b 292 201 390 438 306 213 b 274 194 286 197 281 194 b 238 239 257 194 242 211 l 238 246 b 306 518 238 306 306 429 b 228 614 306 565 286 603 b 190 618 215 618 203 618 b 100 594 156 618 121 608 b 89 575 93 592 89 583 l 90 564 b 93 553 92 561 93 557 b 3 185 93 496 3 321 b 156 11 3 99 39 28 l 167 11 b 317 113 211 11 263 47 b 442 3 340 47 393 4 z "},"x":{"ha":628,"x_min":0,"x_max":0,"o":"m 99 -17 b 271 94 164 -17 218 29 b 461 3 311 35 368 6 l 468 3 b 724 288 628 3 688 140 l 725 299 b 678 338 725 324 701 338 b 633 308 658 338 639 328 b 518 128 606 217 564 129 b 421 306 475 128 446 211 b 615 513 472 383 536 494 b 633 536 626 515 633 525 b 629 549 633 540 632 544 b 544 607 604 590 575 607 b 374 486 489 607 426 549 b 350 546 367 511 358 532 b 233 610 324 590 281 610 b 64 513 167 610 94 569 b 18 314 32 453 28 378 l 17 306 b 64 265 17 281 40 265 b 111 308 85 265 107 279 b 135 461 119 363 131 451 b 150 483 139 475 144 483 b 158 474 153 483 156 481 b 204 256 176 422 181 342 b 43 106 154 186 89 106 l 33 106 b 10 85 21 106 11 97 l 10 72 b 99 -17 10 33 24 -17 z "},"y":{"ha":586,"x_min":0,"x_max":0,"o":"m 226 -349 b 518 26 360 -349 458 -169 b 582 424 560 171 582 324 b 568 519 582 468 578 503 b 433 596 540 571 483 596 b 385 588 415 596 400 593 b 369 565 375 583 369 575 l 371 557 b 378 500 376 544 378 525 b 364 358 378 463 374 413 b 265 204 357 328 315 204 l 257 206 b 228 239 243 210 231 214 l 228 246 b 296 518 228 304 296 429 b 218 614 296 564 276 601 b 181 618 206 617 193 618 b 90 594 146 618 113 608 b 78 574 82 590 78 582 l 81 564 b 83 551 82 561 83 557 b -7 183 83 493 -7 319 b 146 11 -7 99 29 28 l 156 10 b 310 100 199 10 268 47 b 190 -87 301 40 260 -87 l 181 -86 b 92 -39 150 -81 107 -56 b 74 -32 88 -35 81 -32 b 54 -44 67 -32 58 -36 b 26 -149 35 -79 26 -114 b 204 -347 26 -249 103 -333 z "},"z":{"ha":488,"x_min":0,"x_max":0,"o":"m 63 6 b 204 28 119 22 165 28 b 369 8 279 28 328 8 b 415 18 386 8 400 11 b 594 283 492 58 554 169 b 597 300 597 289 597 294 b 553 338 597 324 575 338 b 511 311 536 338 518 329 b 440 222 494 263 471 222 l 431 224 b 372 238 408 231 393 238 b 313 224 357 238 339 233 b 479 578 365 346 422 460 b 483 592 482 583 483 588 b 431 621 483 610 458 621 b 365 593 406 621 379 613 b 132 713 286 604 169 617 b 111 728 129 722 119 728 b 94 721 104 728 99 726 b 0 540 56 686 0 610 b 36 456 0 510 10 481 b 240 408 67 428 158 410 l 18 58 b 15 49 17 56 15 51 b 58 6 15 29 40 6 z "},"{":{"ha":525,"x_min":0,"x_max":0,"o":"m 217 -94 b 236 -83 224 -94 231 -89 b 239 -71 238 -79 239 -75 b 235 -58 239 -67 238 -62 b 196 86 206 -17 196 33 b 231 363 196 174 221 272 l 232 390 b 182 536 232 440 219 511 b 319 693 249 564 300 649 b 522 1071 375 824 403 971 b 531 1089 528 1075 531 1082 b 529 1099 531 1093 531 1096 b 507 1111 525 1107 517 1111 l 503 1111 b 165 651 313 1074 229 833 b 11 540 144 594 51 556 b 4 533 7 539 4 536 b 11 525 4 531 6 528 b 101 419 40 510 101 472 l 100 407 b 65 126 83 318 65 215 b 214 -94 65 10 97 -85 z "},"|":{"ha":471,"x_min":0,"x_max":0,"o":"m 71 -65 b 118 -58 94 -65 117 -64 l 475 1125 l 476 1132 b 472 1147 476 1136 475 1142 b 454 1169 468 1156 464 1168 b 360 1179 442 1171 390 1179 b 338 1174 347 1179 339 1178 l 1 -19 l 1 -24 b 25 -65 1 -37 13 -65 z "},"}":{"ha":525,"x_min":0,"x_max":0,"o":"m 25 -94 b 363 365 215 -57 299 183 b 517 476 383 422 476 461 b 524 483 521 478 524 481 b 518 492 524 486 522 489 b 428 596 488 507 428 544 l 429 610 b 464 888 446 699 464 800 b 314 1111 464 1006 431 1101 l 311 1111 b 293 1100 304 1111 297 1106 b 289 1088 290 1096 289 1092 b 293 1075 289 1083 290 1079 b 333 929 324 1033 333 983 b 297 654 333 842 307 744 l 296 626 b 347 481 296 576 308 506 b 208 324 279 453 228 368 b 6 -54 153 193 125 46 b -3 -71 0 -58 -3 -65 b 0 -82 -3 -75 -1 -79 b 21 -94 4 -90 11 -94 z "},"~":{"ha":488,"x_min":0,"x_max":0,"o":"m 44 425 b 61 431 51 425 57 426 b 139 483 83 451 113 475 l 150 485 b 360 435 196 485 279 435 l 378 436 b 486 490 408 439 456 451 b 496 518 493 499 496 508 b 456 589 496 543 475 571 b 442 594 453 592 447 594 l 438 594 b 421 585 431 594 425 590 b 361 549 410 569 388 554 l 351 547 b 146 614 300 547 226 611 l 140 614 b -1 500 72 614 -1 563 b 29 432 -1 478 8 454 b 44 425 33 428 39 425 z "},"¡":{"ha":514,"x_min":0,"x_max":0,"o":"m 201 10 b 288 50 235 10 268 21 b 442 785 361 157 442 558 b 422 922 442 847 436 896 b 357 964 413 942 383 956 l 346 965 b 319 939 336 965 324 960 b 94 246 297 832 218 489 b 10 118 65 188 46 142 b 0 99 3 114 0 106 b 10 79 0 90 3 83 b 190 10 53 53 126 14 z m 403 997 b 515 1110 464 997 515 1049 b 403 1224 515 1172 464 1224 b 290 1110 340 1224 290 1172 b 403 997 290 1049 340 997 z "},"¢":{"ha":710,"x_min":0,"x_max":0,"o":"m 183 10 b 240 38 208 10 235 19 l 269 131 b 371 119 303 122 338 119 l 390 119 b 714 378 557 126 714 232 b 636 558 714 433 690 494 b 619 565 632 564 625 565 b 601 554 613 565 604 563 b 410 439 571 475 490 439 b 208 582 315 439 219 490 l 207 603 b 386 857 207 718 315 857 b 410 851 394 857 403 856 b 435 817 426 842 435 829 b 289 700 435 767 332 700 l 286 700 b 474 557 292 625 396 557 b 503 561 483 557 493 558 b 644 786 590 586 644 688 b 539 972 644 863 613 936 l 572 1078 b 515 1107 572 1096 544 1107 b 456 1075 490 1107 464 1099 l 429 993 b 397 990 419 993 408 992 b 6 561 206 971 40 768 b -3 467 0 528 -3 496 b 163 169 -3 318 67 222 l 128 61 l 125 47 b 183 10 125 21 154 10 z "},"£":{"ha":768,"x_min":0,"x_max":0,"o":"m 639 -89 b 769 79 665 -89 769 4 b 763 110 769 90 768 100 b 607 172 738 160 682 172 b 408 161 550 172 482 165 b 372 250 382 178 372 210 b 406 415 372 297 386 356 l 535 410 b 608 485 575 410 608 458 b 590 504 608 496 603 504 b 438 507 540 504 489 506 l 467 583 b 590 807 531 750 572 807 b 601 783 597 807 601 797 b 524 614 601 744 575 667 b 517 597 519 610 517 603 b 528 578 517 590 521 582 b 615 549 561 557 590 549 b 721 706 688 549 721 625 b 639 893 721 782 693 864 b 551 918 607 910 578 918 b 392 794 482 918 429 864 b 279 515 365 747 319 631 b 214 518 257 517 235 518 b 144 439 193 511 144 465 b 174 422 144 429 153 422 l 182 422 b 247 424 201 424 225 424 b 201 235 221 339 201 265 b 308 154 203 183 257 161 b 14 75 186 140 71 115 b 1 46 7 69 1 57 b 24 18 1 32 8 18 l 26 18 b 243 26 68 21 151 26 b 635 -78 415 26 621 8 l 633 -83 b 639 -89 633 -87 636 -89 z "},"¤":{"ha":496,"x_min":0,"x_max":0,"o":"m 44 126 b 61 133 51 126 57 129 l 100 176 b 188 153 125 161 154 153 b 296 182 225 153 263 164 l 336 139 b 353 131 340 133 346 131 b 371 140 360 132 367 135 l 396 171 b 400 186 399 175 400 181 b 392 204 400 193 397 200 l 361 228 b 457 396 407 272 443 331 b 464 454 461 417 464 436 b 447 540 464 486 458 515 l 489 572 b 497 590 494 578 497 583 b 493 606 497 596 496 601 l 468 636 b 451 646 464 642 458 646 b 433 638 443 646 438 643 l 400 603 b 293 640 372 626 335 640 b 163 599 247 640 203 625 l 119 646 b 101 654 115 651 108 654 b 85 644 94 654 89 650 l 60 614 b 54 600 57 610 54 606 b 64 581 54 593 58 586 l 104 550 b 22 396 65 508 35 454 b 15 339 18 376 15 357 b 46 231 15 297 26 261 l 6 199 b -3 181 0 194 -3 188 b 1 167 -3 176 -1 171 l 26 135 b 44 126 31 129 36 126 z m 201 218 b 139 315 160 218 139 254 b 149 396 139 339 143 365 b 279 574 172 506 224 574 b 342 481 321 574 342 540 b 332 400 342 457 339 431 b 201 218 308 290 257 218 z "},"¥":{"ha":710,"x_min":0,"x_max":0,"o":"m 217 -56 b 306 -10 243 -56 274 -42 b 276 38 286 -7 276 10 l 278 58 b 388 53 317 56 356 54 b 461 128 428 53 461 101 b 443 147 461 139 456 147 b 300 150 397 147 349 149 l 310 175 l 410 171 b 485 246 450 171 485 218 b 465 265 485 257 479 265 l 433 265 l 354 267 l 361 288 b 714 814 547 311 714 696 l 713 826 b 564 932 704 900 613 925 l 560 932 b 538 910 547 932 538 924 b 303 390 535 801 419 414 l 290 389 b 253 443 264 389 253 411 b 343 747 253 536 332 715 b 369 868 361 797 369 836 b 299 972 369 922 343 954 b 239 985 278 981 258 985 b 121 917 192 985 150 960 b 117 904 118 913 117 908 b 126 885 117 897 121 890 b 156 801 147 869 156 839 b 99 496 156 706 104 560 l 97 478 b 214 306 97 413 131 340 b 204 274 210 290 206 275 l 89 279 b 19 201 68 272 19 226 b 50 183 19 190 28 183 l 93 185 b 172 182 119 185 146 183 b 165 157 169 174 167 165 l 67 161 b -3 82 46 154 -3 108 b 26 65 -3 72 6 65 l 81 67 l 146 65 l 144 43 b 217 -56 144 -18 175 -56 z "},"¦":{"ha":0,"x_min":0,"x_max":0,"o":""},"§":{"ha":844,"x_min":0,"x_max":0,"o":"m 296 -97 b 422 -82 340 -97 385 -92 b 586 99 493 -62 586 22 b 579 132 586 110 583 121 b 492 222 565 164 532 193 l 493 222 b 658 403 564 242 658 328 b 651 436 658 414 656 425 b 300 722 607 538 354 624 b 290 756 294 733 290 744 b 644 943 290 853 515 943 b 681 940 657 943 669 942 b 700 925 694 938 700 932 b 576 851 700 900 622 851 b 546 881 558 851 546 860 l 546 888 b 529 892 540 890 535 892 b 424 726 483 892 424 801 b 535 632 424 675 453 632 l 546 632 b 849 932 658 638 849 826 l 849 935 b 615 1101 846 986 732 1086 l 565 1104 b 181 928 419 1104 242 1047 b 154 807 164 897 154 854 b 172 700 154 772 160 735 b 108 624 146 678 124 653 b 83 503 92 594 83 550 b 146 317 83 436 101 364 b 406 79 256 200 406 125 b 400 65 406 75 404 69 b 349 49 389 54 371 49 b 154 121 283 49 188 93 b 115 179 129 142 115 161 b 138 214 115 192 122 203 b 146 228 143 218 146 224 b 126 238 146 233 140 238 l 115 236 b -1 60 74 231 -1 139 b 7 19 -1 46 1 32 b 296 -97 43 -61 174 -97 z m 335 332 l 318 332 b 228 417 278 360 244 389 b 219 449 222 428 219 439 b 294 551 219 486 250 521 b 478 385 386 474 478 419 b 472 371 478 379 476 375 b 335 332 446 343 389 332 z "},"¨":{"ha":363,"x_min":0,"x_max":0,"o":"m 86 924 b 171 1010 133 924 171 963 b 86 1096 171 1057 133 1096 b 0 1010 39 1096 0 1057 b 86 924 0 963 39 924 z m 279 924 b 365 1010 326 924 365 963 b 279 1096 365 1057 326 1096 b 193 1010 232 1096 193 1057 b 279 924 193 963 232 924 z "},"©":{"ha":1110,"x_min":0,"x_max":0,"o":"m 561 335 b 775 504 671 339 775 408 b 724 622 775 540 760 581 b 713 628 721 626 717 628 b 700 621 707 628 703 625 b 574 544 681 568 626 544 b 442 638 511 544 449 578 l 440 650 b 560 819 440 726 511 819 b 575 815 565 819 571 818 b 590 793 586 810 590 801 b 496 717 590 760 525 717 l 493 717 b 617 622 497 668 565 622 b 636 625 624 622 631 624 b 728 774 693 642 728 708 b 592 908 728 842 689 908 l 567 907 b 310 625 440 893 332 761 b 304 563 306 603 304 582 b 549 335 304 401 428 335 z m 474 50 b 1107 599 776 50 1060 296 b 1114 683 1111 628 1114 656 b 643 1147 1114 946 917 1147 b 10 599 340 1147 57 901 b 3 515 6 571 3 543 b 474 50 3 251 199 50 z m 486 133 b 208 504 321 133 208 292 b 215 599 208 535 210 567 b 631 1065 256 856 442 1065 b 910 696 794 1065 910 906 b 901 599 910 664 907 632 b 486 133 863 342 676 133 z "},"ª":{"ha":571,"x_min":0,"x_max":0,"o":"m 357 625 b 571 850 469 625 535 742 l 572 861 b 536 892 572 881 554 892 b 503 869 522 892 507 885 b 447 779 488 821 468 779 b 436 782 443 779 439 781 b 421 814 428 788 421 799 l 419 819 b 458 949 419 846 442 896 b 465 993 463 964 465 979 b 353 1100 465 1064 408 1100 b 319 1094 342 1100 331 1099 b 308 1083 315 1093 310 1089 b 307 1076 307 1081 307 1078 b 308 1068 307 1074 307 1071 b 311 1050 311 1064 311 1057 l 310 1033 b 218 1086 286 1069 253 1086 b 0 811 118 1086 0 954 b 7 751 0 792 1 771 b 115 629 22 688 64 643 b 133 626 121 628 128 626 b 257 693 172 626 218 653 b 349 625 278 653 314 626 z m 226 839 b 197 889 207 842 197 864 b 250 979 197 931 218 979 l 257 979 b 285 944 271 976 281 964 b 253 839 274 911 261 875 z "},"«":{"ha":493,"x_min":0,"x_max":0,"o":"m 194 353 b 211 363 201 353 207 356 l 249 415 b 253 429 251 419 253 425 b 247 446 253 436 251 442 l 144 547 l 276 635 b 286 654 282 639 286 646 l 279 704 b 265 722 278 713 274 719 b 256 724 263 724 260 724 b 243 719 251 724 247 722 l 11 561 b 1 544 6 557 1 551 l 1 540 b 8 525 1 535 4 529 l 176 358 b 190 353 179 356 185 353 z m 403 353 b 419 363 410 353 415 356 l 457 415 b 461 429 460 419 461 425 b 456 446 461 436 460 442 l 353 547 l 485 635 b 494 654 490 639 494 646 l 488 704 b 474 722 486 713 482 719 b 464 724 471 724 468 724 b 451 719 460 724 456 722 l 219 561 b 210 544 214 557 210 551 l 210 540 b 217 525 210 535 213 529 l 385 358 b 399 353 388 356 393 353 z "},"¬":{"ha":0,"x_min":0,"x_max":0,"o":""},"®":{"ha":1113,"x_min":0,"x_max":0,"o":"m 710 333 b 838 417 783 333 831 385 l 838 419 b 835 428 838 424 836 426 b 826 431 833 429 831 431 l 801 428 b 644 585 725 428 667 521 b 799 728 738 588 799 656 b 660 874 799 786 758 846 b 664 882 663 876 664 879 b 656 892 664 886 661 890 b 622 899 644 896 632 899 b 586 886 608 899 596 894 b 519 889 565 888 542 889 l 504 889 b 318 750 392 889 318 817 b 371 667 318 718 335 688 b 419 653 386 657 403 653 b 496 719 456 653 488 675 l 496 724 b 489 732 496 728 494 732 l 483 732 b 461 756 467 732 461 743 l 463 769 b 526 810 471 800 497 810 l 544 808 b 386 588 508 718 468 588 l 379 588 b 331 650 363 590 331 601 b 333 678 331 658 332 668 l 333 679 b 322 689 333 685 328 689 l 318 689 b 225 557 258 672 225 615 b 386 410 225 486 276 413 l 388 410 b 564 597 489 410 540 513 b 586 590 571 594 579 592 l 583 508 b 664 340 583 436 594 360 b 710 333 681 336 696 333 z m 474 50 b 1107 599 776 50 1060 296 b 1114 683 1111 628 1114 656 b 643 1147 1114 946 917 1147 b 10 599 340 1147 57 901 b 3 514 6 569 3 542 b 474 50 3 251 200 50 z m 486 133 b 207 501 322 133 207 292 b 215 599 207 533 210 565 b 631 1065 256 856 440 1065 b 908 693 796 1065 908 906 b 901 599 908 663 907 631 b 486 133 861 342 676 133 z m 582 640 l 576 642 l 578 647 z m 621 640 b 585 676 613 657 603 671 b 619 797 596 718 607 761 b 696 711 672 778 696 743 b 621 640 696 676 669 646 z "},"¯":{"ha":724,"x_min":0,"x_max":0,"o":"m 674 908 b 701 924 686 908 697 915 l 725 975 b 726 983 726 978 726 981 b 697 1007 726 996 714 1007 l 51 1007 b 24 992 39 1007 28 1000 l 0 940 l -3 932 b 28 908 -3 919 11 908 z "},"°":{"ha":256,"x_min":0,"x_max":0,"o":"m 128 857 b 257 985 200 857 257 914 b 128 1114 257 1057 200 1114 b 0 985 57 1114 0 1057 b 128 857 0 914 57 857 z m 128 938 b 81 985 103 938 81 960 b 128 1032 81 1011 103 1032 b 175 985 154 1032 175 1011 b 128 938 175 960 154 938 z "},"±":{"ha":0,"x_min":0,"x_max":0,"o":""},"²":{"ha":531,"x_min":0,"x_max":0,"o":"m 340 549 b 476 651 450 549 476 600 b 392 760 476 699 447 750 l 389 760 b 374 747 382 760 375 756 b 258 668 358 682 307 668 l 224 669 b 153 653 178 669 153 653 l 244 715 b 529 1050 244 715 529 867 b 354 1210 529 1176 435 1210 b 93 1014 178 1210 93 1099 b 222 890 93 947 143 890 b 336 989 290 890 336 939 b 299 1075 336 1022 313 1075 b 260 1036 289 1075 278 1036 b 240 1064 250 1036 240 1050 b 300 1111 240 1088 267 1111 b 382 1029 332 1111 382 1086 b 371 978 382 1015 378 997 b 117 744 335 874 153 764 b 6 656 79 726 32 688 b 1 642 3 651 1 647 b 60 560 1 614 42 576 b 69 556 63 557 65 556 l 78 558 b 147 585 114 578 132 585 b 340 549 175 585 243 549 z "},"³":{"ha":536,"x_min":0,"x_max":0,"o":"m 213 575 l 247 576 b 476 782 413 588 476 690 b 393 921 476 847 444 907 b 539 1088 475 936 539 1014 b 354 1232 539 1154 488 1218 l 326 1233 b 113 1085 231 1233 113 1186 l 114 1065 b 238 978 122 1010 182 978 b 329 1056 286 978 329 1003 b 324 1093 329 1067 328 1079 b 311 1108 319 1103 317 1108 b 297 1099 308 1108 303 1104 b 272 1088 290 1092 282 1088 b 254 1093 267 1088 260 1089 b 246 1108 249 1097 246 1103 b 304 1150 246 1126 269 1150 l 319 1147 b 400 1065 358 1140 400 1107 l 400 1063 b 228 925 393 922 231 950 l 228 924 b 247 897 228 914 240 903 b 260 892 253 894 254 893 b 367 813 338 885 367 850 b 263 708 367 764 317 710 b 157 775 181 711 157 742 b 181 843 157 800 171 826 b 183 853 182 846 183 849 b 168 869 183 860 178 867 l 151 869 b -1 718 63 869 -1 793 b 213 575 -1 646 58 575 z "},"´":{"ha":183,"x_min":0,"x_max":0,"o":"m 57 907 b 74 914 64 907 69 910 b 179 1035 110 956 149 1008 b 188 1053 185 1039 188 1046 b 178 1071 186 1060 183 1067 b 117 1097 157 1086 138 1097 b 67 1064 99 1097 82 1088 l 4 968 b 0 954 1 964 0 958 b 8 936 0 947 3 942 l 43 911 b 57 907 47 908 53 907 z "},"µ":{"ha":0,"x_min":0,"x_max":0,"o":""},"¶":{"ha":0,"x_min":0,"x_max":0,"o":""},"·":{"ha":178,"x_min":0,"x_max":0,"o":"m 89 444 b 179 533 139 444 179 483 b 89 622 179 583 139 622 b 0 533 40 622 0 583 b 89 444 0 483 40 444 z "},"∙":{"ha":178,"x_min":0,"x_max":0,"o":"m 89 444 b 179 533 139 444 179 483 b 89 622 179 583 139 622 b 0 533 40 622 0 583 b 89 444 0 483 40 444 z "},"¸":{"ha":203,"x_min":0,"x_max":0,"o":"m 92 -183 b 186 -136 126 -183 163 -167 b 204 -75 197 -122 204 -100 b 96 38 204 -26 175 31 l 118 108 l 72 117 l 22 24 b 113 -54 89 0 113 -29 b 58 -99 113 -79 86 -99 b 15 -82 43 -99 28 -93 b 6 -76 11 -78 8 -76 b 1 -87 3 -76 1 -81 b 92 -183 4 -154 46 -183 z "},"¹":{"ha":335,"x_min":0,"x_max":0,"o":"m 178 596 l 197 597 b 211 614 206 599 211 606 l 210 621 b 203 658 204 631 203 644 b 425 1182 203 793 389 1104 b 326 1243 425 1182 332 1225 b 165 1190 326 1243 244 1190 b 104 1204 144 1190 124 1194 b 88 1132 93 1179 88 1154 b 161 1047 88 1083 114 1047 b 213 1058 176 1047 193 1050 b 89 706 171 1001 89 824 b 151 599 89 651 106 610 b 178 596 158 597 168 596 z "},"º":{"ha":467,"x_min":0,"x_max":0,"o":"m 218 613 b 468 863 358 613 468 735 b 428 989 468 906 456 949 b 281 1076 399 1031 336 1076 b 229 1060 263 1076 244 1072 b 203 1074 224 1069 213 1074 b 190 1072 197 1074 193 1074 b 0 846 88 1046 8 954 l 0 829 b 218 613 0 708 93 613 z m 222 817 b 207 819 217 817 213 818 b 143 897 164 826 143 861 b 171 969 143 922 153 950 b 167 940 168 960 167 950 b 185 890 167 921 172 903 b 232 868 197 875 214 868 b 303 910 267 868 303 894 l 303 913 b 258 928 300 917 267 913 b 254 947 256 935 254 942 b 289 981 254 968 271 981 b 328 932 308 981 328 967 b 321 894 328 921 325 908 b 222 817 307 849 267 817 z "},"»":{"ha":492,"x_min":0,"x_max":0,"o":"m 239 357 b 251 361 243 357 247 358 l 483 519 b 493 536 489 524 493 529 l 493 540 b 486 556 493 546 490 551 l 318 722 b 304 728 315 725 310 728 l 300 728 b 283 719 293 728 288 725 l 246 665 b 242 651 243 661 242 656 b 247 635 242 646 243 639 l 350 533 l 218 446 b 208 428 213 442 208 436 l 215 376 b 229 358 217 368 221 361 b 239 357 232 357 235 357 z m 31 357 b 43 361 35 357 39 358 l 275 519 b 285 536 281 524 285 529 l 285 540 b 278 556 285 546 282 551 l 110 722 b 96 728 107 725 101 728 l 92 728 b 75 719 85 728 79 725 l 38 665 b 33 651 35 661 33 656 b 39 635 33 646 35 639 l 142 533 l 10 446 b 0 428 4 442 0 436 l 7 376 b 21 358 8 368 13 361 b 31 357 24 357 26 357 z "},"¼":{"ha":806,"x_min":0,"x_max":0,"o":"m 72 -81 b 89 -72 79 -81 85 -76 l 736 835 b 739 847 738 838 739 842 l 739 853 b 726 869 736 860 733 865 l 667 914 b 650 919 661 918 656 919 b 632 911 642 919 636 917 l 3 -11 b -1 -24 0 -15 -1 -19 l 0 -31 b 14 -47 3 -37 7 -43 l 57 -75 b 72 -81 61 -79 67 -81 z m 643 -79 b 658 -64 651 -79 658 -72 l 658 -44 b 676 58 658 -18 661 22 l 703 57 b 806 151 765 57 806 89 l 803 179 b 793 190 801 185 799 189 l 786 192 b 778 189 783 192 781 190 b 725 174 768 181 751 174 l 717 174 b 860 472 717 174 817 408 b 863 482 861 475 863 478 b 853 496 863 488 860 493 b 778 538 829 504 794 521 b 767 542 775 540 771 542 b 758 540 764 542 761 542 b 317 139 668 485 360 203 b 315 131 315 136 315 133 b 317 121 315 126 315 124 l 338 86 b 357 75 342 78 347 75 b 386 79 364 75 372 76 b 471 89 408 83 438 89 b 556 76 497 89 526 85 b 543 4 547 49 543 25 b 636 -79 543 -50 571 -79 z m 596 186 b 565 192 585 190 575 192 b 531 186 546 192 531 186 l 668 363 z m 183 368 b 197 385 192 369 197 376 l 196 392 b 189 428 190 401 189 414 b 401 926 189 556 367 853 b 307 985 401 926 313 968 b 154 933 307 985 229 933 b 96 947 133 933 114 938 b 81 878 85 924 81 899 b 150 797 81 832 104 797 b 199 808 164 797 181 800 b 81 472 160 754 81 585 b 140 371 81 421 96 382 b 171 368 149 369 160 368 z "},"½":{"ha":915,"x_min":0,"x_max":0,"o":"m 71 -74 b 88 -65 78 -74 85 -71 l 735 840 b 739 851 738 844 739 847 l 738 858 b 726 876 736 865 732 871 l 665 919 b 649 926 660 924 654 926 b 632 918 642 926 636 924 l 1 -6 b -1 -17 0 -8 -1 -12 l 0 -24 b 13 -42 1 -32 6 -37 l 56 -69 b 71 -74 61 -72 67 -74 z m 739 -79 b 818 -65 775 -79 800 -74 b 868 17 851 -50 868 -18 b 788 121 868 63 839 111 l 785 121 b 768 108 778 121 771 115 b 663 33 756 49 707 33 l 631 35 b 560 19 583 35 560 19 l 647 79 b 918 397 647 79 918 222 l 918 399 b 749 550 917 521 826 550 l 715 549 b 501 365 571 533 501 443 b 593 250 501 313 533 265 b 626 246 604 247 615 246 b 682 258 646 246 665 250 b 733 340 719 278 733 310 b 711 410 733 365 725 390 b 697 422 706 418 701 422 b 686 408 693 422 690 417 b 661 386 681 396 671 386 b 646 397 656 386 650 389 b 642 411 643 401 642 407 b 700 457 642 435 668 457 b 725 451 708 457 717 456 b 776 379 749 440 776 422 b 767 329 776 365 774 349 b 524 108 733 231 558 126 b 418 22 489 89 443 53 b 414 8 415 18 414 14 b 469 -69 414 -17 451 -53 b 478 -72 472 -72 475 -72 b 488 -71 482 -72 485 -72 b 554 -46 524 -53 540 -46 b 689 -76 579 -46 596 -65 b 739 -79 707 -79 724 -79 z m 193 368 b 207 385 201 369 207 376 l 206 392 b 199 428 200 401 199 414 b 411 926 199 556 376 853 b 317 985 411 926 322 968 b 163 933 317 985 239 933 b 104 947 143 933 122 938 b 89 879 94 924 89 900 b 160 797 89 832 114 797 b 208 808 174 797 190 800 b 90 472 168 756 90 585 b 150 371 90 421 106 382 b 181 368 158 369 169 368 z "},"¾":{"ha":978,"x_min":0,"x_max":0,"o":"m 201 424 l 238 425 b 456 621 394 435 456 533 b 375 754 456 683 424 740 b 515 913 454 768 515 842 b 339 1050 515 975 467 1036 l 311 1051 b 108 911 221 1051 108 1007 l 110 892 b 228 808 118 838 175 808 b 315 881 274 808 315 832 b 310 917 315 892 314 904 b 299 932 306 926 303 932 b 285 922 296 932 290 928 b 261 913 279 917 271 913 b 243 918 256 913 249 914 b 236 932 238 921 236 926 b 292 971 236 949 258 971 l 306 969 b 382 890 343 963 382 931 l 382 888 b 218 757 376 754 221 781 l 218 756 b 238 731 218 746 229 736 b 249 726 242 728 244 726 b 351 650 324 719 351 686 b 251 551 351 603 303 553 b 151 614 174 553 151 582 b 174 679 151 638 164 663 b 175 686 175 682 175 685 b 161 703 175 694 169 703 l 144 704 b -1 560 60 704 -1 631 b 201 424 -1 492 56 424 z m 818 -8 b 833 8 828 -8 833 -1 l 833 24 b 851 131 833 50 836 92 b 879 129 861 129 871 129 b 981 219 942 129 981 161 b 978 250 981 229 979 239 b 968 263 978 256 974 260 l 964 263 b 953 260 960 263 956 261 b 904 246 943 253 928 246 l 893 246 b 1035 543 893 246 992 481 b 1038 553 1038 546 1038 549 b 1028 567 1038 558 1035 564 b 954 608 1004 575 969 592 b 942 614 951 611 946 614 l 933 611 b 493 210 844 556 536 275 b 490 200 490 207 490 204 b 492 193 490 199 490 196 l 514 157 b 533 146 518 149 524 146 b 563 150 540 146 549 147 b 646 160 583 154 614 160 b 731 147 674 160 703 156 b 718 75 722 119 718 96 b 811 -8 718 21 746 -8 z m 772 257 b 740 263 761 261 750 263 b 707 257 721 263 707 257 l 843 433 z m 253 -32 b 269 -24 260 -32 265 -29 l 915 882 b 919 893 918 886 919 889 l 918 900 b 907 918 917 907 913 914 l 846 963 b 829 968 840 967 835 968 b 813 960 822 968 817 965 l 183 38 b 179 25 181 33 179 29 l 181 18 b 193 0 182 11 188 4 l 236 -26 b 253 -32 242 -31 247 -32 z "},"¿":{"ha":650,"x_min":0,"x_max":0,"o":"m 263 54 b 649 340 431 54 624 167 b 651 378 650 354 651 367 b 488 560 651 497 565 560 b 364 463 431 560 379 528 l 364 457 b 381 435 364 447 371 438 b 407 399 399 431 407 415 b 329 326 407 367 376 326 b 311 328 324 326 317 326 b 257 396 281 333 257 357 b 322 526 257 429 275 474 b 564 935 397 608 564 797 b 539 1014 564 964 557 992 b 492 1028 532 1024 513 1028 b 413 1008 456 1028 413 1017 l 414 1007 b 432 946 418 1001 432 982 b 278 697 432 896 404 814 b 1 276 124 557 1 408 b 67 126 1 224 21 172 b 263 54 115 78 186 54 z m 490 1060 b 581 1150 540 1060 581 1100 b 490 1239 581 1199 540 1239 b 401 1150 442 1239 401 1199 b 490 1060 401 1100 442 1060 z "},"À":{"ha":1071,"x_min":0,"x_max":0,"o":"m 924 -61 b 1086 -6 981 -61 1044 -37 b 1096 14 1093 0 1096 7 b 1086 33 1096 21 1093 29 b 1022 201 1051 58 1022 97 b 1174 901 1022 322 1061 528 l 1175 910 b 1154 932 1175 921 1167 931 l 1119 933 b 751 739 975 933 857 847 b 492 975 686 847 610 943 b 438 982 474 979 456 982 b 235 767 319 982 235 876 b 342 585 235 700 267 631 b 475 544 383 560 429 544 b 589 588 515 544 556 557 b 596 604 593 592 596 599 b 583 626 596 613 592 622 b 539 692 558 640 539 667 b 551 719 539 701 543 711 b 572 728 558 725 565 728 b 672 651 600 728 635 696 b 381 342 565 526 472 394 b 311 321 354 326 332 321 b 211 450 249 321 211 381 b 218 503 211 468 214 485 l 219 508 b 194 532 219 522 208 532 l 190 532 b 0 271 61 494 0 385 b 314 -46 0 115 111 -46 b 422 -32 347 -46 383 -42 b 794 474 622 18 703 269 l 844 396 b 785 108 811 296 785 192 b 825 -25 785 51 796 4 b 924 -61 850 -50 885 -61 z m 886 513 l 844 578 b 988 733 885 650 929 707 b 886 513 968 697 926 613 z m 1033 964 l 1043 967 l 1082 986 b 1094 1007 1089 990 1094 999 l 1093 1015 l 1049 1121 b 993 1164 1035 1153 1015 1164 b 928 1126 968 1164 931 1154 b 932 1114 928 1122 929 1118 b 1013 976 957 1082 986 1024 b 1033 964 1018 968 1025 964 z "},"Á":{"ha":1071,"x_min":0,"x_max":0,"o":"m 924 -61 b 1086 -6 981 -61 1044 -37 b 1096 14 1093 0 1096 7 b 1086 33 1096 21 1093 29 b 1022 201 1051 58 1022 97 b 1174 901 1022 322 1061 528 l 1175 910 b 1154 932 1175 921 1167 931 l 1119 933 b 751 739 975 933 857 847 b 492 975 686 847 610 943 b 438 982 474 979 456 982 b 235 767 319 982 235 876 b 342 585 235 700 267 631 b 475 544 383 560 429 544 b 589 588 515 544 556 557 b 596 604 593 592 596 599 b 583 626 596 613 592 622 b 539 692 558 640 539 667 b 551 719 539 701 543 711 b 572 728 558 725 565 728 b 672 651 600 728 635 696 b 381 342 565 526 472 394 b 311 321 354 326 332 321 b 211 450 249 321 211 381 b 218 503 211 468 214 485 l 219 508 b 194 532 219 522 208 532 l 190 532 b 0 271 61 494 0 385 b 314 -46 0 115 111 -46 b 422 -32 347 -46 383 -42 b 794 474 622 18 703 269 l 844 396 b 785 108 811 296 785 192 b 825 -25 785 51 796 4 b 924 -61 850 -50 885 -61 z m 886 513 l 844 578 b 988 733 885 650 929 707 b 886 513 968 697 926 613 z m 1111 992 b 1128 999 1118 992 1124 994 b 1233 1119 1164 1040 1203 1093 b 1242 1138 1239 1124 1242 1131 b 1171 1182 1235 1169 1194 1182 b 1121 1149 1153 1182 1136 1172 l 1058 1053 b 1054 1039 1056 1049 1054 1043 b 1063 1021 1054 1032 1057 1026 l 1097 996 b 1111 992 1101 993 1107 992 z "},"Â":{"ha":1071,"x_min":0,"x_max":0,"o":"m 924 -61 b 1086 -6 981 -61 1044 -37 b 1096 14 1093 0 1096 7 b 1086 33 1096 21 1093 29 b 1022 201 1051 58 1022 97 b 1174 901 1022 322 1061 528 l 1175 910 b 1154 932 1175 921 1167 931 l 1119 933 b 751 739 975 933 857 847 b 492 975 686 847 610 943 b 438 982 474 979 456 982 b 235 767 319 982 235 876 b 342 585 235 700 267 631 b 475 544 383 560 429 544 b 589 588 515 544 556 557 b 596 604 593 592 596 599 b 583 626 596 613 592 622 b 539 692 558 640 539 667 b 551 719 539 701 543 711 b 572 728 558 725 565 728 b 672 651 600 728 635 696 b 381 342 565 526 472 394 b 311 321 354 326 332 321 b 211 450 249 321 211 381 b 218 503 211 468 214 485 l 219 508 b 194 532 219 522 208 532 l 190 532 b 0 271 61 494 0 385 b 314 -46 0 115 111 -46 b 422 -32 347 -46 383 -42 b 794 474 622 18 703 269 l 844 396 b 785 108 811 296 785 192 b 825 -25 785 51 796 4 b 924 -61 850 -50 885 -61 z m 886 513 l 844 578 b 988 733 885 650 929 707 b 886 513 968 697 926 613 z m 1217 964 b 1283 1010 1244 971 1283 986 b 1281 1022 1283 1014 1283 1018 b 1142 1207 1246 1085 1213 1207 b 963 1051 1074 1200 1038 1122 b 956 1035 957 1046 956 1040 b 1014 979 956 1010 990 990 b 1025 976 1017 978 1021 976 b 1046 990 1036 979 1042 981 b 1125 1110 1063 1029 1101 1069 b 1188 985 1147 1078 1185 1035 b 1211 964 1188 974 1200 964 z "},"Ã":{"ha":1071,"x_min":0,"x_max":0,"o":"m 924 -61 b 1086 -6 981 -61 1044 -37 b 1096 14 1093 0 1096 7 b 1086 33 1096 21 1093 29 b 1022 201 1051 58 1022 97 b 1174 901 1022 322 1061 528 l 1175 910 b 1154 932 1175 921 1167 931 l 1119 933 b 751 739 975 933 857 847 b 492 975 686 847 610 943 b 438 982 474 979 456 982 b 235 767 319 982 235 876 b 342 585 235 700 267 631 b 475 544 383 560 429 544 b 589 588 515 544 556 557 b 596 604 593 592 596 599 b 583 626 596 613 592 622 b 539 692 558 640 539 667 b 551 719 539 701 543 711 b 572 728 558 725 565 728 b 672 651 600 728 635 696 b 381 342 565 526 472 394 b 311 321 354 326 332 321 b 211 450 249 321 211 381 b 218 503 211 468 214 485 l 219 508 b 194 532 219 522 208 532 l 190 532 b 0 271 61 494 0 385 b 314 -46 0 115 111 -46 b 422 -32 347 -46 383 -42 b 794 474 622 18 703 269 l 844 396 b 785 108 811 296 785 192 b 825 -25 785 51 796 4 b 924 -61 850 -50 885 -61 z m 886 513 l 844 578 b 988 733 885 650 929 707 b 886 513 968 697 926 613 z m 979 1008 b 996 1014 986 1008 992 1010 b 1056 1049 1017 1033 1031 1046 b 1203 1014 1088 1049 1147 1014 l 1217 1014 b 1301 1072 1243 1015 1301 1036 b 1261 1124 1301 1092 1288 1124 b 1244 1115 1256 1124 1249 1121 b 1199 1094 1233 1103 1221 1096 b 1047 1140 1158 1094 1107 1139 b 947 1058 999 1140 947 1103 b 963 1017 947 1044 951 1031 b 979 1008 967 1013 972 1008 z "},"Ä":{"ha":1071,"x_min":0,"x_max":0,"o":"m 924 -61 b 1086 -6 981 -61 1044 -37 b 1096 14 1093 0 1096 7 b 1086 33 1096 21 1093 29 b 1022 201 1051 58 1022 97 b 1174 901 1022 322 1061 528 l 1175 910 b 1154 932 1175 921 1167 931 l 1119 933 b 751 739 975 933 857 847 b 492 975 686 847 610 943 b 438 982 474 979 456 982 b 235 767 319 982 235 876 b 342 585 235 700 267 631 b 475 544 383 560 429 544 b 589 588 515 544 556 557 b 596 604 593 592 596 599 b 583 626 596 613 592 622 b 539 692 558 640 539 667 b 551 719 539 701 543 711 b 572 728 558 725 565 728 b 672 651 600 728 635 696 b 381 342 565 526 472 394 b 311 321 354 326 332 321 b 211 450 249 321 211 381 b 218 503 211 468 214 485 l 219 508 b 194 532 219 522 208 532 l 190 532 b 0 271 61 494 0 385 b 314 -46 0 115 111 -46 b 422 -32 347 -46 383 -42 b 794 474 622 18 703 269 l 844 396 b 785 108 811 296 785 192 b 825 -25 785 51 796 4 b 924 -61 850 -50 885 -61 z m 886 513 l 844 578 b 988 733 885 650 929 707 b 886 513 968 697 926 613 z m 1010 990 b 1094 1076 1057 990 1094 1029 b 1010 1163 1094 1124 1057 1163 b 924 1076 963 1163 924 1124 b 1010 990 924 1029 963 990 z m 1203 990 b 1289 1076 1250 990 1289 1029 b 1203 1163 1289 1124 1250 1163 b 1117 1076 1156 1163 1117 1124 b 1203 990 1117 1029 1156 990 z "},"Å":{"ha":1071,"x_min":0,"x_max":0,"o":"m 844 578 b 988 733 885 650 929 707 b 886 513 968 697 926 613 b 844 578 872 533 858 556 z m 1117 960 b 1069 1007 1092 960 1069 982 b 1117 1054 1069 1033 1092 1054 b 1164 1007 1143 1054 1164 1033 b 1117 960 1164 982 1143 960 z m 921 -61 b 1086 -6 982 -61 1038 -43 b 1096 14 1093 0 1096 7 b 1086 33 1096 21 1093 28 b 1021 196 1043 57 1021 111 b 1171 890 1021 324 1071 554 b 1208 917 1185 897 1197 906 b 1246 1007 1233 942 1246 972 b 1208 1099 1246 1043 1233 1074 b 1117 1136 1183 1124 1153 1136 b 1026 1099 1082 1136 1051 1124 b 989 1007 1001 1074 989 1043 b 1022 921 989 974 1000 944 b 936 885 993 913 964 900 b 751 739 869 847 808 799 b 642 886 719 794 682 843 b 492 975 600 929 550 958 b 436 981 472 979 454 981 b 306 929 385 981 340 964 b 235 763 258 883 235 828 b 342 585 235 692 271 632 b 439 546 382 560 415 547 b 481 544 463 544 476 544 b 589 588 519 544 556 558 b 596 606 593 593 596 599 b 583 626 596 614 592 621 b 539 692 554 643 539 664 b 550 717 539 701 543 710 b 574 728 558 725 565 728 b 672 651 599 728 631 703 b 600 564 647 622 624 593 b 488 433 561 515 524 472 b 307 321 419 358 358 321 b 242 354 281 321 258 332 b 211 449 221 381 211 413 b 218 503 211 465 214 483 l 219 510 b 197 533 219 525 211 533 l 190 532 b 33 411 108 506 56 465 b 1 269 13 357 1 310 b 17 172 1 238 7 206 b 135 7 39 97 78 42 b 310 -46 190 -28 249 -46 b 626 128 449 -46 554 13 b 758 393 678 208 721 297 l 794 474 l 844 396 b 785 106 804 281 785 183 b 825 -25 785 50 799 6 b 921 -61 851 -49 883 -61 z "},"Æ":{"ha":1535,"x_min":0,"x_max":0,"o":"m 1194 657 b 1189 651 1192 656 1190 653 b 1194 650 1192 651 1193 650 z m 1154 932 b 1117 933 1142 933 1129 933 b 751 740 974 933 856 847 b 492 975 686 849 610 944 b 436 982 472 981 454 982 b 235 768 318 982 235 878 b 342 585 235 700 267 632 b 474 544 383 560 429 544 b 588 589 515 544 554 557 b 596 607 593 593 596 600 b 583 626 596 614 592 622 b 539 692 558 640 539 668 b 551 719 539 703 543 713 b 574 728 558 725 565 728 b 672 653 601 728 636 697 b 381 343 565 526 472 396 b 310 321 354 328 331 321 b 211 450 247 321 211 381 b 218 504 211 468 213 486 l 218 510 b 194 533 218 522 207 533 l 190 533 b 0 271 61 494 0 385 b 313 -44 0 117 111 -44 b 421 -31 346 -44 382 -40 b 793 475 622 19 703 271 b 844 397 813 444 831 418 b 785 108 811 297 785 193 b 825 -25 785 53 796 6 b 921 -60 849 -50 883 -60 b 1060 -21 968 -60 1019 -44 b 1250 -61 1115 -46 1179 -61 l 1275 -61 b 1643 226 1464 -54 1643 64 b 1554 428 1643 288 1617 357 b 1535 436 1549 433 1542 436 b 1515 424 1526 436 1518 432 b 1315 290 1476 326 1397 290 b 1079 438 1199 290 1079 365 b 1119 503 1079 461 1090 483 b 1269 465 1144 493 1218 465 b 1325 494 1297 465 1319 472 b 1326 503 1326 497 1326 500 b 1153 599 1326 542 1251 599 l 1135 599 b 1126 631 1129 608 1126 619 b 1276 761 1126 694 1221 761 b 1297 757 1285 761 1292 760 b 1321 728 1314 753 1321 742 b 1250 661 1321 699 1290 661 l 1247 661 b 1404 519 1253 581 1328 519 b 1443 525 1417 519 1431 521 b 1586 715 1535 550 1586 633 b 1336 915 1586 815 1510 915 b 1283 913 1319 915 1301 914 b 1167 878 1249 908 1208 896 b 1174 901 1169 886 1171 893 b 1175 908 1174 904 1175 906 b 1154 932 1175 921 1165 931 z m 1204 535 b 1213 538 1207 536 1210 538 b 1233 528 1224 538 1233 531 b 1231 526 1233 528 1232 526 b 1204 535 1222 526 1204 535 z m 844 579 b 988 735 883 650 929 707 b 886 513 967 697 926 614 b 844 579 872 533 858 556 z "},"Ç":{"ha":854,"x_min":0,"x_max":0,"o":"m 397 -322 b 492 -275 432 -322 463 -307 b 510 -214 504 -258 510 -237 b 485 -143 510 -190 501 -167 b 401 -101 468 -119 440 -106 l 414 -62 l 429 -62 b 685 13 522 -62 607 -37 b 800 146 753 58 792 103 b 814 229 810 189 814 217 b 724 435 814 293 783 361 b 706 443 719 440 713 443 b 685 431 696 443 689 439 b 572 317 656 365 618 328 b 465 300 526 306 490 300 b 349 325 425 300 386 308 b 239 461 288 351 251 396 l 238 483 b 272 617 238 528 250 572 b 360 735 299 668 328 708 b 442 774 392 761 419 774 b 468 768 450 774 460 772 b 496 728 488 756 496 743 b 488 700 496 719 493 710 b 413 628 471 672 446 649 b 328 596 379 607 351 596 b 411 478 336 546 364 507 b 539 433 458 449 501 433 b 574 438 551 433 563 435 b 693 540 628 456 667 490 b 733 693 719 590 733 640 b 664 869 733 768 710 826 b 494 926 622 908 567 926 l 454 925 b 165 761 343 910 247 854 b 1 329 56 635 1 492 b 42 143 1 256 14 193 b 358 -60 103 26 208 -40 l 328 -115 b 418 -193 388 -137 418 -164 b 401 -224 418 -206 413 -215 b 364 -237 390 -233 378 -237 b 321 -221 349 -237 335 -232 b 311 -215 317 -217 314 -215 b 307 -226 308 -217 307 -219 b 336 -299 308 -260 318 -283 b 397 -322 354 -314 374 -322 z "},"È":{"ha":854,"x_min":0,"x_max":0,"o":"m 447 -40 b 815 247 636 -33 815 85 b 726 450 815 310 789 378 b 708 458 722 456 715 458 b 688 446 700 458 692 454 b 488 313 649 347 569 313 b 253 458 371 313 253 386 b 293 524 253 481 264 504 b 443 486 318 514 390 486 b 499 515 469 486 492 494 l 500 524 b 326 621 500 564 425 621 l 308 621 b 300 653 303 631 300 642 b 449 783 300 715 394 783 b 471 778 457 783 465 781 b 493 749 488 774 493 763 b 424 682 493 721 464 682 l 421 682 b 579 540 426 601 501 540 b 617 546 592 540 604 542 b 758 736 707 572 758 654 b 510 936 758 836 682 936 b 457 933 493 936 475 935 b 153 696 344 921 153 819 b 200 593 153 663 167 628 b 4 317 97 557 4 449 l 6 288 b 426 -40 22 124 190 -40 z m 407 549 l 404 549 b 378 557 397 549 378 557 b 386 558 381 558 383 558 b 407 549 396 558 407 550 z m 492 974 l 501 976 l 540 996 b 553 1017 547 1000 553 1008 l 551 1025 l 507 1131 b 451 1174 493 1163 474 1174 b 386 1136 426 1174 389 1164 b 390 1124 386 1132 388 1128 b 471 986 415 1092 444 1033 b 492 974 476 978 483 974 z "},"É":{"ha":854,"x_min":0,"x_max":0,"o":"m 447 -40 b 815 247 636 -33 815 85 b 726 450 815 310 789 378 b 708 458 722 456 715 458 b 688 446 700 458 692 454 b 488 313 649 347 569 313 b 253 458 371 313 253 386 b 293 524 253 481 264 504 b 443 486 318 514 390 486 b 499 515 469 486 492 494 l 500 524 b 326 621 500 564 425 621 l 308 621 b 300 653 303 631 300 642 b 449 783 300 715 394 783 b 471 778 457 783 465 781 b 493 749 488 774 493 763 b 424 682 493 721 464 682 l 421 682 b 579 540 426 601 501 540 b 617 546 592 540 604 542 b 758 736 707 572 758 654 b 510 936 758 836 682 936 b 457 933 493 936 475 935 b 153 696 344 921 153 819 b 200 593 153 663 167 628 b 4 317 97 557 4 449 l 6 288 b 426 -40 22 124 190 -40 z m 407 549 l 404 549 b 378 557 397 549 378 557 b 386 558 381 558 383 558 b 407 549 396 558 407 550 z m 519 989 b 536 996 526 989 532 992 b 642 1117 572 1038 611 1090 b 650 1135 647 1121 650 1128 b 579 1179 643 1167 603 1179 b 529 1146 561 1179 544 1169 l 467 1050 b 463 1036 464 1046 463 1040 b 471 1018 463 1029 465 1024 l 506 993 b 519 989 510 990 515 989 z "},"Ê":{"ha":854,"x_min":0,"x_max":0,"o":"m 447 -40 b 815 247 636 -33 815 85 b 726 450 815 310 789 378 b 708 458 722 456 715 458 b 688 446 700 458 692 454 b 488 313 649 347 569 313 b 253 458 371 313 253 386 b 293 524 253 481 264 504 b 443 486 318 514 390 486 b 499 515 469 486 492 494 l 500 524 b 326 621 500 564 425 621 l 308 621 b 300 653 303 631 300 642 b 449 783 300 715 394 783 b 471 778 457 783 465 781 b 493 749 488 774 493 763 b 424 682 493 721 464 682 l 421 682 b 579 540 426 601 501 540 b 617 546 592 540 604 542 b 758 736 707 572 758 654 b 510 936 758 836 682 936 b 457 933 493 936 475 935 b 153 696 344 921 153 819 b 200 593 153 663 167 628 b 4 317 97 557 4 449 l 6 288 b 426 -40 22 124 190 -40 z m 407 549 l 404 549 b 378 557 397 549 378 557 b 386 558 381 558 383 558 b 407 549 396 558 407 550 z m 658 964 b 725 1010 686 971 725 986 b 722 1022 725 1014 725 1018 b 583 1207 688 1085 654 1207 b 404 1051 515 1200 479 1122 b 397 1035 399 1046 397 1040 b 456 979 397 1010 432 990 b 467 976 458 978 463 976 b 488 990 478 979 483 981 b 567 1110 504 1029 543 1069 b 629 985 589 1078 626 1035 b 653 964 629 974 642 964 z "},"Ë":{"ha":854,"x_min":0,"x_max":0,"o":"m 447 -40 b 815 247 636 -33 815 85 b 726 450 815 310 789 378 b 708 458 722 456 715 458 b 688 446 700 458 692 454 b 488 313 649 347 569 313 b 253 458 371 313 253 386 b 293 524 253 481 264 504 b 443 486 318 514 390 486 b 499 515 469 486 492 494 l 500 524 b 326 621 500 564 425 621 l 308 621 b 300 653 303 631 300 642 b 449 783 300 715 394 783 b 471 778 457 783 465 781 b 493 749 488 774 493 763 b 424 682 493 721 464 682 l 421 682 b 579 540 426 601 501 540 b 617 546 592 540 604 542 b 758 736 707 572 758 654 b 510 936 758 836 682 936 b 457 933 493 936 475 935 b 153 696 344 921 153 819 b 200 593 153 663 167 628 b 4 317 97 557 4 449 l 6 288 b 426 -40 22 124 190 -40 z m 407 549 l 404 549 b 378 557 397 549 378 557 b 386 558 381 558 383 558 b 407 549 396 558 407 550 z m 450 967 b 535 1053 497 967 535 1006 b 450 1139 535 1100 497 1139 b 364 1053 403 1139 364 1100 b 450 967 364 1006 403 967 z m 643 967 b 729 1053 690 967 729 1006 b 643 1139 729 1100 690 1139 b 557 1053 596 1139 557 1100 b 643 967 557 1006 596 967 z "},"Ì":{"ha":731,"x_min":0,"x_max":0,"o":"m 332 -42 b 658 238 496 -42 593 89 b 785 650 711 360 763 524 b 906 808 861 668 906 739 b 810 949 906 865 876 922 b 764 957 796 954 779 957 b 651 882 722 957 679 936 b 526 918 611 899 569 911 b 442 926 499 924 469 926 b 181 739 321 926 211 875 b 174 681 178 724 174 703 b 243 525 174 632 189 571 b 388 469 285 490 339 469 b 525 567 447 469 501 499 l 526 575 l 524 586 b 510 597 519 592 517 597 l 497 596 b 450 651 464 596 450 624 b 456 683 450 663 451 674 b 521 722 468 713 492 722 b 592 708 543 722 568 717 b 325 322 551 532 464 322 l 314 322 b 214 451 279 326 214 350 b 219 506 214 468 215 486 l 219 508 b 194 531 219 521 207 531 l 189 529 b 0 260 65 493 0 378 b 326 -42 0 114 103 -37 z m 815 829 l 814 835 b 821 864 814 846 819 864 b 822 857 822 863 822 860 b 815 829 822 849 818 833 z m 674 978 l 683 981 l 722 1000 b 735 1021 729 1004 735 1013 l 733 1029 l 689 1135 b 633 1178 675 1167 656 1178 b 568 1140 608 1178 571 1168 b 572 1128 568 1136 569 1132 b 653 990 597 1096 626 1038 b 674 978 658 982 665 978 z "},"Í":{"ha":731,"x_min":0,"x_max":0,"o":"m 332 -42 b 658 238 496 -42 593 89 b 785 650 711 360 763 524 b 906 808 861 668 906 739 b 810 949 906 865 876 922 b 764 957 796 954 779 957 b 651 882 722 957 679 936 b 526 918 611 899 569 911 b 442 926 499 924 469 926 b 181 739 321 926 211 875 b 174 681 178 724 174 703 b 243 525 174 632 189 571 b 388 469 285 490 339 469 b 525 567 447 469 501 499 l 526 575 l 524 586 b 510 597 519 592 517 597 l 497 596 b 450 651 464 596 450 624 b 456 683 450 663 451 674 b 521 722 468 713 492 722 b 592 708 543 722 568 717 b 325 322 551 532 464 322 l 314 322 b 214 451 279 326 214 350 b 219 506 214 468 215 486 l 219 508 b 194 531 219 521 207 531 l 189 529 b 0 260 65 493 0 378 b 326 -42 0 114 103 -37 z m 685 985 b 701 992 692 985 697 988 b 807 1113 738 1033 776 1086 b 815 1131 813 1117 815 1124 b 744 1175 808 1163 768 1175 b 694 1142 726 1175 710 1165 l 632 1046 b 628 1032 629 1042 628 1036 b 636 1014 628 1025 631 1019 l 671 989 b 685 985 675 986 681 985 z m 815 829 l 814 835 b 821 864 814 846 819 864 b 822 857 822 863 822 860 b 815 829 822 849 818 833 z "},"Î":{"ha":731,"x_min":0,"x_max":0,"o":"m 332 -42 b 658 238 496 -42 593 89 b 785 650 711 360 763 524 b 906 808 861 668 906 739 b 810 949 906 865 876 922 b 764 957 796 954 779 957 b 651 882 722 957 679 936 b 526 918 611 899 569 911 b 442 926 499 924 469 926 b 181 739 321 926 211 875 b 174 681 178 724 174 703 b 243 525 174 632 189 571 b 388 469 285 490 339 469 b 525 567 447 469 501 499 l 526 575 l 524 586 b 510 597 519 592 517 597 l 497 596 b 450 651 464 596 450 624 b 456 683 450 663 451 674 b 521 722 468 713 492 722 b 592 708 543 722 568 717 b 325 322 551 532 464 322 l 314 322 b 214 451 279 326 214 350 b 219 506 214 468 215 486 l 219 508 b 194 531 219 521 207 531 l 189 529 b 0 260 65 493 0 378 b 326 -42 0 114 103 -37 z m 815 829 l 814 835 b 821 864 814 846 819 864 b 822 857 822 863 822 860 b 815 829 822 849 818 833 z m 857 967 b 924 1013 885 974 924 989 b 921 1025 924 1017 924 1021 b 782 1210 886 1088 853 1210 b 603 1054 714 1203 678 1125 b 596 1038 597 1049 596 1043 b 654 982 596 1013 631 993 b 665 979 657 981 661 979 b 686 993 676 982 682 983 b 765 1113 703 1032 742 1072 b 828 988 788 1081 825 1038 b 851 967 828 976 840 967 z "},"Ï":{"ha":731,"x_min":0,"x_max":0,"o":"m 332 -42 b 658 238 496 -42 593 89 b 785 650 711 360 763 524 b 906 808 861 668 906 739 b 810 949 906 865 876 922 b 764 957 796 954 779 957 b 651 882 722 957 679 936 b 526 918 611 899 569 911 b 442 926 499 924 469 926 b 181 739 321 926 211 875 b 174 681 178 724 174 703 b 243 525 174 632 189 571 b 388 469 285 490 339 469 b 525 567 447 469 501 499 l 526 575 l 524 586 b 510 597 519 592 517 597 l 497 596 b 450 651 464 596 450 624 b 456 683 450 663 451 674 b 521 722 468 713 492 722 b 592 708 543 722 568 717 b 325 322 551 532 464 322 l 314 322 b 214 451 279 326 214 350 b 219 506 214 468 215 486 l 219 508 b 194 531 219 521 207 531 l 189 529 b 0 260 65 493 0 378 b 326 -42 0 114 103 -37 z m 815 829 l 814 835 b 821 864 814 846 819 864 b 822 857 822 863 822 860 b 815 829 822 849 818 833 z m 635 986 b 719 1072 682 986 719 1025 b 635 1158 719 1119 682 1158 b 549 1072 588 1158 549 1119 b 635 986 549 1025 588 986 z m 828 986 b 914 1072 875 986 914 1025 b 828 1158 914 1119 875 1158 b 742 1072 781 1158 742 1119 b 828 986 742 1025 781 986 z "},"Ð":{"ha":1208,"x_min":0,"x_max":0,"o":"m 590 601 l 557 601 b 543 617 557 610 553 617 l 528 615 b 486 664 497 615 486 638 b 490 693 486 674 488 683 b 610 769 504 751 554 769 b 654 767 625 769 639 768 b 590 601 633 715 614 658 z m 747 -62 b 1196 431 1022 -62 1196 182 b 881 892 1196 615 1101 801 l 892 903 b 901 921 899 907 901 914 b 886 943 901 931 896 940 b 815 957 861 951 838 957 b 738 926 786 957 760 947 b 576 939 697 935 636 939 b 193 654 343 938 193 790 b 300 483 193 589 226 526 b 400 456 332 464 367 456 b 483 478 431 456 458 463 l 532 478 b 332 321 481 388 417 321 l 319 321 b 219 449 285 325 219 349 b 225 504 219 465 221 483 l 225 507 b 200 529 225 519 213 529 l 193 528 b 4 258 69 492 4 376 b 332 -43 4 113 107 -39 l 338 -43 b 521 25 410 -43 471 -17 b 747 -62 576 -40 664 -62 z m 839 229 b 799 246 824 229 810 235 b 785 290 790 260 785 275 b 815 336 785 310 794 328 b 836 363 826 339 836 350 l 833 371 b 724 436 818 401 778 431 l 733 478 l 835 478 b 856 493 844 478 853 483 l 885 571 l 886 579 b 863 601 886 592 876 601 l 767 601 b 801 722 778 643 789 685 b 992 469 943 663 992 563 b 839 229 992 344 906 229 z "},"Ñ":{"ha":1092,"x_min":0,"x_max":0,"o":"m 339 -53 b 663 226 501 -53 599 79 b 732 413 686 282 710 347 b 847 32 783 278 847 96 b 843 13 847 24 846 17 b 838 -1 839 7 838 3 b 938 -46 838 -28 894 -46 b 983 -32 958 -46 976 -42 b 1101 554 1038 50 1029 358 b 1314 729 1140 660 1224 729 b 1435 683 1354 729 1396 714 b 1449 678 1440 679 1444 678 b 1471 706 1463 678 1471 693 b 1236 960 1471 804 1386 960 b 1138 939 1206 960 1172 953 b 910 365 926 854 910 481 l 910 331 b 789 636 888 396 822 497 l 789 638 b 910 797 865 657 910 728 b 814 938 910 854 881 911 b 768 946 800 943 783 946 b 656 871 726 946 683 925 b 531 907 615 886 574 900 b 447 914 503 911 475 914 b 185 728 325 914 217 865 b 178 669 182 713 178 692 b 247 513 178 619 193 558 b 392 458 289 478 342 458 b 529 556 451 458 506 488 l 531 563 b 515 586 531 574 524 586 l 500 585 b 454 639 468 585 454 611 b 460 671 454 650 456 661 b 525 711 472 700 496 711 b 596 696 547 711 571 704 b 331 311 556 521 468 311 l 319 311 b 218 439 283 314 218 338 b 224 493 218 456 219 474 l 224 496 b 199 519 224 510 211 519 l 193 518 b 4 249 69 482 4 365 b 331 -53 4 101 107 -49 z m 819 817 l 818 824 b 825 853 818 835 824 853 b 826 846 826 851 826 849 b 819 817 826 836 822 822 z m 838 954 b 854 960 844 954 850 956 b 914 994 875 979 889 992 b 1061 960 946 994 1006 960 l 1075 960 b 1160 1018 1101 961 1160 982 b 1119 1069 1160 1038 1146 1069 b 1103 1061 1114 1069 1107 1067 b 1057 1040 1092 1049 1079 1042 b 906 1086 1017 1040 965 1085 b 806 1004 857 1086 806 1049 b 821 963 806 990 810 976 b 838 954 825 958 831 954 z "},"Ò":{"ha":776,"x_min":0,"x_max":0,"o":"m 356 225 l 351 225 b 236 336 285 226 244 271 l 235 350 b 293 417 235 394 267 417 b 329 382 313 417 329 404 l 329 379 b 303 354 328 360 317 354 b 281 339 293 353 285 349 l 278 329 b 283 313 278 324 281 318 b 368 276 303 289 333 276 b 546 414 435 276 515 322 b 558 486 554 438 558 463 b 446 622 558 550 526 608 b 403 626 432 625 417 626 b 161 474 303 626 203 565 l 160 489 b 401 771 160 597 286 771 l 410 771 b 583 525 528 764 583 647 b 356 225 583 379 506 225 z m 325 -53 b 757 438 615 -53 738 199 l 760 492 b 425 928 760 697 658 928 b 11 550 218 928 64 733 b 1 468 7 531 1 500 b 99 350 1 410 19 350 l 107 350 b 83 219 92 311 83 265 b 325 -53 83 86 151 -53 z m 421 967 l 431 969 l 469 989 b 482 1010 476 993 482 1001 l 481 1018 l 436 1124 b 381 1167 422 1156 403 1167 b 315 1129 356 1167 318 1157 b 319 1117 315 1125 317 1121 b 400 979 344 1085 374 1026 b 421 967 406 971 413 967 z "},"Ó":{"ha":776,"x_min":0,"x_max":0,"o":"m 356 225 l 351 225 b 236 336 285 226 244 271 l 235 350 b 293 417 235 394 267 417 b 329 382 313 417 329 404 l 329 379 b 303 354 328 360 317 354 b 281 339 293 353 285 349 l 278 329 b 283 313 278 324 281 318 b 368 276 303 289 333 276 b 546 414 435 276 515 322 b 558 486 554 438 558 463 b 446 622 558 550 526 608 b 403 626 432 625 417 626 b 161 474 303 626 203 565 l 160 489 b 401 771 160 597 286 771 l 410 771 b 583 525 528 764 583 647 b 356 225 583 379 506 225 z m 325 -53 b 757 438 615 -53 738 199 l 760 492 b 425 928 760 697 658 928 b 11 550 218 928 64 733 b 1 468 7 531 1 500 b 99 350 1 410 19 350 l 107 350 b 83 219 92 311 83 265 b 325 -53 83 86 151 -53 z m 429 978 b 446 985 436 978 442 981 b 551 1106 482 1026 521 1079 b 560 1124 557 1110 560 1117 b 489 1168 553 1156 513 1168 b 439 1135 471 1168 454 1158 l 376 1039 b 372 1025 374 1035 372 1029 b 381 1007 372 1018 375 1013 l 415 982 b 429 978 419 979 425 978 z "},"Ô":{"ha":776,"x_min":0,"x_max":0,"o":"m 356 225 l 351 225 b 236 336 285 226 244 271 l 235 350 b 293 417 235 394 267 417 b 329 382 313 417 329 404 l 329 379 b 303 354 328 360 317 354 b 281 339 293 353 285 349 l 278 329 b 283 313 278 324 281 318 b 368 276 303 289 333 276 b 546 414 435 276 515 322 b 558 486 554 438 558 463 b 446 622 558 550 526 608 b 403 626 432 625 417 626 b 161 474 303 626 203 565 l 160 489 b 401 771 160 597 286 771 l 410 771 b 583 525 528 764 583 647 b 356 225 583 379 506 225 z m 325 -53 b 757 438 615 -53 738 199 l 760 492 b 425 928 760 697 658 928 b 11 550 218 928 64 733 b 1 468 7 531 1 500 b 99 350 1 410 19 350 l 107 350 b 83 219 92 311 83 265 b 325 -53 83 86 151 -53 z m 565 961 b 632 1007 593 968 632 983 b 629 1019 632 1011 632 1015 b 490 1204 594 1082 561 1204 b 311 1049 422 1197 386 1119 b 304 1032 306 1043 304 1038 b 363 976 304 1007 339 988 b 374 974 365 975 369 974 b 394 988 385 976 390 978 b 474 1107 411 1026 450 1067 b 536 982 496 1075 533 1032 b 560 961 536 971 549 961 z "},"Õ":{"ha":776,"x_min":0,"x_max":0,"o":"m 356 225 l 351 225 b 236 336 285 226 244 271 l 235 350 b 293 417 235 394 267 417 b 329 382 313 417 329 404 l 329 379 b 303 354 328 360 317 354 b 281 339 293 353 285 349 l 278 329 b 283 313 278 324 281 318 b 368 276 303 289 333 276 b 546 414 435 276 515 322 b 558 486 554 438 558 463 b 446 622 558 550 526 608 b 403 626 432 625 417 626 b 161 474 303 626 203 565 l 160 489 b 401 771 160 597 286 771 l 410 771 b 583 525 528 764 583 647 b 356 225 583 379 506 225 z m 325 -53 b 757 438 615 -53 738 199 l 760 492 b 425 928 760 697 658 928 b 11 550 218 928 64 733 b 1 468 7 531 1 500 b 99 350 1 410 19 350 l 107 350 b 83 219 92 311 83 265 b 325 -53 83 86 151 -53 z m 286 960 b 303 965 293 960 299 961 b 363 1000 324 985 338 997 b 510 965 394 1000 454 965 l 524 965 b 608 1024 550 967 608 988 b 568 1075 608 1043 594 1075 b 551 1067 563 1075 556 1072 b 506 1046 540 1054 528 1047 b 354 1092 465 1046 414 1090 b 254 1010 306 1092 254 1054 b 269 968 254 996 258 982 b 286 960 274 964 279 960 z "},"Ö":{"ha":776,"x_min":0,"x_max":0,"o":"m 356 225 l 351 225 b 236 336 285 226 244 271 l 235 350 b 293 417 235 394 267 417 b 329 382 313 417 329 404 l 329 379 b 303 354 328 360 317 354 b 281 339 293 353 285 349 l 278 329 b 283 313 278 324 281 318 b 368 276 303 289 333 276 b 546 414 435 276 515 322 b 558 486 554 438 558 463 b 446 622 558 550 526 608 b 403 626 432 625 417 626 b 161 474 303 626 203 565 l 160 489 b 401 771 160 597 286 771 l 410 771 b 583 525 528 764 583 647 b 356 225 583 379 506 225 z m 325 -53 b 757 438 615 -53 738 199 l 760 492 b 425 928 760 697 658 928 b 11 550 218 928 64 733 b 1 468 7 531 1 500 b 99 350 1 410 19 350 l 107 350 b 83 219 92 311 83 265 b 325 -53 83 86 151 -53 z m 353 964 b 438 1050 400 964 438 1003 b 353 1136 438 1097 400 1136 b 267 1050 306 1136 267 1097 b 353 964 267 1003 306 964 z m 546 964 b 632 1050 593 964 632 1003 b 546 1136 632 1097 593 1136 b 460 1050 499 1136 460 1097 b 546 964 460 1003 499 964 z "},"×":{"ha":440,"x_min":0,"x_max":0,"o":"m 347 167 b 364 176 354 167 360 169 l 401 229 b 406 243 404 233 406 238 b 399 260 406 249 403 256 l 297 361 l 429 449 b 439 467 435 453 439 460 l 432 518 b 418 536 431 526 425 533 b 408 538 415 538 413 538 b 396 533 404 538 400 536 l 231 421 l 113 538 b 97 544 108 542 103 544 l 93 544 b 76 535 86 544 81 540 l 39 482 b 35 468 36 478 35 474 b 42 451 35 463 38 456 l 143 350 l 13 263 b 1 240 4 257 1 249 l 10 193 b 22 175 10 185 15 178 l 32 172 b 44 176 36 172 40 174 l 210 290 l 329 172 b 343 167 332 169 338 167 z "},"Ø":{"ha":776,"x_min":0,"x_max":0,"o":"m 236 336 l 235 350 b 290 417 235 393 264 415 z m 354 225 l 351 225 b 303 236 333 226 318 229 l 336 282 b 368 278 346 279 357 278 b 546 415 436 278 517 324 b 558 486 554 439 558 463 b 538 564 558 514 551 542 l 574 614 b 583 525 581 586 583 556 b 354 225 583 381 506 225 z m 161 474 l 160 489 b 403 771 160 597 286 771 l 411 771 b 506 733 449 769 481 754 l 432 625 b 401 626 422 626 413 626 b 161 474 301 626 203 565 z m 79 -62 b 97 -54 86 -62 93 -60 l 150 21 b 326 -53 189 -24 246 -53 b 758 439 615 -53 738 200 b 760 486 760 454 760 471 b 688 774 760 585 738 692 l 743 851 b 747 863 746 856 747 858 l 746 869 b 735 888 744 876 740 882 l 674 932 b 657 938 668 936 663 938 b 640 929 650 938 644 935 l 601 872 b 425 929 554 907 496 929 b 11 551 218 929 64 735 b 1 468 7 532 1 500 b 100 350 1 411 19 350 l 107 350 b 83 219 92 313 83 267 b 94 129 83 189 88 158 l 10 7 b 7 -4 8 4 7 0 l 8 -12 b 21 -31 10 -21 14 -26 l 64 -58 b 79 -62 69 -61 75 -62 z "},"Ù":{"ha":1029,"x_min":0,"x_max":0,"o":"m 914 -156 b 1090 3 1047 -156 1090 -64 b 1083 46 1090 19 1088 35 b 1072 53 1079 51 1075 53 b 1063 46 1067 53 1064 49 b 1024 25 1058 32 1042 25 b 968 72 1000 25 972 39 b 965 124 967 89 965 106 b 1074 774 965 319 1074 592 b 1071 822 1074 790 1074 807 b 926 911 1060 896 975 910 l 924 911 b 900 888 911 911 900 900 l 901 867 b 618 167 901 704 754 167 b 601 169 613 167 607 168 b 565 285 574 186 565 231 b 601 550 565 376 592 494 b 742 728 686 571 742 653 b 653 856 742 781 715 831 b 606 864 638 861 622 864 b 489 786 563 864 518 843 b 361 824 447 803 404 815 b 275 831 332 828 303 831 b 3 638 149 831 36 779 b -4 578 -1 621 -4 600 b 68 417 -4 526 11 464 b 217 361 111 382 165 361 b 358 461 278 361 335 390 l 360 468 b 344 492 360 479 353 492 l 331 490 b 281 549 296 490 281 518 b 288 581 281 560 283 571 b 356 621 300 610 325 621 b 428 606 378 621 403 614 b 353 190 410 524 353 340 b 524 -37 353 64 392 -37 l 533 -37 b 739 51 613 -35 682 -7 b 911 -156 739 -68 781 -156 z m 658 731 l 657 738 b 664 768 657 749 663 768 b 665 761 665 767 665 764 b 658 731 665 751 661 736 z m 753 883 l 763 886 l 801 906 b 814 926 808 910 814 918 l 813 935 l 768 1040 b 713 1083 754 1072 735 1083 b 647 1046 688 1083 650 1074 b 651 1033 647 1042 649 1038 b 732 896 676 1001 706 943 b 753 883 738 888 744 883 z "},"Ú":{"ha":1029,"x_min":0,"x_max":0,"o":"m 914 -156 b 1090 3 1047 -156 1090 -64 b 1083 46 1090 19 1088 35 b 1072 53 1079 51 1075 53 b 1063 46 1067 53 1064 49 b 1024 25 1058 32 1042 25 b 968 72 1000 25 972 39 b 965 124 967 89 965 106 b 1074 774 965 319 1074 592 b 1071 822 1074 790 1074 807 b 926 911 1060 896 975 910 l 924 911 b 900 888 911 911 900 900 l 901 867 b 618 167 901 704 754 167 b 601 169 613 167 607 168 b 565 285 574 186 565 231 b 601 550 565 376 592 494 b 742 728 686 571 742 653 b 653 856 742 781 715 831 b 606 864 638 861 622 864 b 489 786 563 864 518 843 b 361 824 447 803 404 815 b 275 831 332 828 303 831 b 3 638 149 831 36 779 b -4 578 -1 621 -4 600 b 68 417 -4 526 11 464 b 217 361 111 382 165 361 b 358 461 278 361 335 390 l 360 468 b 344 492 360 479 353 492 l 331 490 b 281 549 296 490 281 518 b 288 581 281 560 283 571 b 356 621 300 610 325 621 b 428 606 378 621 403 614 b 353 190 410 524 353 340 b 524 -37 353 64 392 -37 l 533 -37 b 739 51 613 -35 682 -7 b 911 -156 739 -68 781 -156 z m 658 731 l 657 738 b 664 768 657 749 663 768 b 665 761 665 767 665 764 b 658 731 665 751 661 736 z m 774 881 b 790 888 781 881 786 883 b 896 1008 826 929 865 982 b 904 1026 901 1013 904 1019 b 833 1071 897 1058 857 1071 b 783 1038 815 1071 799 1061 l 721 942 b 717 928 718 938 717 932 b 725 910 717 921 719 915 l 760 885 b 774 881 764 882 769 881 z "},"Û":{"ha":1029,"x_min":0,"x_max":0,"o":"m 914 -156 b 1090 3 1047 -156 1090 -64 b 1083 46 1090 19 1088 35 b 1072 53 1079 51 1075 53 b 1063 46 1067 53 1064 49 b 1024 25 1058 32 1042 25 b 968 72 1000 25 972 39 b 965 124 967 89 965 106 b 1074 774 965 319 1074 592 b 1071 822 1074 790 1074 807 b 926 911 1060 896 975 910 l 924 911 b 900 888 911 911 900 900 l 901 867 b 618 167 901 704 754 167 b 601 169 613 167 607 168 b 565 285 574 186 565 231 b 601 550 565 376 592 494 b 742 728 686 571 742 653 b 653 856 742 781 715 831 b 606 864 638 861 622 864 b 489 786 563 864 518 843 b 361 824 447 803 404 815 b 275 831 332 828 303 831 b 3 638 149 831 36 779 b -4 578 -1 621 -4 600 b 68 417 -4 526 11 464 b 217 361 111 382 165 361 b 358 461 278 361 335 390 l 360 468 b 344 492 360 479 353 492 l 331 490 b 281 549 296 490 281 518 b 288 581 281 560 283 571 b 356 621 300 610 325 621 b 428 606 378 621 403 614 b 353 190 410 524 353 340 b 524 -37 353 64 392 -37 l 533 -37 b 739 51 613 -35 682 -7 b 911 -156 739 -68 781 -156 z m 658 731 l 657 738 b 664 768 657 749 663 768 b 665 761 665 767 665 764 b 658 731 665 751 661 736 z m 882 925 b 949 971 910 932 949 947 b 946 983 949 975 949 979 b 807 1168 911 1046 878 1168 b 628 1013 739 1161 703 1083 b 621 996 622 1007 621 1001 b 679 940 621 971 656 951 b 690 938 682 939 686 938 b 711 951 701 940 707 942 b 790 1071 728 990 767 1031 b 853 946 813 1039 850 996 b 876 925 853 935 865 925 z "},"Ü":{"ha":1029,"x_min":0,"x_max":0,"o":"m 914 -156 b 1090 3 1047 -156 1090 -64 b 1083 46 1090 19 1088 35 b 1072 53 1079 51 1075 53 b 1063 46 1067 53 1064 49 b 1024 25 1058 32 1042 25 b 968 72 1000 25 972 39 b 965 124 967 89 965 106 b 1074 774 965 319 1074 592 b 1071 822 1074 790 1074 807 b 926 911 1060 896 975 910 l 924 911 b 900 888 911 911 900 900 l 901 867 b 618 167 901 704 754 167 b 601 169 613 167 607 168 b 565 285 574 186 565 231 b 601 550 565 376 592 494 b 742 728 686 571 742 653 b 653 856 742 781 715 831 b 606 864 638 861 622 864 b 489 786 563 864 518 843 b 361 824 447 803 404 815 b 275 831 332 828 303 831 b 3 638 149 831 36 779 b -4 578 -1 621 -4 600 b 68 417 -4 526 11 464 b 217 361 111 382 165 361 b 358 461 278 361 335 390 l 360 468 b 344 492 360 479 353 492 l 331 490 b 281 549 296 490 281 518 b 288 581 281 560 283 571 b 356 621 300 610 325 621 b 428 606 378 621 403 614 b 353 190 410 524 353 340 b 524 -37 353 64 392 -37 l 533 -37 b 739 51 613 -35 682 -7 b 911 -156 739 -68 781 -156 z m 658 731 l 657 738 b 664 768 657 749 663 768 b 665 761 665 767 665 764 b 658 731 665 751 661 736 z m 715 938 b 800 1024 763 938 800 976 b 715 1110 800 1071 763 1110 b 629 1024 668 1110 629 1071 b 715 938 629 976 668 938 z m 908 938 b 994 1024 956 938 994 976 b 908 1110 994 1071 956 1110 b 822 1024 861 1110 822 1071 b 908 938 822 976 861 938 z "},"Ÿ":{"ha":965,"x_min":0,"x_max":0,"o":"m 489 -219 b 983 626 814 -219 958 375 b 1000 839 993 719 1000 788 b 944 963 1000 915 985 950 b 896 971 928 968 911 971 b 831 942 858 971 831 956 b 833 933 831 939 831 936 b 838 908 836 929 838 921 b 792 626 838 840 801 667 b 608 417 761 496 667 417 b 558 474 581 417 560 435 b 588 653 565 543 581 614 b 724 824 669 672 724 751 b 638 947 724 875 697 922 b 592 956 624 953 607 956 b 479 881 550 956 507 935 b 356 917 439 896 397 908 b 272 924 328 921 300 924 b 8 736 150 924 40 874 b 1 679 6 721 1 701 b 72 522 1 629 17 568 b 215 468 114 488 167 468 b 353 565 275 468 329 497 l 354 572 b 338 596 354 582 347 596 l 325 594 b 278 650 292 594 278 622 b 283 681 278 661 279 671 b 350 721 296 710 321 721 b 421 706 372 721 396 714 b 364 436 403 626 364 525 b 514 258 364 353 399 283 b 561 253 529 254 546 253 b 676 279 601 253 640 264 b 485 146 628 200 563 146 l 471 146 b 369 275 436 149 369 172 b 375 328 369 290 371 308 l 375 332 b 353 353 375 344 365 353 l 344 351 b 156 82 221 315 156 200 b 483 -219 156 -64 258 -215 z m 643 826 l 642 833 b 649 863 642 844 647 863 b 650 856 650 861 650 858 b 643 826 650 846 646 832 z m 678 1001 b 763 1088 725 1001 763 1040 b 678 1174 763 1135 725 1174 b 592 1088 631 1174 592 1135 b 678 1001 592 1040 631 1001 z m 871 1001 b 957 1088 918 1001 957 1040 b 871 1174 957 1135 918 1174 b 785 1088 824 1174 785 1135 b 871 1001 785 1040 824 1001 z "},"Ý":{"ha":965,"x_min":0,"x_max":0,"o":"m 489 -219 b 983 626 814 -219 958 375 b 1000 839 993 719 1000 788 b 944 963 1000 915 985 950 b 896 971 928 968 911 971 b 831 942 858 971 831 956 b 833 933 831 939 831 936 b 838 908 836 929 838 921 b 792 626 838 840 801 667 b 608 417 761 496 667 417 b 558 474 581 417 560 435 b 588 653 565 543 581 614 b 724 824 669 672 724 751 b 638 947 724 875 697 922 b 592 956 624 953 607 956 b 479 881 550 956 507 935 b 356 917 439 896 397 908 b 272 924 328 921 300 924 b 8 736 150 924 40 874 b 1 679 6 721 1 701 b 72 522 1 629 17 568 b 215 468 114 488 167 468 b 353 565 275 468 329 497 l 354 572 b 338 596 354 582 347 596 l 325 594 b 278 650 292 594 278 622 b 283 681 278 661 279 671 b 350 721 296 710 321 721 b 421 706 372 721 396 714 b 364 436 403 626 364 525 b 514 258 364 353 399 283 b 561 253 529 254 546 253 b 676 279 601 253 640 264 b 485 146 628 200 563 146 l 471 146 b 369 275 436 149 369 172 b 375 328 369 290 371 308 l 375 332 b 353 353 375 344 365 353 l 344 351 b 156 82 221 315 156 200 b 483 -219 156 -64 258 -215 z m 643 826 l 642 833 b 649 863 642 844 647 863 b 650 856 650 861 650 858 b 643 826 650 846 646 832 z m 765 939 b 782 946 772 939 778 942 b 888 1067 818 988 857 1040 b 896 1085 893 1071 896 1078 b 825 1129 889 1117 849 1129 b 775 1096 807 1129 790 1119 l 713 1000 b 708 986 710 996 708 990 b 717 968 708 979 711 974 l 751 943 b 765 939 756 940 761 939 z "},"Þ":{"ha":0,"x_min":0,"x_max":0,"o":""},"ß":{"ha":943,"x_min":0,"x_max":0,"o":"m 232 -176 b 322 -104 303 -168 322 -137 b 289 -8 322 -65 296 -24 b 264 147 271 35 264 89 b 361 624 264 321 328 535 b 726 1057 493 972 653 1057 b 765 1043 746 1057 760 1051 b 771 1015 769 1038 771 1028 b 521 672 771 928 688 692 b 378 556 403 658 378 600 b 383 518 378 540 381 528 b 410 499 389 503 396 499 l 433 500 b 592 513 472 504 533 513 b 725 471 651 513 707 503 b 733 433 731 461 733 447 b 576 269 733 369 681 274 l 564 269 b 460 336 517 269 460 283 l 461 353 l 464 365 b 436 386 464 381 451 386 b 357 350 410 386 369 368 b 315 228 335 319 315 275 b 560 49 315 150 371 67 l 594 47 b 901 267 739 47 869 135 b 910 331 907 289 910 310 b 693 582 910 483 769 582 l 690 582 b 950 908 690 582 950 725 b 890 1054 950 954 933 1004 b 688 1164 824 1132 756 1164 b 92 453 421 1164 168 654 b 0 69 64 379 0 213 b 232 -176 0 -61 53 -172 z "},"à":{"ha":607,"x_min":0,"x_max":0,"o":"m 450 3 b 717 285 590 3 672 149 l 719 299 b 674 336 719 322 696 336 b 632 308 656 336 638 328 b 563 196 613 249 589 196 b 549 200 558 196 553 197 b 529 239 539 207 531 219 l 529 246 b 576 407 529 279 556 342 b 586 464 582 428 586 447 b 446 597 586 551 514 597 b 403 590 431 597 417 594 b 389 576 397 588 392 583 b 388 567 388 574 388 569 b 389 557 388 564 388 561 b 393 535 392 551 393 543 l 392 514 b 276 579 361 560 319 579 b 3 236 151 579 3 414 b 13 161 3 211 6 186 b 147 8 32 81 83 26 b 171 6 154 6 163 6 b 325 89 218 6 276 38 b 440 3 351 38 396 4 z m 306 269 l 288 271 b 251 333 263 274 251 301 b 317 447 251 385 278 447 l 325 446 b 360 403 343 443 354 426 b 319 271 346 361 331 315 z m 349 603 l 358 606 l 397 625 b 410 646 404 629 410 638 l 408 654 l 364 760 b 308 803 350 792 331 803 b 256 788 292 803 274 797 b 243 771 249 783 244 778 l 243 765 b 247 753 243 761 244 757 b 328 615 272 721 301 663 b 349 603 333 607 340 603 z "},"á":{"ha":607,"x_min":0,"x_max":0,"o":"m 450 3 b 717 285 590 3 672 149 l 719 299 b 674 336 719 322 696 336 b 632 308 656 336 638 328 b 563 196 613 249 589 196 b 549 200 558 196 553 197 b 529 239 539 207 531 219 l 529 246 b 576 407 529 279 556 342 b 586 464 582 428 586 447 b 446 597 586 551 514 597 b 403 590 431 597 417 594 b 389 576 397 588 392 583 b 388 567 388 574 388 569 b 389 557 388 564 388 561 b 393 535 392 551 393 543 l 392 514 b 276 579 361 560 319 579 b 3 236 151 579 3 414 b 13 161 3 211 6 186 b 147 8 32 81 83 26 b 171 6 154 6 163 6 b 325 89 218 6 276 38 b 440 3 351 38 396 4 z m 306 269 l 288 271 b 251 333 263 274 251 301 b 317 447 251 385 278 447 l 325 446 b 360 403 343 443 354 426 b 319 271 346 361 331 315 z m 350 615 b 367 622 357 615 363 618 b 472 743 403 664 442 717 b 481 761 478 747 481 754 b 471 779 479 768 476 775 b 410 806 450 794 431 806 b 360 772 392 806 375 796 l 297 676 b 293 663 294 672 293 667 b 301 644 293 656 296 650 l 336 619 b 350 615 340 617 346 615 z "},"â":{"ha":607,"x_min":0,"x_max":0,"o":"m 450 3 b 717 285 590 3 672 149 l 719 299 b 674 336 719 322 696 336 b 632 308 656 336 638 328 b 563 196 613 249 589 196 b 549 200 558 196 553 197 b 529 239 539 207 531 219 l 529 246 b 576 407 529 279 556 342 b 586 464 582 428 586 447 b 446 597 586 551 514 597 b 403 590 431 597 417 594 b 389 576 397 588 392 583 b 388 567 388 574 388 569 b 389 557 388 564 388 561 b 393 535 392 551 393 543 l 392 514 b 276 579 361 560 319 579 b 3 236 151 579 3 414 b 13 161 3 211 6 186 b 147 8 32 81 83 26 b 171 6 154 6 163 6 b 325 89 218 6 276 38 b 440 3 351 38 396 4 z m 306 269 l 288 271 b 251 333 263 274 251 301 b 317 447 251 385 278 447 l 325 446 b 360 403 343 443 354 426 b 319 271 346 361 331 315 z m 465 625 b 524 654 488 631 508 640 b 532 671 529 658 532 665 b 529 683 532 675 532 679 b 390 868 494 746 461 868 l 376 867 b 211 713 319 856 271 769 b 204 696 206 707 204 701 b 210 679 204 689 206 683 b 263 640 224 664 243 650 b 274 638 265 639 269 638 l 281 639 b 294 651 288 642 292 646 b 374 771 311 690 350 731 b 436 646 396 739 433 696 b 446 629 436 639 440 633 b 460 625 450 626 456 625 z "},"ã":{"ha":607,"x_min":0,"x_max":0,"o":"m 450 3 b 717 285 590 3 672 149 l 719 299 b 674 336 719 322 696 336 b 632 308 656 336 638 328 b 563 196 613 249 589 196 b 549 200 558 196 553 197 b 529 239 539 207 531 219 l 529 246 b 576 407 529 279 556 342 b 586 464 582 428 586 447 b 446 597 586 551 514 597 b 403 590 431 597 417 594 b 389 576 397 588 392 583 b 388 567 388 574 388 569 b 389 557 388 564 388 561 b 393 535 392 551 393 543 l 392 514 b 276 579 361 560 319 579 b 3 236 151 579 3 414 b 13 161 3 211 6 186 b 147 8 32 81 83 26 b 171 6 154 6 163 6 b 325 89 218 6 276 38 b 440 3 351 38 396 4 z m 306 269 l 288 271 b 251 333 263 274 251 301 b 317 447 251 385 278 447 l 325 446 b 360 403 343 443 354 426 b 319 271 346 361 331 315 z m 214 624 b 231 629 221 624 226 625 b 282 663 246 643 264 658 l 290 664 b 438 629 322 664 382 629 l 451 629 b 529 668 474 631 508 640 b 536 688 533 675 536 681 b 514 732 536 703 525 719 b 496 739 510 736 503 739 b 479 731 490 739 483 736 b 440 710 471 721 457 713 l 433 710 b 286 756 396 710 343 753 l 282 756 b 182 674 233 756 182 718 b 197 632 182 660 186 646 b 214 624 201 628 207 624 z "},"ä":{"ha":607,"x_min":0,"x_max":0,"o":"m 450 3 b 717 285 590 3 672 149 l 719 299 b 674 336 719 322 696 336 b 632 308 656 336 638 328 b 563 196 613 249 589 196 b 549 200 558 196 553 197 b 529 239 539 207 531 219 l 529 246 b 576 407 529 279 556 342 b 586 464 582 428 586 447 b 446 597 586 551 514 597 b 403 590 431 597 417 594 b 389 576 397 588 392 583 b 388 567 388 574 388 569 b 389 557 388 564 388 561 b 393 535 392 551 393 543 l 392 514 b 276 579 361 560 319 579 b 3 236 151 579 3 414 b 13 161 3 211 6 186 b 147 8 32 81 83 26 b 171 6 154 6 163 6 b 325 89 218 6 276 38 b 440 3 351 38 396 4 z m 306 269 l 288 271 b 251 333 263 274 251 301 b 317 447 251 385 278 447 l 325 446 b 360 403 343 443 354 426 b 319 271 346 361 331 315 z m 282 625 b 367 711 329 625 367 664 b 282 797 367 758 329 797 b 196 711 235 797 196 758 b 282 625 196 664 235 625 z m 475 625 b 561 711 522 625 561 664 b 475 797 561 758 522 797 b 389 711 428 797 389 758 b 475 625 389 664 428 625 z "},"å":{"ha":607,"x_min":0,"x_max":0,"o":"m 306 269 l 288 271 b 251 333 263 274 251 301 b 317 447 251 385 278 447 l 325 446 b 360 403 343 443 354 426 b 319 271 346 361 331 315 z m 363 599 b 315 646 338 599 315 621 b 363 693 315 672 338 693 b 410 646 389 693 410 672 b 363 599 410 621 389 599 z m 481 593 b 492 646 488 610 492 626 b 454 738 492 682 479 713 b 363 775 429 763 399 775 b 272 738 328 775 297 763 b 235 646 247 713 235 682 b 254 578 235 621 242 597 b 151 531 219 574 185 557 b 46 404 108 499 74 456 b 3 236 17 351 3 296 b 13 161 3 211 6 186 b 147 8 36 79 81 28 b 171 6 154 7 163 6 b 325 89 218 6 269 33 b 440 3 354 35 393 7 l 450 3 b 572 46 496 3 538 17 b 660 151 607 74 636 108 b 717 285 683 194 701 239 l 719 299 b 706 326 719 311 715 319 b 674 336 696 333 685 336 b 649 329 664 336 656 333 b 632 308 642 325 636 318 b 600 229 622 278 613 251 b 563 196 588 207 575 196 b 549 200 558 196 553 197 b 529 239 539 207 532 219 l 529 246 b 557 351 529 269 539 306 b 576 407 564 369 569 388 b 586 464 583 428 586 446 b 542 564 586 507 571 540 b 481 593 522 578 501 588 z "},"æ":{"ha":849,"x_min":0,"x_max":0,"o":"m 533 -17 b 964 283 694 -17 893 88 b 967 299 965 289 967 293 b 918 338 967 324 942 338 b 876 311 900 338 883 329 b 683 132 836 207 779 146 l 671 131 b 585 215 622 131 585 171 l 585 224 b 676 176 615 190 647 176 b 854 435 771 176 854 314 b 678 607 854 526 806 607 l 650 606 b 531 571 607 601 567 590 b 447 596 506 588 476 596 b 404 589 432 596 418 593 b 389 576 397 588 392 582 b 388 567 388 574 388 571 b 390 557 388 564 388 560 b 393 536 393 551 393 544 b 392 514 393 529 393 522 b 276 579 361 560 319 579 b 3 235 151 579 3 414 b 13 160 3 210 6 185 b 147 8 32 79 83 26 b 174 4 156 6 164 4 b 325 89 221 4 278 38 b 533 -17 361 18 442 -17 z m 306 269 l 288 271 b 251 333 263 274 251 301 b 317 447 251 383 278 447 l 325 446 b 361 403 343 442 354 425 b 319 271 346 361 331 314 z m 633 349 b 613 356 625 349 618 350 b 690 514 618 389 669 514 l 693 514 b 726 463 717 503 726 483 b 633 349 726 411 672 349 z "},"ç":{"ha":522,"x_min":0,"x_max":0,"o":"m 226 -4 l 201 -50 b 271 -89 233 -62 257 -75 b 292 -128 285 -103 292 -115 b 275 -158 292 -140 286 -150 b 238 -172 264 -168 251 -172 b 194 -156 222 -172 208 -167 b 185 -150 190 -151 188 -150 b 181 -161 182 -151 181 -154 b 210 -233 182 -194 192 -218 b 271 -257 228 -249 247 -257 b 365 -210 306 -257 336 -242 b 383 -149 378 -193 383 -172 b 358 -78 383 -125 375 -101 b 275 -36 342 -54 314 -40 l 286 -3 b 619 282 438 13 549 108 b 624 299 622 289 624 294 b 610 328 624 311 619 321 b 578 338 600 335 589 338 b 538 311 561 338 547 329 b 347 132 497 207 433 147 l 329 131 b 264 165 297 131 276 142 b 244 247 251 188 244 215 b 249 303 244 265 246 283 b 300 464 261 379 278 432 b 360 511 322 496 342 511 b 381 503 368 511 375 508 b 389 474 386 493 389 483 b 376 442 389 461 385 451 b 333 428 368 432 354 428 l 328 428 b 304 413 317 428 308 422 b 294 364 297 394 294 379 b 324 299 294 336 304 314 b 390 274 343 282 365 274 b 443 288 408 274 426 278 b 501 351 469 303 489 324 b 519 439 514 379 519 408 b 506 514 519 465 515 490 b 440 586 490 549 469 572 b 343 607 411 600 378 607 l 315 606 b 83 475 217 593 139 550 b -1 239 26 399 -1 321 b 25 118 -1 196 7 156 b 107 29 43 81 69 51 b 226 -4 139 10 178 -1 z "},"è":{"ha":518,"x_min":0,"x_max":0,"o":"m 265 -4 b 632 283 449 -1 565 97 b 635 299 635 289 635 294 b 588 338 635 324 611 338 b 544 311 569 338 551 329 b 351 132 506 208 447 146 l 340 132 b 254 215 293 132 254 171 l 254 224 b 346 176 285 190 315 176 b 524 435 440 176 524 315 b 347 607 524 526 475 607 l 319 606 b 3 240 124 589 3 403 b 257 -4 3 111 81 -4 z m 303 349 b 282 356 294 349 288 350 b 360 514 288 389 339 514 l 363 514 b 394 463 386 503 394 483 b 303 349 394 413 342 349 z m 349 639 l 358 642 l 397 661 b 410 682 404 665 410 674 l 408 690 l 364 796 b 308 839 350 828 331 839 b 256 824 292 839 274 833 b 243 807 249 819 244 814 l 243 801 b 247 789 243 797 244 793 b 328 651 272 757 301 699 b 349 639 333 643 340 639 z "},"é":{"ha":518,"x_min":0,"x_max":0,"o":"m 265 -4 b 632 283 449 -1 565 97 b 635 299 635 289 635 294 b 588 338 635 324 611 338 b 544 311 569 338 551 329 b 351 132 506 208 447 146 l 340 132 b 254 215 293 132 254 171 l 254 224 b 346 176 285 190 315 176 b 524 435 440 176 524 315 b 347 607 524 526 475 607 l 319 606 b 3 240 124 589 3 403 b 257 -4 3 111 81 -4 z m 303 349 b 282 356 294 349 288 350 b 360 514 288 389 339 514 l 363 514 b 394 463 386 503 394 483 b 303 349 394 413 342 349 z m 357 651 b 374 658 364 651 369 654 b 479 779 410 700 449 753 b 488 797 485 783 488 790 b 478 815 486 804 483 811 b 417 842 457 831 438 842 b 367 808 399 842 382 832 l 304 713 b 300 699 301 708 300 703 b 308 681 300 692 303 686 l 343 656 b 357 651 347 653 353 651 z "},"ê":{"ha":518,"x_min":0,"x_max":0,"o":"m 265 -4 b 632 283 449 -1 565 97 b 635 299 635 289 635 294 b 588 338 635 324 611 338 b 544 311 569 338 551 329 b 351 132 506 208 447 146 l 340 132 b 254 215 293 132 254 171 l 254 224 b 346 176 285 190 315 176 b 524 435 440 176 524 315 b 347 607 524 526 475 607 l 319 606 b 3 240 124 589 3 403 b 257 -4 3 111 81 -4 z m 303 349 b 282 356 294 349 288 350 b 360 514 288 389 339 514 l 363 514 b 394 463 386 503 394 483 b 303 349 394 413 342 349 z m 451 625 b 510 654 474 631 494 640 b 518 671 515 658 518 665 b 515 683 518 675 518 679 b 376 868 481 746 447 868 l 363 867 b 197 713 306 856 257 769 b 190 696 192 707 190 701 b 196 679 190 689 192 683 b 249 640 210 664 229 650 b 260 638 251 639 256 638 l 267 639 b 281 651 274 642 278 646 b 360 771 297 690 336 731 b 422 646 382 739 419 696 b 432 629 422 639 426 633 b 446 625 436 626 442 625 z "},"ë":{"ha":518,"x_min":0,"x_max":0,"o":"m 265 -4 b 632 283 449 -1 565 97 b 635 299 635 289 635 294 b 588 338 635 324 611 338 b 544 311 569 338 551 329 b 351 132 506 208 447 146 l 340 132 b 254 215 293 132 254 171 l 254 224 b 346 176 285 190 315 176 b 524 435 440 176 524 315 b 347 607 524 526 475 607 l 319 606 b 3 240 124 589 3 403 b 257 -4 3 111 81 -4 z m 303 349 b 282 356 294 349 288 350 b 360 514 288 389 339 514 l 363 514 b 394 463 386 503 394 483 b 303 349 394 413 342 349 z m 256 635 b 340 721 303 635 340 674 b 256 807 340 768 303 807 b 169 721 208 807 169 768 b 256 635 169 674 208 635 z m 449 635 b 535 721 496 635 535 674 b 449 807 535 768 496 807 b 363 721 401 807 363 768 b 449 635 363 674 401 635 z "},"ì":{"ha":315,"x_min":0,"x_max":0,"o":"m 135 3 b 403 285 275 3 357 149 l 406 299 b 358 336 406 322 382 336 b 317 308 340 336 322 328 b 247 196 299 249 274 196 b 233 200 243 196 238 197 b 214 239 224 206 215 219 l 214 244 b 283 525 214 300 283 432 b 208 625 283 574 265 613 b 189 626 201 626 196 626 b 82 590 150 626 110 607 b 71 569 75 586 71 578 l 74 558 b 78 535 76 553 78 544 b -11 171 78 461 -11 286 b -7 132 -11 157 -10 144 b 125 3 13 57 71 4 z m 197 672 l 207 675 l 246 694 b 258 715 253 699 258 707 l 257 724 l 213 829 b 157 872 199 861 179 872 b 104 857 140 872 122 867 b 92 840 97 853 93 847 l 92 835 b 96 822 92 831 93 826 b 176 685 121 790 150 732 b 197 672 182 676 189 672 z "},"í":{"ha":315,"x_min":0,"x_max":0,"o":"m 135 3 b 403 285 275 3 357 149 l 406 299 b 358 336 406 322 382 336 b 317 308 340 336 322 328 b 247 196 299 249 274 196 b 233 200 243 196 238 197 b 214 239 224 206 215 219 l 214 244 b 283 525 214 300 283 432 b 208 625 283 574 265 613 b 189 626 201 626 196 626 b 82 590 150 626 110 607 b 71 569 75 586 71 578 l 74 558 b 78 535 76 553 78 544 b -11 171 78 461 -11 286 b -7 132 -11 157 -10 144 b 125 3 13 57 71 4 z m 203 672 b 219 679 210 672 215 675 b 325 800 256 721 294 774 b 333 818 331 804 333 811 b 324 836 332 825 329 832 b 263 863 303 851 283 863 b 213 829 244 863 228 853 l 150 733 b 146 719 147 729 146 724 b 154 701 146 713 149 707 l 189 676 b 203 672 193 674 199 672 z "},"î":{"ha":317,"x_min":0,"x_max":0,"o":"m 136 3 b 404 285 276 3 358 149 l 407 299 b 360 336 407 322 383 336 b 318 308 342 336 324 328 b 249 196 300 249 275 196 b 235 200 244 196 239 197 b 215 239 225 206 217 219 l 215 244 b 285 525 215 300 285 432 b 210 625 285 574 267 613 b 190 626 203 626 197 626 b 83 590 151 626 111 607 b 72 569 76 586 72 578 l 75 558 b 79 535 78 553 79 544 b -10 171 79 461 -10 286 b -6 132 -10 157 -8 144 b 126 3 14 57 72 4 z m 299 644 b 365 690 326 651 365 667 b 363 703 365 694 365 699 b 224 888 328 765 294 888 b 44 732 156 881 119 803 b 38 715 39 726 38 721 b 96 660 38 690 72 671 b 107 657 99 658 103 657 b 128 671 118 660 124 661 b 207 790 144 710 183 750 b 269 665 229 758 267 715 b 293 644 269 654 282 644 z "},"ï":{"ha":318,"x_min":0,"x_max":0,"o":"m 138 3 b 406 285 278 3 360 149 l 408 299 b 361 336 408 322 385 336 b 319 308 343 336 325 328 b 250 196 301 249 276 196 b 236 200 246 196 240 197 b 217 239 226 206 218 219 l 217 244 b 286 525 217 300 286 432 b 211 625 286 574 268 613 b 192 626 204 626 199 626 b 85 590 153 626 113 607 b 74 569 78 586 74 578 l 76 558 b 81 535 79 553 81 544 b -8 171 81 461 -8 286 b -4 132 -8 157 -7 144 b 128 3 15 57 74 4 z m 101 661 b 186 747 149 661 186 700 b 101 833 186 794 149 833 b 15 747 54 833 15 794 b 101 661 15 700 54 661 z m 294 661 b 381 747 342 661 381 700 b 294 833 381 794 342 833 b 208 747 247 833 208 794 b 294 661 208 700 247 661 z "},"ð":{"ha":657,"x_min":0,"x_max":0,"o":"m 471 1 b 774 285 628 1 725 139 l 776 299 b 726 338 776 324 751 338 b 681 311 707 338 688 329 b 601 213 660 260 633 213 l 594 214 b 561 290 569 219 561 250 b 599 493 561 367 593 475 b 629 583 608 528 619 557 l 688 583 b 710 599 697 583 706 589 l 738 676 l 739 685 b 717 708 739 697 729 708 l 668 708 l 669 731 b 521 871 669 838 583 871 b 460 853 492 871 467 864 b 454 838 456 847 454 842 b 468 776 454 822 468 807 b 464 747 468 768 467 758 b 453 708 463 736 458 722 l 368 708 b 347 693 358 708 350 701 l 318 614 l 317 606 b 340 583 317 593 326 583 l 407 583 l 385 521 b 278 581 356 563 318 581 b 7 238 156 581 7 415 b 17 161 7 211 10 186 b 151 8 36 81 89 26 b 176 6 160 6 168 6 b 322 82 222 6 275 35 b 464 1 349 25 403 3 z m 286 269 b 250 336 261 269 250 303 b 254 369 250 347 251 360 b 321 447 265 410 290 447 l 329 446 b 344 417 340 444 344 432 b 315 281 344 376 319 307 b 286 269 304 274 294 269 z "},"ñ":{"ha":626,"x_min":0,"x_max":0,"o":"m 496 -6 b 649 115 574 -6 649 39 l 649 117 l 636 117 b 569 175 586 117 569 139 b 636 467 569 247 636 372 b 499 592 636 531 604 582 l 478 593 b 275 496 396 593 328 550 b 117 619 257 590 175 619 b 57 601 88 619 64 613 b 53 589 54 597 53 593 b 72 515 53 571 72 554 l 71 494 b -33 121 49 335 -10 264 l -35 108 b 150 -6 -35 35 78 -6 b 208 19 182 -6 207 3 l 208 50 b 239 253 208 132 222 194 b 386 460 257 300 324 460 b 407 454 393 460 400 458 b 425 429 419 446 425 439 b 335 233 425 397 361 347 b 326 165 329 208 326 186 b 496 -6 326 46 413 -6 z m 217 647 b 233 653 224 647 229 649 b 285 686 249 667 267 682 l 293 688 b 440 653 325 688 385 653 l 454 653 b 532 692 476 654 511 664 b 539 711 536 699 539 704 b 517 756 539 726 528 743 b 499 763 513 760 506 763 b 482 754 493 763 486 760 b 443 733 474 744 460 736 l 436 733 b 289 779 399 733 346 776 l 285 779 b 185 697 236 779 185 742 b 200 656 185 683 189 669 b 217 647 204 651 210 647 z "},"ò":{"ha":615,"x_min":0,"x_max":0,"o":"m 274 4 b 586 318 449 4 586 158 b 536 475 586 371 571 425 b 351 585 500 528 421 585 b 288 564 329 585 307 579 b 254 581 282 576 267 581 b 239 579 249 581 243 581 b 1 296 111 546 11 432 l 0 275 b 274 4 0 124 118 4 z m 279 261 b 260 263 274 261 267 261 b 181 361 206 272 181 315 b 215 451 181 393 192 426 b 210 414 213 439 210 426 b 232 351 210 390 217 368 b 290 325 249 332 269 325 b 379 375 335 325 379 357 l 379 379 b 325 399 376 385 335 379 b 319 422 321 407 319 415 b 363 464 319 449 340 464 b 410 404 386 464 410 447 b 403 357 410 390 408 375 b 279 261 386 300 333 261 z m 296 613 l 306 615 l 344 635 b 357 656 351 639 357 647 l 356 664 l 311 769 b 256 813 297 801 278 813 b 203 797 239 813 221 807 b 190 781 196 793 192 788 l 190 775 b 194 763 190 771 192 767 b 275 625 219 731 249 672 b 296 613 281 617 288 613 z "},"ó":{"ha":615,"x_min":0,"x_max":0,"o":"m 274 4 b 586 318 449 4 586 158 b 536 475 586 371 571 425 b 351 585 500 528 421 585 b 288 564 329 585 307 579 b 254 581 282 576 267 581 b 239 579 249 581 243 581 b 1 296 111 546 11 432 l 0 275 b 274 4 0 124 118 4 z m 279 261 b 260 263 274 261 267 261 b 181 361 206 272 181 315 b 215 451 181 393 192 426 b 210 414 213 439 210 426 b 232 351 210 390 217 368 b 290 325 249 332 269 325 b 379 375 335 325 379 357 l 379 379 b 325 399 376 385 335 379 b 319 422 321 407 319 415 b 363 464 319 449 340 464 b 410 404 386 464 410 447 b 403 357 410 390 408 375 b 279 261 386 300 333 261 z m 303 615 b 319 622 310 615 315 618 b 425 743 356 664 394 717 b 433 761 431 747 433 754 b 424 779 432 768 429 775 b 363 806 403 794 383 806 b 313 772 344 806 328 796 l 250 676 b 246 663 247 672 246 667 b 254 644 246 656 249 650 l 289 619 b 303 615 293 617 299 615 z "},"ô":{"ha":615,"x_min":0,"x_max":0,"o":"m 274 4 b 586 318 449 4 586 158 b 536 475 586 371 571 425 b 351 585 500 528 421 585 b 288 564 329 585 307 579 b 254 581 282 576 267 581 b 239 579 249 581 243 581 b 1 296 111 546 11 432 l 0 275 b 274 4 0 124 118 4 z m 279 261 b 260 263 274 261 267 261 b 181 361 206 272 181 315 b 215 451 181 393 192 426 b 210 414 213 439 210 426 b 232 351 210 390 217 368 b 290 325 249 332 269 325 b 379 375 335 325 379 357 l 379 379 b 325 399 376 385 335 379 b 319 422 321 407 319 415 b 363 464 319 449 340 464 b 410 404 386 464 410 447 b 403 357 410 390 408 375 b 279 261 386 300 333 261 z m 429 615 b 488 644 451 621 472 631 b 496 661 493 649 496 656 b 493 674 496 665 496 669 b 354 858 458 736 425 858 l 340 857 b 175 703 283 846 235 760 b 168 686 169 697 168 692 b 174 669 168 679 169 674 b 226 631 188 654 207 640 b 238 628 229 629 233 628 l 244 629 b 258 642 251 632 256 636 b 338 761 275 681 314 721 b 400 636 360 729 397 686 b 410 619 400 629 404 624 b 424 615 414 617 419 615 z "},"õ":{"ha":615,"x_min":0,"x_max":0,"o":"m 274 4 b 586 318 449 4 586 158 b 536 475 586 371 571 425 b 351 585 500 528 421 585 b 288 564 329 585 307 579 b 254 581 282 576 267 581 b 239 579 249 581 243 581 b 1 296 111 546 11 432 l 0 275 b 274 4 0 124 118 4 z m 279 261 b 260 263 274 261 267 261 b 181 361 206 272 181 315 b 215 451 181 393 192 426 b 210 414 213 439 210 426 b 232 351 210 390 217 368 b 290 325 249 332 269 325 b 379 375 335 325 379 357 l 379 379 b 325 399 376 385 335 379 b 319 422 321 407 319 415 b 363 464 319 449 340 464 b 410 404 386 464 410 447 b 403 357 410 390 408 375 b 279 261 386 300 333 261 z m 181 624 b 197 629 188 624 193 625 b 249 663 213 643 231 658 l 257 664 b 404 629 289 664 349 629 l 418 629 b 496 668 440 631 475 640 b 503 688 500 675 503 681 b 481 732 503 703 492 719 b 463 739 476 736 469 739 b 446 731 457 739 450 736 b 407 710 438 721 424 713 l 400 710 b 253 756 363 710 310 753 l 249 756 b 149 674 200 756 149 718 b 164 632 149 660 153 646 b 181 624 168 628 174 624 z "},"ö":{"ha":615,"x_min":0,"x_max":0,"o":"m 274 4 b 586 318 449 4 586 158 b 536 475 586 371 571 425 b 351 585 500 528 421 585 b 288 564 329 585 307 579 b 254 581 282 576 267 581 b 239 579 249 581 243 581 b 1 296 111 546 11 432 l 0 275 b 274 4 0 124 118 4 z m 279 261 b 260 263 274 261 267 261 b 181 361 206 272 181 315 b 215 451 181 393 192 426 b 210 414 213 439 210 426 b 232 351 210 390 217 368 b 290 325 249 332 269 325 b 379 375 335 325 379 357 l 379 379 b 325 399 376 385 335 379 b 319 422 321 407 319 415 b 363 464 319 449 340 464 b 410 404 386 464 410 447 b 403 357 410 390 408 375 b 279 261 386 300 333 261 z m 219 621 b 304 707 267 621 304 660 b 219 793 304 754 267 793 b 133 707 172 793 133 754 b 219 621 133 660 172 621 z m 413 621 b 499 707 460 621 499 660 b 413 793 499 754 460 793 b 326 707 365 793 326 754 b 413 621 326 660 365 621 z "},"÷":{"ha":482,"x_min":0,"x_max":0,"o":"m 438 283 b 460 299 447 283 456 289 l 488 376 l 489 385 b 467 408 489 397 479 408 l 118 408 b 97 393 108 408 100 403 l 68 314 l 67 307 b 90 283 67 294 76 283 z m 326 442 b 415 531 375 442 415 482 b 326 621 415 581 375 621 b 236 531 276 621 236 581 b 326 442 236 482 276 442 z m 253 72 b 342 163 301 72 342 113 b 253 251 342 211 301 251 b 163 163 203 251 163 211 b 253 72 163 113 203 72 z "},"ø":{"ha":615,"x_min":0,"x_max":0,"o":"m 50 -31 b 63 -25 54 -31 60 -29 l 117 51 b 274 4 161 22 214 4 b 588 318 450 4 588 158 b 467 543 588 399 556 479 l 533 636 b 536 644 535 638 536 642 b 528 661 535 653 533 657 l 483 694 b 471 699 479 697 475 699 b 458 692 467 699 461 696 l 382 581 b 350 585 371 583 361 585 b 288 564 328 585 307 578 b 256 581 282 576 268 581 b 239 579 249 581 243 581 b 1 278 104 544 6 426 b 58 107 1 213 21 153 l -1 19 l -4 11 b 7 -8 -3 1 -3 -1 l 38 -28 b 50 -31 42 -31 46 -31 z m 279 260 l 267 261 l 313 326 b 379 374 350 335 379 358 l 379 378 b 354 383 378 381 367 382 l 399 446 b 410 404 406 436 410 422 b 403 357 410 390 408 375 b 279 260 386 300 333 260 z m 194 306 b 181 361 185 322 181 342 b 215 451 181 393 192 426 b 211 414 213 439 211 426 b 228 356 211 392 217 372 z "},"ù":{"ha":590,"x_min":0,"x_max":0,"o":"m 429 3 b 696 285 569 3 651 150 l 699 300 b 653 338 699 324 676 338 b 611 308 636 338 618 328 b 542 196 593 250 568 196 b 528 200 538 196 533 197 b 507 239 517 207 510 219 l 507 244 b 571 471 507 290 556 388 l 574 497 b 446 603 574 568 511 603 b 379 590 424 603 400 599 b 365 568 371 586 365 578 l 367 557 b 369 546 368 556 369 551 b 269 201 369 482 293 221 b 251 194 264 197 257 194 b 214 239 235 194 218 211 l 214 246 b 282 518 214 306 282 429 b 204 614 282 565 263 603 b 167 618 192 618 179 618 b 76 594 132 618 99 608 b 65 575 69 592 65 583 l 67 564 b 69 551 69 561 69 557 b -19 183 69 494 -19 319 b 132 10 -19 99 15 28 l 142 10 b 293 113 186 10 238 47 b 419 3 317 47 369 4 z m 321 619 l 331 622 l 369 642 b 382 663 376 646 382 654 l 381 671 l 336 776 b 281 819 322 808 303 819 b 228 804 264 819 246 814 b 215 788 221 800 217 794 l 215 782 b 219 769 215 778 217 774 b 300 632 244 738 274 679 b 321 619 306 624 313 619 z "},"ú":{"ha":590,"x_min":0,"x_max":0,"o":"m 429 3 b 696 285 569 3 651 150 l 699 300 b 653 338 699 324 676 338 b 611 308 636 338 618 328 b 542 196 593 250 568 196 b 528 200 538 196 533 197 b 507 239 517 207 510 219 l 507 244 b 571 471 507 290 556 388 l 574 497 b 446 603 574 568 511 603 b 379 590 424 603 400 599 b 365 568 371 586 365 578 l 367 557 b 369 546 368 556 369 551 b 269 201 369 482 293 221 b 251 194 264 197 257 194 b 214 239 235 194 218 211 l 214 246 b 282 518 214 306 282 429 b 204 614 282 565 263 603 b 167 618 192 618 179 618 b 76 594 132 618 99 608 b 65 575 69 592 65 583 l 67 564 b 69 551 69 561 69 557 b -19 183 69 494 -19 319 b 132 10 -19 99 15 28 l 142 10 b 293 113 186 10 238 47 b 419 3 317 47 369 4 z m 329 619 b 346 626 336 619 342 622 b 451 747 382 668 421 721 b 460 765 457 751 460 758 b 450 783 458 772 456 779 b 389 810 429 799 410 810 b 339 776 371 810 354 800 l 276 681 b 272 667 274 676 272 671 b 281 649 272 660 275 654 l 315 624 b 329 619 319 621 325 619 z "},"û":{"ha":590,"x_min":0,"x_max":0,"o":"m 429 3 b 696 285 569 3 651 150 l 699 300 b 653 338 699 324 676 338 b 611 308 636 338 618 328 b 542 196 593 250 568 196 b 528 200 538 196 533 197 b 507 239 517 207 510 219 l 507 244 b 571 471 507 290 556 388 l 574 497 b 446 603 574 568 511 603 b 379 590 424 603 400 599 b 365 568 371 586 365 578 l 367 557 b 369 546 368 556 369 551 b 269 201 369 482 293 221 b 251 194 264 197 257 194 b 214 239 235 194 218 211 l 214 246 b 282 518 214 306 282 429 b 204 614 282 565 263 603 b 167 618 192 618 179 618 b 76 594 132 618 99 608 b 65 575 69 592 65 583 l 67 564 b 69 551 69 561 69 557 b -19 183 69 494 -19 319 b 132 10 -19 99 15 28 l 142 10 b 293 113 186 10 238 47 b 419 3 317 47 369 4 z m 444 638 b 503 667 467 643 488 653 b 511 683 508 671 511 678 b 508 696 511 688 511 692 b 369 881 474 758 440 881 l 356 879 b 190 725 299 868 250 782 b 183 708 185 719 183 714 b 189 692 183 701 185 696 b 242 653 203 676 222 663 b 253 650 244 651 249 650 l 260 651 b 274 664 267 654 271 658 b 353 783 290 703 329 743 b 415 658 375 751 413 708 b 425 642 415 651 419 646 b 439 638 429 639 435 638 z "},"ü":{"ha":590,"x_min":0,"x_max":0,"o":"m 429 3 b 696 285 569 3 651 150 l 699 300 b 653 338 699 324 676 338 b 611 308 636 338 618 328 b 542 196 593 250 568 196 b 528 200 538 196 533 197 b 507 239 517 207 510 219 l 507 244 b 571 471 507 290 556 388 l 574 497 b 446 603 574 568 511 603 b 379 590 424 603 400 599 b 365 568 371 586 365 578 l 367 557 b 369 546 368 556 369 551 b 269 201 369 482 293 221 b 251 194 264 197 257 194 b 214 239 235 194 218 211 l 214 246 b 282 518 214 306 282 429 b 204 614 282 565 263 603 b 167 618 192 618 179 618 b 76 594 132 618 99 608 b 65 575 69 592 65 583 l 67 564 b 69 551 69 561 69 557 b -19 183 69 494 -19 319 b 132 10 -19 99 15 28 l 142 10 b 293 113 186 10 238 47 b 419 3 317 47 369 4 z m 247 644 b 332 731 294 644 332 683 b 247 817 332 778 294 817 b 161 731 200 817 161 778 b 247 644 161 683 200 644 z m 440 644 b 526 731 488 644 526 683 b 440 817 526 778 488 817 b 354 731 393 817 354 778 b 440 644 354 683 393 644 z "},"ý":{"ha":586,"x_min":0,"x_max":0,"o":"m 226 -349 b 518 26 360 -349 458 -169 b 582 424 560 171 582 324 b 568 519 582 468 578 503 b 433 596 540 571 483 596 b 385 588 415 596 400 593 b 369 565 375 583 369 575 l 371 557 b 378 500 376 544 378 525 b 364 358 378 463 374 413 b 265 204 357 328 315 204 l 257 206 b 228 239 243 210 231 214 l 228 246 b 296 518 228 304 296 429 b 218 614 296 564 276 601 b 181 618 206 617 193 618 b 90 594 146 618 113 608 b 78 574 82 590 78 582 l 81 564 b 83 551 82 561 83 557 b -7 183 83 493 -7 319 b 146 11 -7 99 29 28 l 156 10 b 310 100 199 10 268 47 b 190 -87 301 40 260 -87 l 181 -86 b 92 -39 150 -81 107 -56 b 74 -32 88 -35 81 -32 b 54 -44 67 -32 58 -36 b 26 -149 35 -79 26 -114 b 204 -347 26 -249 103 -333 z m 329 611 b 346 618 336 611 342 614 b 451 739 382 660 421 713 b 460 757 457 743 460 750 b 389 801 453 789 413 801 b 339 768 371 801 354 792 l 276 672 b 272 658 274 668 272 663 b 281 640 272 651 275 646 l 315 615 b 329 611 319 613 325 611 z "},"þ":{"ha":0,"x_min":0,"x_max":0,"o":""},"ÿ":{"ha":586,"x_min":0,"x_max":0,"o":"m 226 -349 b 518 26 360 -349 458 -169 b 582 424 560 171 582 324 b 568 519 582 468 578 503 b 433 596 540 571 483 596 b 385 588 415 596 400 593 b 369 565 375 583 369 575 l 371 557 b 378 500 376 544 378 525 b 364 358 378 463 374 413 b 265 204 357 328 315 204 l 257 206 b 228 239 243 210 231 214 l 228 246 b 296 518 228 304 296 429 b 218 614 296 564 276 601 b 181 618 206 617 193 618 b 90 594 146 618 113 608 b 78 574 82 590 78 582 l 81 564 b 83 551 82 561 83 557 b -7 183 83 493 -7 319 b 146 11 -7 99 29 28 l 156 10 b 310 100 199 10 268 47 b 190 -87 301 40 260 -87 l 181 -86 b 92 -39 150 -81 107 -56 b 74 -32 88 -35 81 -32 b 54 -44 67 -32 58 -36 b 26 -149 35 -79 26 -114 b 204 -347 26 -249 103 -333 z m 272 651 b 357 738 319 651 357 690 b 272 824 357 785 319 824 b 186 738 225 824 186 785 b 272 651 186 690 225 651 z m 465 651 b 551 738 513 651 551 690 b 465 824 551 785 513 824 b 379 738 418 824 379 785 b 465 651 379 690 418 651 z "},"ı":{"ha":0,"x_min":0,"x_max":0,"o":""},"ˆ":{"ha":324,"x_min":0,"x_max":0,"o":"m 260 890 b 318 919 282 896 303 906 b 326 936 324 924 326 931 b 324 949 326 940 326 944 b 185 1133 289 1011 256 1133 l 171 1132 b 6 978 114 1121 65 1035 b -1 961 0 972 -1 967 b 4 944 -1 954 0 949 b 57 906 18 929 38 915 b 68 903 60 904 64 903 l 75 904 b 89 917 82 907 86 911 b 168 1036 106 956 144 996 b 231 911 190 1004 228 961 b 240 894 231 904 235 899 b 254 890 244 892 250 890 z "},"ˇ":{"ha":329,"x_min":0,"x_max":0,"o":"m 146 846 l 158 847 b 324 1003 215 860 264 944 b 331 1019 329 1007 331 1014 b 325 1035 331 1025 329 1031 b 272 1075 311 1050 292 1065 l 261 1078 l 254 1076 b 240 1064 247 1074 243 1069 b 161 944 224 1025 185 983 b 99 1069 139 976 101 1019 b 89 1086 97 1076 94 1082 b 75 1090 85 1089 79 1090 l 69 1090 b 10 1061 47 1085 26 1074 b 1 1043 4 1056 1 1049 b 4 1032 1 1039 3 1035 b 146 846 40 969 74 846 z "},"ˉ":{"ha":0,"x_min":0,"x_max":0,"o":""},"˘":{"ha":0,"x_min":0,"x_max":0,"o":""},"˙":{"ha":179,"x_min":0,"x_max":0,"o":"m 93 881 b 183 969 143 881 183 919 b 93 1058 183 1019 143 1058 b 4 969 44 1058 4 1019 b 93 881 4 919 44 881 z "},"˚":{"ha":254,"x_min":0,"x_max":0,"o":"m 129 857 b 258 985 201 857 258 914 b 129 1114 258 1057 201 1114 b 1 985 58 1114 1 1057 b 129 857 1 914 58 857 z m 129 938 b 82 985 104 938 82 960 b 129 1032 82 1011 104 1032 b 176 985 156 1032 176 1011 b 129 938 176 960 156 938 z "},"˛":{"ha":197,"x_min":0,"x_max":0,"o":"m 86 -157 b 200 -76 142 -157 200 -122 b 188 -37 200 -64 196 -51 b 172 -28 183 -32 178 -29 b 153 -33 165 -28 158 -29 b 113 -56 135 -49 122 -56 b 97 -29 103 -56 97 -46 b 138 119 97 11 124 86 l 97 126 b 0 -86 69 85 0 -15 b 54 -153 0 -118 15 -143 b 86 -157 64 -156 75 -157 z "},"˜":{"ha":349,"x_min":0,"x_max":0,"o":"m 31 919 b 47 925 38 919 43 921 b 99 958 63 939 81 954 l 107 960 b 254 925 139 960 199 925 l 268 925 b 346 964 290 926 325 936 b 353 983 350 971 353 976 b 331 1028 353 999 342 1015 b 313 1035 326 1032 319 1035 b 296 1026 307 1035 300 1032 b 257 1006 288 1017 274 1008 l 250 1006 b 103 1051 213 1006 160 1049 l 99 1051 b -1 969 50 1051 -1 1014 b 14 928 -1 956 3 942 b 31 919 18 924 24 919 z "},"˝":{"ha":0,"x_min":0,"x_max":0,"o":""},"–":{"ha":722,"x_min":0,"x_max":0,"o":"m 675 453 b 703 468 688 453 699 460 l 726 519 b 728 528 728 522 728 525 b 699 551 728 540 715 551 l 53 551 b 25 536 40 551 29 544 l 1 485 l -1 476 b 29 453 -1 464 13 453 z "},"—":{"ha":1086,"x_min":0,"x_max":0,"o":"m 1008 453 b 1050 468 1028 453 1043 460 l 1086 519 b 1089 528 1088 522 1089 525 b 1044 551 1089 540 1071 551 l 76 551 b 35 536 57 551 40 544 l -3 485 l -6 476 b 39 453 -6 464 14 453 z "},"‘":{"ha":286,"x_min":0,"x_max":0,"o":"m 194 794 b 285 885 244 794 285 835 b 224 969 285 924 260 957 b 235 986 228 975 232 981 b 239 1000 238 990 239 994 b 217 1022 239 1011 229 1022 b 206 1019 213 1022 210 1021 b 106 885 154 993 106 946 b 194 794 106 835 146 794 z "},"’":{"ha":257,"x_min":0,"x_max":0,"o":"m 153 794 l 163 797 b 263 932 214 824 263 871 b 174 1022 263 982 222 1022 b 83 932 124 1022 83 982 b 143 849 83 893 108 860 l 133 832 b 129 818 131 828 129 824 b 153 794 129 806 139 794 z "},"‚":{"ha":172,"x_min":0,"x_max":0,"o":"m 64 -139 b 75 -136 68 -139 71 -137 b 176 -1 126 -111 176 -62 b 86 88 176 47 136 88 b -3 -1 36 88 -3 47 b 57 -86 -3 -40 22 -74 l 46 -103 b 42 -115 43 -107 42 -111 b 64 -139 42 -128 51 -139 z "},"“":{"ha":386,"x_min":0,"x_max":0,"o":"m 297 794 b 388 885 347 794 388 835 b 328 969 388 924 363 957 l 338 986 b 342 1000 340 990 342 994 b 319 1022 342 1011 332 1022 b 308 1019 315 1022 313 1021 b 208 885 257 993 208 946 b 297 794 208 835 249 794 z m 89 794 b 179 885 139 794 179 835 b 119 969 179 924 154 957 l 129 986 b 133 1000 132 990 133 994 b 111 1022 133 1011 124 1022 b 100 1019 107 1022 104 1021 b 0 885 49 993 0 946 b 89 794 0 835 40 794 z "},"”":{"ha":383,"x_min":0,"x_max":0,"o":"m 69 794 l 79 797 b 181 932 131 824 181 871 b 90 1022 181 982 140 1022 b 1 932 40 1022 1 982 b 61 849 1 893 26 860 l 50 832 b 46 818 47 828 46 824 b 69 794 46 806 56 794 z m 278 794 l 288 797 b 389 932 339 824 389 871 b 299 1022 389 982 349 1022 b 210 932 249 1022 210 982 b 269 849 210 893 235 860 l 258 832 b 254 819 256 828 254 824 b 278 794 254 807 265 794 z "},"„":{"ha":383,"x_min":0,"x_max":0,"o":"m 69 -133 l 79 -131 b 181 4 131 -104 181 -57 b 90 94 181 54 140 94 b 1 4 40 94 1 54 b 61 -79 1 -35 26 -68 l 50 -96 b 46 -110 47 -100 46 -104 b 69 -133 46 -122 56 -133 z m 278 -133 l 288 -131 b 389 4 339 -104 389 -57 b 299 94 389 54 349 94 b 210 4 249 94 210 54 b 269 -79 210 -35 235 -68 l 258 -96 b 254 -108 256 -100 254 -104 b 278 -133 254 -121 265 -133 z "},"†":{"ha":563,"x_min":0,"x_max":0,"o":"m 68 -65 b 115 -58 92 -65 114 -64 l 354 732 l 526 732 b 547 747 536 732 544 738 l 567 799 l 568 807 b 544 829 568 819 558 829 l 383 829 l 472 1125 l 474 1132 b 469 1147 474 1136 472 1142 b 451 1169 465 1156 461 1168 b 357 1179 439 1171 388 1179 b 335 1174 344 1179 336 1178 l 239 829 l 40 829 b 19 814 31 829 22 824 l 0 763 l -1 756 b 22 732 -1 743 8 732 l 211 732 l -1 -19 l -1 -24 b 22 -65 -1 -37 10 -65 z "},"‡":{"ha":653,"x_min":0,"x_max":0,"o":"m 161 -65 b 210 -58 185 -65 207 -64 l 340 378 l 525 378 b 546 392 535 378 543 383 l 565 444 l 567 451 b 543 475 567 464 557 475 l 369 475 l 447 732 l 619 732 b 640 747 629 732 638 738 l 660 799 l 661 807 b 638 829 661 819 651 829 l 478 829 l 567 1125 l 567 1129 b 563 1147 567 1135 565 1142 b 546 1169 558 1156 554 1168 b 451 1179 532 1171 481 1179 b 429 1174 439 1179 431 1178 l 332 829 l 133 829 b 113 814 124 829 115 824 l 93 763 l 92 756 b 115 732 92 743 101 732 l 304 732 l 232 475 l 39 475 b 18 460 29 475 21 469 l -1 408 l -3 400 b 21 378 -3 388 7 378 l 204 378 l 92 -25 b 115 -65 92 -39 103 -65 z "},"•":{"ha":293,"x_min":0,"x_max":0,"o":"m 149 472 b 297 621 231 472 297 539 b 149 768 297 701 231 768 b 1 621 67 768 1 701 b 149 472 1 539 67 472 z "},"…":{"ha":607,"x_min":0,"x_max":0,"o":"m 93 -90 b 182 0 142 -90 182 -50 b 93 89 182 49 142 89 b 3 0 43 89 3 49 b 93 -90 3 -50 43 -90 z m 307 -90 b 397 0 357 -90 397 -50 b 307 89 397 49 357 89 b 218 0 258 89 218 49 b 307 -90 218 -50 258 -90 z m 521 -90 b 610 0 569 -90 610 -50 b 521 89 610 49 569 89 b 431 0 471 89 431 49 b 521 -90 431 -50 471 -90 z "},"‹":{"ha":279,"x_min":0,"x_max":0,"o":"m 194 335 b 211 344 201 336 207 339 l 249 399 b 253 411 251 403 253 407 b 246 428 253 417 250 424 l 144 529 l 276 617 b 286 636 282 621 286 628 l 279 688 b 265 704 278 694 272 701 b 256 707 263 706 260 707 b 243 703 251 707 247 706 l 11 543 b 1 526 6 539 1 533 l 1 522 b 8 508 1 517 4 511 l 176 342 b 194 335 181 336 188 335 z "},"›":{"ha":283,"x_min":0,"x_max":0,"o":"m 29 335 b 43 339 35 335 39 336 l 275 499 b 286 515 282 501 285 508 b 279 533 286 522 283 528 l 111 700 b 92 707 106 706 99 707 b 75 697 85 706 79 703 l 38 643 b 33 631 35 639 33 635 b 40 614 33 625 36 618 l 142 511 l 11 425 b 0 401 3 419 0 411 l 7 354 b 21 336 8 346 14 340 z "},"⁄":{"ha":0,"x_min":0,"x_max":0,"o":""},"∕":{"ha":0,"x_min":0,"x_max":0,"o":""},"₣":{"ha":0,"x_min":0,"x_max":0,"o":""},"₤":{"ha":0,"x_min":0,"x_max":0,"o":""},"₧":{"ha":0,"x_min":0,"x_max":0,"o":""},"€":{"ha":742,"x_min":0,"x_max":0,"o":"m 346 -15 b 507 110 422 -15 489 19 b 510 142 510 121 510 132 b 411 238 510 222 442 238 b 399 235 404 238 399 236 l 400 218 b 322 85 400 156 360 85 b 294 101 313 85 303 89 b 278 160 283 118 278 138 b 297 285 278 194 288 236 l 406 279 b 483 357 447 279 483 329 b 464 376 483 368 478 376 b 321 379 410 376 376 376 b 336 439 326 401 329 422 l 476 433 b 554 511 518 433 554 483 b 535 531 554 522 549 531 l 490 531 b 374 533 453 531 418 532 b 606 792 426 643 504 792 l 618 790 b 638 765 632 789 638 779 b 526 614 638 717 565 614 l 524 614 l 522 607 b 636 558 522 575 583 558 b 711 579 671 558 703 565 b 743 703 721 596 743 647 b 646 851 743 757 721 817 b 558 871 617 865 588 871 b 168 544 397 871 233 689 l 147 544 b 75 464 125 538 75 490 b 106 446 75 453 83 446 l 114 446 b 135 447 119 446 126 446 l 122 389 l 76 392 b 4 310 54 385 4 336 b 35 292 4 299 13 292 l 43 292 b 113 293 58 293 83 293 l 113 265 b 250 1 113 149 146 38 b 346 -15 282 -10 314 -15 z "},"№":{"ha":0,"x_min":0,"x_max":0,"o":""},"™":{"ha":0,"x_min":0,"x_max":0,"o":""},"∂":{"ha":0,"x_min":0,"x_max":0,"o":""},"∆":{"ha":0,"x_min":0,"x_max":0,"o":""},"∏":{"ha":0,"x_min":0,"x_max":0,"o":""},"∑":{"ha":0,"x_min":0,"x_max":0,"o":""},"−":{"ha":417,"x_min":0,"x_max":0,"o":"m 369 311 b 390 326 379 311 388 317 l 419 404 l 421 413 b 397 435 421 425 411 435 l 50 435 b 29 421 40 435 32 429 l 0 342 l -1 333 b 22 311 -1 321 8 311 z "},"√":{"ha":0,"x_min":0,"x_max":0,"o":""},"∞":{"ha":0,"x_min":0,"x_max":0,"o":""},"∫":{"ha":0,"x_min":0,"x_max":0,"o":""},"≈":{"ha":0,"x_min":0,"x_max":0,"o":""},"≤":{"ha":0,"x_min":0,"x_max":0,"o":""},"≥":{"ha":0,"x_min":0,"x_max":0,"o":""},"":{"ha":1071,"x_min":0,"x_max":0,"o":"m 1726 -1036 b 2114 -685 1943 -1036 2114 -864 b 1688 -312 2114 -535 1996 -379 b 1021 193 1332 -233 1021 -199 b 1029 315 1021 231 1024 271 b 1174 901 1046 442 1089 626 l 1175 908 b 1153 932 1175 919 1165 931 l 1118 933 b 750 739 975 933 856 847 b 490 975 685 847 608 943 b 436 982 472 979 454 982 b 233 767 318 982 233 876 b 340 585 233 700 265 631 b 474 544 382 560 428 544 b 588 588 514 544 554 557 b 594 606 593 593 594 599 b 583 626 594 614 592 622 b 539 690 558 640 539 667 b 551 719 539 701 543 711 b 572 728 557 725 564 728 b 671 651 599 728 633 696 b 381 342 564 526 471 394 b 310 321 354 326 331 321 b 210 451 247 321 210 381 b 217 503 210 468 213 485 l 218 508 b 196 532 218 521 208 532 l 190 532 b 0 269 60 494 0 385 b 313 -46 0 115 111 -46 b 421 -32 346 -46 382 -42 b 793 475 621 18 701 269 l 843 396 b 818 315 835 369 825 342 b 782 71 793 226 782 144 b 1456 -597 782 -286 1051 -482 b 1640 -768 1596 -637 1640 -703 b 1543 -962 1640 -846 1578 -925 b 1538 -978 1539 -967 1538 -972 b 1551 -999 1538 -986 1543 -994 b 1726 -1036 1611 -1025 1671 -1036 z m 886 513 b 844 578 871 533 857 556 b 986 733 883 650 928 707 b 886 513 967 697 925 613 z "},"":{"ha":1157,"x_min":0,"x_max":0,"o":"m 744 -60 b 1124 244 985 -60 1124 92 b 931 510 1124 346 1063 449 b 1065 672 1019 536 1065 600 b 881 894 1065 753 1006 843 l 876 897 b 1422 1219 1017 1129 1240 1219 b 1731 1024 1594 1219 1731 1140 b 1726 989 1731 1013 1729 1001 l 1726 983 b 1749 960 1726 971 1736 960 l 1758 963 b 1883 1194 1836 1001 1883 1097 b 1796 1399 1883 1269 1857 1346 b 1490 1497 1725 1461 1615 1497 b 713 935 1229 1497 897 1339 b 572 942 667 940 618 942 b 190 657 339 940 190 794 b 297 486 190 592 224 529 b 397 457 329 467 364 457 b 554 593 471 457 538 503 l 554 600 b 542 619 554 610 551 619 l 525 618 b 483 665 494 618 483 640 b 488 696 483 675 485 686 b 614 778 503 760 556 778 l 653 775 b 329 324 581 588 500 324 l 317 324 b 215 451 281 326 215 350 b 221 506 215 468 217 486 l 221 508 b 196 532 221 522 208 532 l 190 531 b 1 261 67 494 1 379 b 329 -40 1 115 104 -36 l 335 -40 b 517 28 407 -40 468 -14 b 739 -60 561 -24 633 -58 z m 751 558 b 806 746 768 624 786 689 b 917 646 879 719 917 682 b 751 558 917 604 863 567 z m 851 215 l 850 215 b 782 293 811 215 782 257 b 813 339 782 314 792 332 b 829 353 819 342 826 346 b 832 365 832 357 832 361 b 831 374 832 368 832 371 b 721 439 815 404 775 433 b 765 456 724 450 740 456 b 917 356 814 456 890 429 b 926 301 924 338 926 319 b 851 215 926 256 903 217 z "},"":{"ha":1208,"x_min":0,"x_max":0,"o":"m 747 -61 b 1196 432 1022 -61 1196 183 b 883 892 1196 615 1101 800 b 1418 1197 1024 1111 1240 1197 b 1726 1000 1590 1197 1726 1118 b 1722 965 1726 989 1725 978 l 1721 958 b 1744 938 1721 947 1732 938 l 1754 940 b 1879 1172 1832 979 1879 1075 b 1792 1376 1879 1247 1853 1324 b 1488 1475 1721 1439 1611 1475 b 718 932 1229 1475 904 1321 b 575 940 679 938 626 940 b 193 656 342 939 193 793 b 300 485 193 590 226 528 b 400 456 332 465 367 456 b 557 592 474 456 540 501 l 557 599 b 544 618 557 608 554 618 l 528 617 b 486 664 497 617 486 639 b 490 694 486 674 488 685 b 611 771 504 754 556 771 b 653 768 625 771 639 769 b 331 322 610 635 506 322 l 319 322 b 218 450 283 325 218 349 b 224 504 218 467 219 485 l 224 507 b 199 531 224 521 211 531 l 193 529 b 4 260 69 493 4 378 b 332 -42 4 114 107 -37 l 338 -42 b 519 26 410 -42 471 -15 b 747 -61 576 -39 664 -61 z m 838 229 b 799 246 824 229 810 235 b 785 290 790 260 785 275 b 815 338 785 311 794 329 b 836 364 826 340 836 351 l 833 372 b 724 438 818 403 778 432 b 801 722 747 531 772 635 b 992 469 943 663 992 564 b 838 229 992 344 906 229 z "},"":{"ha":940,"x_min":0,"x_max":0,"o":"m 335 -44 b 661 236 499 -44 596 88 b 710 358 678 274 693 315 b 847 325 758 340 810 325 b 886 333 863 325 876 328 b 944 476 936 361 944 432 l 944 488 b 932 501 944 490 942 501 b 922 499 929 501 926 501 b 849 483 901 488 876 483 b 753 496 818 483 786 489 b 797 715 775 576 792 654 b 894 689 828 704 861 697 b 1296 636 1039 653 1174 636 b 2036 1068 1728 636 2013 836 l 2038 1092 b 1765 1371 2038 1246 1894 1371 b 1711 1363 1747 1371 1729 1368 b 1694 1340 1701 1360 1694 1350 b 1706 1321 1694 1333 1699 1326 b 1765 1208 1747 1292 1765 1253 b 1169 813 1765 1044 1508 813 b 926 853 1092 813 1010 825 b 518 951 790 899 664 951 b 460 949 499 951 479 950 b 172 699 310 935 172 863 l 172 686 b 289 496 174 635 193 539 b 389 472 321 481 356 472 b 461 486 415 472 439 478 b 450 457 456 476 453 467 b 447 433 447 447 447 439 b 454 421 447 424 450 421 b 489 432 463 421 476 429 b 329 321 446 365 393 321 l 318 321 b 217 449 282 324 217 347 b 222 503 217 465 218 483 l 222 506 b 199 528 222 518 211 528 l 192 526 b 3 257 68 490 3 375 b 329 -44 3 111 106 -40 z m 528 540 b 549 610 539 558 547 582 l 549 611 b 529 636 549 622 539 636 l 525 635 b 500 629 517 631 508 629 b 451 692 469 629 451 661 l 453 703 b 553 764 458 750 501 764 b 607 760 569 764 589 763 b 544 543 594 693 574 614 b 528 540 539 543 533 542 z "},"":{"ha":1026,"x_min":0,"x_max":0,"o":"m 1682 -1014 b 2068 -662 1897 -1014 2068 -842 b 1642 -290 2068 -512 1950 -358 b 971 213 1249 -204 971 -162 b 992 415 971 271 978 339 b 1211 753 1094 515 1176 644 b 1225 832 1221 782 1225 808 b 1154 949 1225 904 1185 943 l 1139 950 b 796 411 989 950 838 535 b 772 410 788 410 781 410 b 726 417 756 410 740 413 b 786 646 753 496 774 578 b 906 806 861 665 906 736 b 810 946 906 863 876 919 b 764 954 796 951 779 954 b 651 879 722 954 679 933 b 528 915 611 896 569 908 b 442 924 499 921 471 924 b 181 736 321 924 213 872 b 174 679 178 721 174 701 b 244 522 174 629 189 568 b 389 467 286 488 339 467 b 525 564 447 467 501 496 l 526 571 b 511 594 526 582 519 594 l 497 593 b 450 647 465 593 450 619 b 457 679 450 658 453 669 b 524 719 469 708 493 719 b 593 706 544 719 569 714 b 326 319 553 529 464 319 l 315 319 b 214 450 281 324 214 347 b 219 503 214 465 215 483 l 219 507 b 196 528 219 518 208 528 l 189 526 b 0 257 65 490 0 375 b 328 -44 0 111 103 -40 l 335 -44 b 668 256 513 -44 607 108 b 756 269 697 256 726 260 b 736 94 742 207 736 149 b 1411 -575 736 -314 1089 -485 b 1594 -746 1551 -615 1594 -679 b 1499 -940 1594 -824 1533 -903 b 1492 -956 1494 -944 1492 -950 b 1507 -976 1492 -964 1497 -974 b 1682 -1014 1567 -1003 1625 -1014 z m 1046 650 b 1096 776 1051 671 1078 776 b 1103 767 1101 776 1103 774 b 1046 650 1103 747 1078 701 z m 815 826 l 815 831 b 822 861 815 840 821 861 l 824 856 b 815 826 824 847 818 831 z "},"":{"ha":806,"x_min":0,"x_max":0,"o":"m 708 -804 b 939 -689 794 -804 885 -767 b 1003 -453 981 -628 1003 -546 b 703 136 1003 -265 911 -36 b 828 660 785 324 828 539 b 950 793 907 669 950 729 b 840 944 950 851 914 914 b 792 954 825 951 808 954 b 689 883 754 954 715 935 b 564 919 649 900 607 913 b 479 928 536 925 507 928 b 218 740 358 928 250 876 b 211 682 215 725 211 704 b 281 526 211 633 226 572 b 425 472 322 492 376 472 b 563 569 485 472 539 501 l 564 576 l 561 588 b 546 600 557 594 553 600 l 533 599 b 488 653 501 599 488 625 b 493 685 488 664 489 675 b 558 724 506 714 529 724 b 638 707 583 724 611 717 b 492 268 608 614 571 403 b 229 356 404 310 314 356 b 75 286 174 356 122 336 b -1 86 25 233 -1 160 b 326 -215 -1 -61 101 -211 l 329 -215 b 596 -53 435 -215 524 -150 b 718 -408 681 -167 718 -296 b 539 -672 718 -556 651 -672 l 522 -671 b 497 -694 507 -671 497 -682 b 501 -707 497 -699 499 -703 b 708 -804 543 -769 624 -804 z m 331 149 l 315 150 b 238 192 293 151 260 161 b 260 197 244 196 251 197 b 346 150 292 197 331 169 z m 853 831 l 851 838 b 858 865 851 849 857 865 b 860 858 860 864 860 861 b 853 831 860 850 856 836 z "},"":{"ha":1122,"x_min":0,"x_max":0,"o":"m 1499 -651 b 1746 -579 1581 -651 1664 -629 b 1872 -339 1832 -526 1872 -431 b 1786 -143 1872 -261 1843 -185 b 1774 -139 1782 -140 1778 -139 b 1750 -161 1763 -139 1750 -147 l 1750 -174 b 1583 -337 1750 -285 1682 -337 b 863 328 1374 -337 1024 -103 b 1188 718 1069 369 1188 561 b 1010 929 1188 825 1132 915 l 1006 929 b 983 906 993 929 983 918 l 983 901 b 996 778 992 865 996 822 b 819 432 996 638 950 476 b 750 503 803 464 785 490 b 783 650 764 554 776 604 b 904 810 860 669 904 740 b 808 950 904 867 875 924 b 763 958 794 956 778 958 b 650 883 721 958 678 938 b 526 919 610 899 568 911 b 443 926 499 924 471 926 b 179 739 321 926 211 876 b 172 682 176 724 172 704 b 243 525 172 632 188 571 b 386 471 285 490 338 471 b 524 568 446 471 500 500 l 525 575 b 508 599 525 585 518 599 l 496 597 b 449 653 463 597 449 625 b 454 683 449 664 450 674 b 521 724 467 713 492 724 b 592 708 543 724 567 717 b 325 324 551 533 463 324 l 314 324 b 213 451 278 326 213 350 b 218 506 213 468 214 486 l 218 508 b 193 532 218 522 206 532 l 188 531 b -1 261 64 494 -1 379 b 326 -40 -1 114 101 -36 l 335 -40 b 692 326 538 -40 631 161 b 749 319 711 322 731 321 l 749 306 b 1499 -651 749 -124 1101 -651 z m 814 829 l 813 836 b 819 865 813 847 818 865 b 821 858 821 864 821 861 b 814 829 821 849 817 835 z "},"":{"ha":1285,"x_min":0,"x_max":0,"o":"m 2033 -1025 b 2403 -687 2243 -1025 2403 -862 b 1957 -301 2403 -535 2279 -371 b 1235 160 1617 -226 1290 -210 b 1229 240 1231 185 1229 213 b 1307 814 1229 435 1307 693 b 1303 853 1307 829 1306 842 b 1215 883 1297 872 1254 883 b 1151 854 1182 883 1151 875 l 1154 839 b 857 268 1154 760 857 268 b 788 596 794 339 788 517 l 788 635 b 908 794 864 654 908 725 b 813 935 908 851 879 908 b 767 943 799 940 782 943 b 654 868 725 943 682 922 b 531 904 614 883 572 896 b 447 911 503 908 475 911 b 183 724 325 911 215 861 b 176 667 181 708 176 689 b 247 510 176 617 192 556 b 390 456 289 475 342 456 b 528 553 450 456 504 485 l 529 560 b 513 583 529 569 522 583 l 500 582 b 453 638 467 582 453 610 b 458 668 453 649 454 658 b 525 707 471 697 496 707 b 596 693 546 707 571 701 b 329 308 556 518 467 308 l 318 308 b 217 436 282 311 217 335 b 222 490 217 453 218 471 l 222 493 b 197 517 222 507 210 517 l 192 515 b 3 246 68 479 3 364 b 331 -56 3 99 106 -51 l 339 -56 b 700 321 546 -56 639 154 b 828 -39 725 174 778 35 b 849 -50 833 -46 840 -50 b 869 -36 857 -50 865 -44 b 1057 318 954 144 1003 249 b 1033 179 1040 274 1036 226 l 1031 119 b 1740 -586 1031 -315 1404 -493 b 1933 -765 1889 -628 1933 -696 b 1847 -951 1933 -840 1879 -915 b 1842 -965 1843 -956 1842 -961 b 1857 -987 1842 -975 1847 -983 b 2033 -1025 1918 -1014 1978 -1025 z m 818 814 l 817 821 b 824 850 817 832 822 850 b 825 843 825 849 825 846 b 818 814 825 833 821 819 z "},"":{"ha":1092,"x_min":0,"x_max":0,"o":"m 338 -54 b 663 226 500 -54 599 78 b 732 411 686 282 711 346 b 847 32 782 279 847 97 b 843 11 847 22 846 15 b 838 -3 839 7 838 1 b 939 -46 838 -28 896 -46 b 983 -33 960 -46 976 -43 b 1113 600 1033 43 1047 426 b 1715 1068 1232 922 1517 1068 b 1925 913 1836 1068 1925 1014 l 1925 904 b 1949 882 1925 890 1936 882 b 1961 886 1953 882 1957 883 b 2047 1082 2018 928 2047 1004 b 1921 1322 2047 1174 2007 1269 b 1701 1376 1861 1358 1785 1376 b 940 654 1421 1376 1053 1167 b 908 371 921 565 908 464 l 910 331 b 789 636 888 396 824 497 l 789 638 b 910 797 865 657 910 728 b 814 938 910 854 881 911 b 769 946 800 943 785 946 b 656 871 728 946 683 925 b 532 906 615 886 574 899 b 446 914 503 911 475 914 b 185 726 325 914 217 863 b 178 669 182 711 178 692 b 249 513 178 619 193 558 b 392 458 290 478 343 458 b 529 556 451 458 506 488 l 531 563 b 514 586 531 572 524 586 l 501 585 b 454 639 469 585 454 611 b 461 671 454 650 457 661 b 526 710 474 700 497 710 b 597 696 549 710 574 704 b 332 311 557 522 469 311 l 319 311 b 218 439 283 314 218 338 b 224 493 218 456 219 474 l 224 496 b 201 518 224 508 213 518 l 193 517 b 4 247 69 481 4 365 b 332 -54 4 101 107 -50 z m 819 817 l 819 821 b 825 853 819 832 825 853 b 826 846 826 851 826 849 b 819 817 826 836 822 822 z "},"":{"ha":1118,"x_min":0,"x_max":0,"o":"m 336 -43 b 696 339 542 -43 647 167 b 847 313 749 321 800 313 b 1179 608 1046 313 1179 458 b 894 904 1179 728 1096 849 b 1439 1185 1028 1097 1256 1185 b 1724 1000 1599 1185 1724 1119 b 1718 958 1724 988 1721 974 l 1718 953 b 1742 929 1718 939 1729 929 l 1751 932 b 1876 1164 1829 971 1876 1067 b 1789 1368 1876 1239 1850 1315 b 1485 1467 1718 1431 1610 1467 b 719 933 1229 1467 907 1315 b 575 939 672 936 619 939 b 193 654 342 938 193 792 b 300 483 193 590 226 528 b 400 454 332 464 367 454 b 556 590 474 454 540 500 l 557 600 b 544 617 557 608 554 617 l 528 615 b 486 664 497 615 486 638 b 490 693 486 674 488 683 b 617 775 506 756 558 775 l 654 772 b 329 321 608 633 506 321 l 318 321 b 218 450 283 325 218 349 b 224 504 218 467 219 485 l 224 507 b 199 529 224 519 211 529 l 193 528 b 3 258 69 492 3 376 b 331 -43 3 113 107 -39 z m 778 425 b 721 429 760 425 740 426 b 811 747 747 532 772 650 b 965 571 917 710 965 638 b 778 425 965 494 899 425 z "},"":{"ha":781,"x_min":0,"x_max":0,"o":"m 557 449 l 556 457 l 550 456 z m 510 147 b 425 183 476 172 450 175 b 508 354 474 229 508 289 b 501 403 508 369 506 386 b 383 494 483 468 433 494 b 253 388 318 494 253 451 l 254 374 b 269 354 256 365 261 358 l 279 353 b 293 357 285 353 289 354 b 326 367 303 364 314 367 b 372 342 347 367 367 357 b 374 331 374 338 374 335 b 285 269 374 296 315 269 l 282 269 b 183 383 235 269 186 297 b 428 681 188 481 257 672 l 436 682 b 614 407 475 682 607 654 b 510 147 607 267 567 196 z m 1321 -540 b 1831 -289 1560 -540 1757 -429 b 1860 -169 1850 -250 1860 -210 b 1640 106 1860 -35 1758 94 l 1638 106 b 1615 83 1625 106 1615 96 b 1619 71 1615 79 1617 75 b 1643 -6 1636 46 1643 19 b 1225 -244 1643 -131 1458 -244 b 782 -96 1085 -244 926 -203 b 596 74 711 -44 661 19 b 764 481 718 182 756 314 l 765 506 b 421 928 765 674 672 917 l 408 928 b 1 385 149 928 1 622 b 3 340 1 369 1 356 b 219 100 18 167 115 100 b 297 111 246 100 272 104 b 288 64 290 94 288 78 b 397 -26 288 7 338 -26 b 465 -12 419 -26 443 -22 b 665 -240 471 -26 644 -219 b 1321 -540 881 -458 1115 -540 z m 372 81 b 364 86 368 81 364 82 l 364 89 b 381 104 365 100 372 104 b 413 90 392 104 406 97 b 372 81 406 89 385 81 z "},"":{"ha":1114,"x_min":0,"x_max":0,"o":"m 1492 -628 b 1736 -557 1572 -628 1656 -606 b 1863 -317 1822 -504 1863 -408 b 1776 -121 1863 -239 1833 -162 b 1763 -117 1772 -118 1768 -117 b 1740 -139 1751 -117 1740 -125 l 1740 -147 b 1526 -300 1740 -247 1650 -300 b 863 314 1292 -300 940 -110 b 1175 610 1050 322 1175 464 b 890 907 1175 729 1092 851 b 897 922 894 911 897 917 b 881 944 897 932 892 940 b 811 958 856 954 832 958 b 738 933 783 958 758 951 b 572 940 685 938 625 940 b 189 656 339 939 189 792 b 296 485 189 590 222 528 b 396 456 328 465 363 456 b 553 592 469 456 536 501 l 553 600 b 540 618 553 610 551 618 l 524 617 b 482 665 493 617 482 639 b 486 694 482 675 483 685 b 613 776 501 758 554 776 l 651 774 b 328 322 579 586 499 322 l 315 322 b 214 451 279 326 214 350 b 219 506 214 468 215 486 l 219 508 b 194 531 219 521 207 531 l 189 529 b 0 260 65 493 0 378 b 328 -42 0 114 103 -37 l 333 -42 b 693 340 538 -42 643 168 b 738 328 708 335 724 331 l 738 319 b 1492 -628 738 -108 1097 -628 z m 728 429 l 717 431 l 721 444 b 728 429 724 440 726 436 z m 810 429 b 736 503 793 464 774 490 b 806 750 757 588 781 676 b 963 574 913 713 963 640 b 810 429 963 504 908 442 z "},"":{"ha":743,"x_min":0,"x_max":0,"o":"m 335 -44 b 661 236 499 -44 596 88 b 797 715 724 381 786 586 b 919 682 832 703 881 692 b 1294 636 1053 651 1179 636 b 2035 1068 1726 636 2011 836 l 2036 1094 b 1765 1371 2036 1246 1894 1371 b 1711 1363 1747 1371 1729 1368 b 1694 1340 1701 1360 1694 1350 b 1706 1321 1694 1333 1699 1326 b 1765 1208 1747 1292 1765 1253 b 1169 814 1765 1044 1508 814 b 969 840 1106 814 1038 822 b 522 951 814 882 693 951 b 460 949 501 951 481 950 b 171 696 308 935 171 861 l 171 686 b 288 496 174 635 193 539 b 389 474 319 481 354 474 b 549 610 468 474 542 517 l 549 611 b 529 636 549 622 539 636 l 525 635 b 500 629 517 631 508 629 b 451 692 469 629 451 661 l 453 703 b 553 764 458 750 501 764 b 607 760 569 764 589 763 b 331 321 574 578 482 321 l 318 321 b 217 449 282 324 217 347 b 222 503 217 465 218 483 l 222 506 b 200 528 222 518 211 528 l 192 526 b 3 257 68 490 3 375 b 329 -44 3 111 106 -40 z "},"":{"ha":1014,"x_min":0,"x_max":0,"o":"m 563 -54 b 1060 647 914 -54 953 382 b 1750 1136 1199 988 1525 1136 b 1982 986 1883 1136 1982 1082 l 1981 960 b 2004 938 1981 947 1992 938 b 2015 940 2008 938 2011 939 b 2124 1158 2085 981 2124 1068 b 2021 1378 2124 1240 2092 1324 b 1810 1438 1969 1417 1896 1438 b 864 676 1511 1438 1060 1193 b 626 164 825 569 740 164 l 618 164 b 579 269 589 169 579 213 b 617 549 579 371 611 513 b 761 731 704 569 761 653 b 669 860 761 783 733 835 b 621 869 654 865 638 869 b 501 789 578 869 532 846 b 371 828 460 807 415 819 b 283 835 342 832 311 835 b 4 638 153 835 38 783 b -3 576 1 621 -3 600 b 71 411 -3 525 13 460 b 224 354 115 375 171 354 b 368 457 286 354 344 385 b 369 467 369 460 369 463 b 367 476 369 469 369 474 b 353 489 364 483 360 489 l 339 488 b 289 546 304 488 289 517 b 296 579 289 557 292 569 b 365 621 308 610 335 621 b 440 606 389 621 414 614 b 361 182 419 515 361 332 b 538 -53 361 57 401 -46 z m 675 733 l 674 739 b 682 771 674 750 681 771 l 683 765 b 675 733 683 756 678 739 z "},"":{"ha":1285,"x_min":0,"x_max":0,"o":"m 865 -60 l 889 -58 b 1332 656 1208 -10 1228 397 b 2019 1143 1471 996 1794 1143 b 2253 993 2154 1143 2253 1090 l 2251 965 b 2274 944 2251 953 2263 944 b 2285 947 2278 944 2281 944 b 2394 1165 2354 988 2394 1075 b 2292 1385 2394 1247 2363 1331 b 2081 1443 2240 1424 2167 1443 b 1125 658 1776 1443 1315 1193 b 901 174 1079 528 1025 210 l 890 172 b 849 264 860 172 849 213 l 850 293 b 946 588 865 328 946 496 b 907 649 946 621 935 644 l 900 649 b 746 265 799 649 758 356 b 644 160 735 240 696 160 b 614 169 635 160 625 163 b 579 282 588 188 579 229 b 617 556 579 372 606 492 b 760 736 703 576 760 660 b 669 865 760 789 733 840 b 622 875 654 871 638 875 b 503 794 578 875 533 851 b 372 832 460 811 417 825 b 282 840 342 838 311 840 b 8 644 156 840 42 788 b 1 583 4 628 1 607 b 75 419 1 531 17 467 b 226 361 118 383 175 361 b 369 464 289 361 346 392 l 371 471 b 356 496 371 482 364 496 l 340 494 b 290 551 306 494 290 522 b 297 585 290 564 293 575 b 367 626 310 615 336 626 b 442 611 390 626 415 619 b 363 222 414 490 363 353 b 381 101 363 181 368 140 b 539 -50 403 32 450 -50 b 608 -35 560 -50 582 -44 b 739 90 653 -17 697 31 b 865 -60 749 -3 792 -60 z m 675 739 l 674 744 b 682 776 674 756 681 776 l 683 771 b 675 739 683 761 678 744 z "},"":{"ha":1282,"x_min":0,"x_max":0,"o":"m 1525 -472 b 1858 -325 1640 -472 1754 -429 b 1933 -135 1911 -272 1933 -203 b 1794 107 1933 -31 1881 72 b 1785 108 1792 108 1789 108 b 1761 86 1772 108 1761 99 l 1763 79 b 1771 24 1768 60 1771 40 b 1549 -131 1771 -76 1679 -131 b 772 442 1315 -131 958 42 b 967 851 846 644 900 832 b 978 853 971 853 974 853 b 1003 847 986 853 994 850 b 1013 846 1006 846 1010 846 b 1035 861 1022 846 1032 851 b 1040 892 1039 874 1040 883 b 988 947 1040 931 1008 940 b 935 953 969 951 951 953 b 657 699 804 953 725 836 b 586 840 626 767 601 819 b 418 936 543 897 481 936 b 388 933 408 936 397 936 b 253 785 303 917 253 849 b 397 664 253 726 297 671 b 422 685 410 664 419 672 b 436 703 424 699 429 703 b 510 624 457 703 497 649 b 567 506 529 586 549 547 b 332 269 504 376 438 269 l 318 269 b 218 401 242 275 218 338 b 222 451 218 418 219 435 l 222 454 b 197 478 222 468 210 478 l 192 476 b 3 207 68 440 3 325 b 331 -94 3 60 106 -90 l 338 -94 b 686 229 494 -94 603 53 b 1525 -472 821 -85 1179 -472 z "},"":{"ha":965,"x_min":0,"x_max":0,"o":"m 875 -900 b 1167 -553 1054 -900 1167 -749 b 810 32 1167 -365 1063 -137 b 985 625 904 188 967 447 b 1000 838 994 718 1000 788 b 946 963 1000 915 986 949 b 899 969 929 968 914 969 b 832 940 860 969 832 956 b 835 932 832 938 832 935 b 839 908 838 929 839 919 b 793 625 839 842 803 667 b 608 415 763 494 668 415 b 558 472 581 415 560 433 b 589 651 567 542 582 613 b 725 824 671 672 725 750 b 639 946 725 874 699 921 b 593 954 624 951 608 954 b 481 879 551 954 508 933 b 356 915 440 896 397 908 b 272 922 328 919 300 922 b 10 736 150 922 40 874 b 3 676 6 721 3 700 b 72 522 3 628 18 568 b 217 467 114 488 168 467 b 354 564 276 467 331 496 l 354 569 b 339 594 354 581 349 594 l 326 593 b 279 649 293 593 279 621 b 285 679 279 658 281 669 b 351 719 297 708 321 719 b 421 706 372 719 397 714 b 365 435 403 626 365 524 b 514 257 365 351 399 282 b 561 253 529 254 546 253 b 678 279 601 253 640 263 b 614 142 667 242 643 189 b 513 185 581 157 547 171 b 294 222 447 208 371 222 b -86 -79 104 222 -86 138 b 186 -304 -86 -243 36 -304 b 699 -108 367 -304 590 -217 b 910 -440 850 -219 910 -340 b 693 -656 910 -564 817 -656 b 615 -644 668 -656 642 -653 l 608 -643 b 586 -665 596 -643 586 -654 l 586 -671 b 819 -896 611 -779 710 -878 b 875 -900 839 -899 857 -900 z m 196 -104 b 86 -49 126 -104 86 -86 b 253 56 86 31 164 56 b 500 7 346 56 454 28 b 196 -104 415 -68 288 -104 z m 644 826 l 643 832 b 650 861 643 843 649 861 b 651 854 651 860 651 857 b 644 826 651 846 647 831 z "},"":{"ha":582,"x_min":0,"x_max":0,"o":"m 551 -433 b 840 -154 739 -433 840 -281 b 722 6 840 -78 803 -10 l 718 6 b 693 -19 704 6 693 -6 l 693 -21 b 607 -119 693 -78 651 -119 b 525 -54 578 -119 546 -100 b 497 82 506 -10 497 36 b 560 361 497 176 531 272 b 575 408 565 376 571 392 b 585 467 582 429 585 449 b 447 597 585 551 514 597 b 403 590 432 597 417 594 b 389 576 396 588 392 583 b 388 567 388 574 388 571 b 389 557 388 564 388 561 b 393 535 392 551 393 544 l 392 514 b 276 579 361 560 319 579 b 1 236 150 579 1 414 b 11 161 1 211 4 186 b 146 10 32 81 83 28 b 172 6 154 7 164 6 b 264 38 201 6 232 18 b 256 -83 258 -3 256 -43 b 526 -432 256 -261 319 -418 z m 318 271 b 286 272 310 271 300 271 b 250 335 261 275 250 301 b 317 449 250 385 276 449 l 325 447 b 360 404 343 443 354 426 b 318 271 346 361 331 315 z "},"":{"ha":629,"x_min":0,"x_max":0,"o":"m 576 -447 b 846 -186 756 -447 846 -308 b 715 -8 846 -101 803 -25 l 711 -8 b 688 -31 699 -8 688 -18 l 688 -42 b 618 -129 688 -86 657 -129 b 582 -117 607 -129 594 -126 b 538 68 549 -93 538 -21 b 597 493 538 213 569 401 b 665 694 628 593 658 656 b 668 731 667 707 668 719 b 519 872 668 839 582 872 b 458 854 490 872 465 864 b 453 840 454 849 453 844 b 468 778 453 825 468 810 b 464 747 468 768 467 758 b 383 521 453 701 418 618 b 276 582 354 563 317 582 b 7 236 154 582 7 415 b 15 161 7 211 10 186 b 150 10 36 81 88 28 b 175 7 158 7 167 7 b 299 61 214 7 258 28 b 285 -100 290 8 285 -47 b 551 -446 285 -276 346 -432 z m 285 271 b 250 335 261 271 250 303 b 254 369 250 347 251 360 b 321 449 264 411 289 449 l 329 447 b 344 417 340 444 344 433 b 314 282 344 376 319 308 b 285 271 303 275 293 271 z "},"":{"ha":636,"x_min":0,"x_max":0,"o":"m 593 -475 b 863 -214 772 -475 863 -336 b 732 -36 863 -129 819 -53 l 728 -36 b 704 -58 715 -36 704 -46 l 704 -69 b 635 -157 704 -114 674 -157 b 599 -144 624 -157 611 -154 b 564 10 574 -125 564 -64 b 600 300 564 107 581 228 b 638 465 618 356 638 414 b 500 590 638 529 606 581 l 478 592 b 303 521 408 592 350 561 b 361 693 329 604 356 658 b 364 729 363 706 364 718 b 215 871 364 838 278 871 b 154 853 186 871 161 863 b 149 838 150 847 149 843 b 164 775 149 822 164 807 b 160 746 164 767 163 757 b 0 181 138 647 0 368 b 151 0 0 81 38 8 l 163 0 b 238 36 204 0 238 14 b 231 132 232 69 231 101 b 242 260 231 175 235 217 b 389 460 264 315 328 460 b 408 454 396 460 401 458 b 415 431 414 451 415 443 b 332 132 415 365 344 185 b 301 -119 314 51 301 -37 b 568 -474 301 -301 363 -460 z "},"":{"ha":322,"x_min":0,"x_max":0,"o":"m 214 647 b 329 763 276 647 329 699 b 214 878 329 826 276 878 b 99 763 150 878 99 826 b 214 647 99 699 150 647 z m 260 -450 b 529 -189 439 -450 529 -311 b 399 -11 529 -104 486 -28 l 394 -11 b 371 -33 382 -11 371 -21 l 371 -44 b 301 -135 371 -87 339 -135 b 265 -119 289 -135 278 -129 b 217 81 229 -87 217 -6 b 239 286 217 160 228 240 b 278 508 256 357 278 442 b 210 624 278 568 261 613 l 189 626 b 83 589 150 626 110 606 b 72 569 76 585 72 578 b 75 557 72 565 74 561 b 81 533 79 551 81 543 b 56 429 81 508 69 471 b -31 -61 17 308 -31 114 b 235 -449 -31 -261 31 -435 z "},"":{"ha":621,"x_min":0,"x_max":0,"o":"m 875 -450 b 1075 -254 985 -450 1075 -368 b 1050 -144 1075 -219 1068 -183 b 1029 -132 1046 -136 1038 -132 b 1010 -142 1022 -132 1015 -135 b 926 -179 997 -161 972 -179 b 783 -139 893 -179 846 -168 b 360 225 594 -51 442 101 b 614 515 497 269 614 414 b 478 622 614 575 574 619 l 472 622 b 318 565 417 622 364 600 b 361 694 339 625 357 665 b 364 731 363 707 364 719 b 217 871 364 838 279 871 b 154 853 186 871 161 864 b 149 839 150 847 149 843 b 164 776 149 824 164 808 b 160 747 164 768 163 758 b 0 182 138 649 0 369 b 151 1 0 82 38 10 l 163 1 b 238 38 204 1 238 15 b 231 129 232 68 231 99 l 231 154 b 290 61 249 118 268 92 b 840 -447 382 -61 663 -419 b 875 -450 853 -449 864 -450 z m 282 286 b 247 292 271 286 260 288 b 379 493 254 326 326 493 b 415 432 396 493 415 469 b 282 286 415 371 361 286 z "},"":{"ha":322,"x_min":0,"x_max":0,"o":"m 246 -447 b 517 -186 426 -447 517 -308 b 386 -8 517 -101 474 -25 l 382 -8 b 358 -33 368 -8 358 -19 l 358 -42 b 289 -128 358 -85 328 -128 b 253 -115 278 -128 265 -125 b 226 8 233 -101 226 -54 b 296 488 226 164 272 413 b 361 693 324 579 357 664 b 364 729 363 706 364 718 b 215 871 364 838 278 871 b 154 853 186 871 161 863 b 149 839 150 847 149 843 b 164 776 149 824 164 808 b 160 746 164 767 163 757 b 65 479 147 693 104 592 b -39 -67 19 347 -39 125 b 222 -446 -39 -265 22 -432 z "},"":{"ha":863,"x_min":0,"x_max":0,"o":"m 811 -474 b 1082 -212 992 -474 1082 -335 b 951 -35 1082 -128 1039 -51 l 947 -35 b 924 -57 935 -35 924 -44 l 924 -68 b 854 -154 924 -111 893 -154 b 818 -142 843 -154 831 -151 b 778 -12 789 -119 778 -71 b 847 361 778 114 826 289 b 865 465 857 397 865 432 b 728 590 865 529 833 581 l 708 592 b 550 513 640 592 588 558 b 433 599 539 558 508 599 l 429 599 b 272 507 369 597 317 560 b 117 618 250 592 174 618 b 57 600 88 618 64 611 b 53 588 54 596 53 592 b 72 514 53 569 72 553 l 71 494 b -35 119 49 333 -11 263 l -36 108 b 150 -7 -36 35 78 -7 b 207 18 182 -7 206 1 l 207 24 b 353 465 207 113 258 465 l 360 465 b 386 432 381 463 386 449 b 371 378 386 407 371 378 b 260 75 371 378 260 193 b 292 -3 260 42 268 14 b 367 -29 317 -22 343 -29 b 479 21 417 -29 458 1 b 488 39 485 25 488 32 b 486 47 488 42 488 44 b 482 82 483 56 482 67 b 622 458 482 192 567 458 l 624 458 b 640 431 636 457 640 447 b 593 272 640 393 615 328 b 519 -108 554 174 519 28 b 788 -472 519 -292 583 -458 z "},"":{"ha":626,"x_min":0,"x_max":0,"o":"m 585 -475 b 856 -214 765 -475 856 -336 b 725 -36 856 -129 813 -53 l 721 -36 b 697 -58 708 -36 697 -46 l 697 -68 b 626 -156 697 -111 667 -156 b 590 -143 615 -156 603 -153 b 556 7 564 -124 556 -64 b 589 267 556 101 572 213 b 636 465 608 331 636 404 b 500 590 636 529 606 581 l 475 592 b 275 496 394 592 326 547 b 117 619 258 589 175 619 b 57 601 88 619 64 611 b 53 589 54 597 53 593 b 74 513 53 571 74 554 l 72 494 b -33 119 49 335 -10 264 l -35 108 b 151 -7 -35 35 79 -7 b 208 18 183 -7 207 1 l 208 49 b 239 253 208 132 222 194 b 388 460 257 299 324 460 b 408 454 394 460 401 458 b 421 428 417 449 421 439 b 375 303 421 394 394 344 b 290 -92 329 208 290 54 b 561 -474 290 -282 357 -460 z "},"":{"ha":396,"x_min":0,"x_max":0,"o":"m 357 -475 b 628 -214 538 -475 628 -336 b 497 -36 628 -129 585 -53 l 493 -36 b 469 -58 481 -36 469 -46 l 469 -69 b 400 -156 469 -112 439 -156 b 364 -143 389 -156 376 -153 b 329 13 339 -124 329 -62 b 351 239 329 85 339 169 b 390 426 361 296 390 367 b 324 535 390 471 375 511 b 168 592 286 558 218 564 b 78 717 167 650 149 717 l 74 717 b 17 633 40 715 17 678 b 72 529 17 597 33 556 l 63 485 b 19 301 63 483 39 369 l 18 289 b 24 269 18 282 19 275 b 65 251 35 254 46 254 l 68 251 b 106 279 85 251 100 263 b 146 447 119 325 139 406 l 154 486 b 201 461 168 481 197 476 b 63 -139 144 304 63 61 b 333 -474 63 -317 128 -460 z "},"":{"ha":364,"x_min":0,"x_max":0,"o":"m 260 -474 b 531 -212 440 -474 531 -335 b 400 -35 531 -128 488 -51 l 396 -35 b 372 -57 383 -35 372 -44 l 372 -68 b 303 -154 372 -111 342 -154 b 267 -142 292 -154 279 -151 b 232 15 242 -124 232 -60 b 254 264 232 96 243 192 b 296 465 264 325 281 407 b 356 450 322 460 342 454 b 371 446 361 447 367 446 b 389 456 378 446 383 449 b 410 517 397 469 410 490 l 408 529 b 329 569 407 551 375 564 b 371 694 350 626 367 667 b 374 731 372 707 374 719 b 226 872 374 839 288 872 b 165 854 196 872 172 864 b 160 838 161 849 160 843 b 174 776 160 822 174 807 b 169 747 174 768 172 758 b 108 569 161 710 136 646 b 40 560 79 567 56 564 b 0 486 7 543 0 510 l 0 478 b 24 456 0 465 11 456 l 69 463 b 18 278 49 400 33 340 b -39 -106 -12 157 -39 19 b 236 -472 -39 -297 25 -458 z "},"":{"ha":607,"x_min":0,"x_max":0,"o":"m -1222 -771 b -1161 -760 -1200 -771 -1181 -767 b -1146 -739 -1151 -757 -1146 -747 b -1153 -722 -1146 -732 -1147 -726 b -1165 -689 -1161 -714 -1165 -701 b -1132 -607 -1165 -665 -1151 -635 b 676 -272 -939 -324 97 -368 b 1042 21 865 -242 1042 -208 b 738 238 1042 154 888 238 b 579 200 682 238 625 226 b 563 196 574 197 567 196 b 528 239 542 196 531 217 l 528 243 b 575 407 528 276 556 340 b 585 465 582 428 585 447 b 447 596 585 550 514 596 b 403 589 432 596 417 593 b 389 575 396 586 392 582 b 388 565 388 572 388 569 b 389 556 388 563 388 560 b 393 533 392 550 393 542 l 392 513 b 276 578 361 558 319 578 b 1 235 150 578 1 413 b 11 160 1 210 4 185 b 146 8 32 79 83 26 b 172 4 154 6 163 4 b 324 88 219 4 276 36 b 478 -4 357 22 415 -4 b 632 44 531 -4 586 15 b 771 90 683 76 731 90 b 892 3 843 90 892 47 b 697 -107 892 -46 838 -97 b 451 -112 628 -111 544 -112 b -154 -108 275 -112 64 -108 b -1493 -382 -712 -108 -1317 -142 b -1525 -481 -1515 -412 -1525 -446 b -1222 -771 -1525 -621 -1361 -771 z m 318 269 b 286 271 310 269 300 269 b 250 333 261 274 250 300 b 317 447 250 383 276 447 l 325 446 b 360 403 343 442 354 425 b 318 269 346 360 331 314 z "},"":{"ha":642,"x_min":0,"x_max":0,"o":"m 296 4 b 631 381 528 4 631 208 b 628 429 631 397 629 414 b 443 615 611 560 533 615 b 293 569 393 615 340 599 b 336 693 314 625 331 665 b 339 731 338 707 339 718 b 185 868 339 826 274 868 l 147 865 b -378 843 44 854 -153 843 b -1407 964 -732 843 -1157 869 b -1622 1161 -1478 990 -1622 1075 b -1593 1222 -1622 1182 -1612 1203 b -1592 1226 -1592 1224 -1592 1225 b -1647 1260 -1592 1238 -1633 1254 b -1715 1272 -1669 1268 -1693 1272 b -1954 1036 -1837 1272 -1954 1157 b -1829 850 -1954 969 -1919 901 b -696 686 -1617 728 -1146 686 b 132 735 -376 686 -67 707 b 17 408 114 669 57 540 b 1 308 7 375 1 342 b 275 4 1 154 106 13 z m 301 265 l 294 265 b 236 346 251 272 236 308 b 240 378 236 357 238 368 b 371 500 253 439 310 500 b 417 488 386 500 401 496 b 433 450 428 481 433 468 b 301 265 433 385 364 265 z "},"":{"ha":522,"x_min":0,"x_max":0,"o":"m -1454 -769 b -1393 -758 -1432 -769 -1412 -765 b -1378 -736 -1383 -756 -1378 -746 b -1385 -721 -1378 -731 -1381 -725 b -1397 -687 -1393 -712 -1397 -700 b -1364 -606 -1397 -664 -1383 -633 b 444 -271 -1171 -322 -135 -367 b 810 22 632 -240 810 -207 b 604 219 810 126 706 207 l 574 222 b 357 135 475 222 435 150 b 329 132 347 133 338 132 b 244 249 264 132 244 188 b 249 303 244 267 246 285 b 360 511 271 456 325 511 b 381 503 368 511 375 508 b 389 474 385 494 389 483 b 332 428 389 450 375 428 l 326 428 b 304 413 317 428 308 422 b 294 364 297 394 294 379 b 390 274 294 307 342 274 b 443 288 408 274 426 278 b 519 439 494 318 519 379 b 506 514 519 465 515 490 b 343 607 476 582 414 607 l 315 606 b 0 243 114 589 0 406 b 243 -6 0 111 76 -6 b 328 3 269 -6 297 -3 b 546 101 439 25 492 101 l 549 101 b 661 10 617 99 661 56 b 465 -106 661 -42 606 -97 b 219 -111 396 -110 313 -111 b -386 -107 43 -111 -168 -107 b -1725 -381 -944 -107 -1549 -140 b -1757 -479 -1747 -411 -1757 -444 b -1454 -769 -1757 -619 -1593 -769 z "},"":{"ha":657,"x_min":0,"x_max":0,"o":"m 469 1 b 772 285 626 1 724 140 b 775 300 774 290 775 294 b 725 338 775 325 750 338 b 681 313 706 338 688 329 b 600 214 660 260 632 214 l 593 214 b 560 289 568 219 560 250 b 597 493 560 367 593 476 b 665 694 626 593 658 656 b 668 733 668 708 668 721 b 510 869 668 835 597 869 b 474 868 499 869 486 869 b -46 846 367 857 174 846 b -1067 967 -399 846 -819 874 b -1282 1164 -1137 993 -1282 1078 b -1253 1225 -1282 1185 -1272 1206 b -1251 1229 -1251 1226 -1251 1228 b -1307 1264 -1251 1242 -1293 1258 b -1374 1276 -1329 1272 -1351 1276 b -1614 1039 -1497 1276 -1614 1160 b -1489 853 -1614 972 -1579 904 b -360 690 -1276 732 -808 690 b 461 738 -44 690 261 711 b 383 521 449 690 415 611 b 276 581 356 563 317 581 b 7 236 154 581 7 415 b 15 161 7 211 10 186 b 150 10 36 81 88 28 b 176 6 158 7 167 6 b 322 83 222 6 276 36 b 463 1 349 26 403 3 z m 285 271 b 250 335 261 271 250 303 b 254 369 250 347 251 358 b 321 449 264 411 289 449 l 329 447 b 344 417 340 444 344 433 b 314 282 344 376 319 308 b 285 271 303 274 293 271 z "},"":{"ha":518,"x_min":0,"x_max":0,"o":"m -1443 -771 b -1382 -760 -1421 -771 -1401 -767 b -1367 -739 -1372 -757 -1367 -747 b -1374 -722 -1367 -732 -1368 -726 b -1386 -689 -1382 -714 -1386 -701 b -1353 -607 -1386 -665 -1372 -635 b 456 -272 -1160 -324 -124 -368 b 821 21 644 -242 821 -208 b 615 218 821 125 718 206 b 586 219 604 219 594 219 b 364 132 485 219 444 144 l 349 131 b 254 214 303 131 254 163 l 254 224 b 346 176 285 190 317 176 b 524 435 440 176 524 314 b 347 607 524 526 475 607 l 319 606 b 4 244 122 589 4 407 b 263 -6 4 113 83 -6 b 311 -3 278 -6 294 -4 b 558 100 442 11 499 100 l 561 100 b 672 10 628 97 672 56 b 476 -107 672 -43 617 -99 b 231 -112 407 -111 324 -112 b -375 -108 54 -112 -157 -108 b -1714 -382 -933 -108 -1537 -142 b -1746 -481 -1736 -412 -1746 -446 b -1443 -771 -1746 -621 -1582 -771 z m 303 349 b 282 356 294 349 288 350 b 360 514 288 389 339 514 l 363 514 b 394 463 386 503 394 483 b 303 349 394 413 342 349 z "},"":{"ha":599,"x_min":0,"x_max":0,"o":"m -1356 -768 b -1279 -736 -1325 -768 -1279 -762 b -1286 -719 -1279 -729 -1281 -724 b -1299 -686 -1294 -711 -1299 -699 b -1265 -604 -1299 -662 -1285 -632 b -7 -221 -1119 -390 -546 -274 l -3 -221 b 56 -274 31 -221 38 -250 b 225 -364 104 -331 151 -358 b 585 424 457 -364 585 183 b 571 521 585 469 581 503 b 436 597 543 571 488 597 b 372 568 406 597 372 590 l 375 554 b 296 578 351 571 325 578 b 0 229 163 578 0 408 b 175 15 0 114 69 15 b 296 60 214 15 256 29 b 183 -165 282 4 249 -165 b 58 -60 118 -161 126 -61 l -29 -60 b -1626 -379 -643 -60 -1425 -106 b -1658 -478 -1649 -410 -1658 -443 b -1356 -768 -1658 -618 -1494 -768 z m 281 271 l 275 271 b 242 326 251 274 242 297 b 313 444 242 376 271 443 l 314 444 b 368 378 340 444 368 404 l 368 375 b 363 342 367 365 365 353 b 281 271 347 310 318 271 z "},"":{"ha":625,"x_min":0,"x_max":0,"o":"m 497 -6 b 650 115 575 -6 650 39 l 650 117 l 638 117 b 571 175 588 117 571 139 b 638 465 571 247 638 372 b 500 590 638 531 606 581 l 475 592 b 303 521 408 592 351 561 b 363 693 331 604 357 658 b 365 728 364 706 365 717 b 214 869 365 821 301 869 l 186 868 b -346 846 83 857 -117 846 b -1371 965 -699 846 -1122 872 b -1586 1164 -1442 992 -1586 1078 b -1557 1225 -1586 1185 -1576 1206 b -1556 1229 -1556 1226 -1556 1228 b -1611 1263 -1556 1240 -1597 1257 b -1678 1275 -1633 1271 -1656 1275 b -1918 1039 -1801 1275 -1918 1160 b -1793 851 -1918 972 -1883 903 b -662 689 -1581 731 -1111 689 b 158 736 -347 689 -40 710 b 1 181 129 631 1 363 b 153 1 1 82 39 8 l 167 1 b 238 36 207 1 238 15 l 238 38 b 231 128 233 68 231 99 b 243 261 231 172 236 217 b 388 460 265 315 328 460 b 408 454 394 460 401 458 b 426 429 421 446 426 439 b 336 233 426 396 363 346 b 328 165 331 208 328 186 b 497 -6 328 46 414 -6 z "},"":{"ha":317,"x_min":0,"x_max":0,"o":"m 214 647 b 329 763 276 647 329 700 b 214 878 329 826 276 878 b 99 763 150 878 99 826 b 214 647 99 700 150 647 z m -1535 -772 b -1474 -761 -1512 -772 -1493 -768 b -1458 -740 -1464 -758 -1458 -749 b -1465 -724 -1458 -733 -1460 -728 b -1478 -690 -1474 -715 -1478 -703 b -1444 -608 -1478 -667 -1464 -636 b 364 -274 -1251 -325 -215 -369 b 729 19 553 -243 729 -210 b 425 236 729 153 575 236 b 267 199 369 236 313 225 b 249 194 260 196 254 194 b 215 239 228 194 218 218 l 215 244 b 285 525 215 300 285 432 b 210 624 285 574 267 611 l 189 626 b 83 590 150 626 110 606 b 72 569 76 586 72 578 l 75 558 b 79 535 78 553 79 544 b -10 171 79 461 -10 286 b -6 132 -10 157 -8 144 b 165 -4 18 35 89 -4 b 319 43 218 -4 272 13 b 458 89 371 75 418 89 b 579 1 531 89 579 46 b 385 -108 579 -47 525 -99 b 139 -114 315 -112 232 -114 b -467 -110 -37 -114 -249 -110 b -1806 -383 -1025 -110 -1629 -143 b -1837 -482 -1828 -414 -1837 -447 b -1535 -772 -1837 -622 -1674 -772 z "},"":{"ha":244,"x_min":0,"x_max":0,"o":"m 136 647 b 250 763 200 647 250 700 b 133 878 249 826 197 878 b 19 765 71 878 19 828 l 19 763 b 136 647 21 700 72 647 z m -1732 -769 b -1671 -758 -1710 -769 -1690 -765 b -1656 -737 -1661 -756 -1656 -746 b -1662 -721 -1656 -731 -1657 -725 b -1675 -687 -1671 -712 -1675 -700 b -1642 -606 -1675 -664 -1661 -633 b -383 -222 -1496 -392 -922 -275 l -379 -222 b -321 -275 -346 -222 -339 -251 b -172 -364 -283 -319 -232 -356 l -150 -365 b 146 -33 -28 -365 82 -212 b 231 424 181 65 231 288 b 215 519 231 465 226 500 b 81 596 188 569 132 596 b 32 586 64 596 47 593 b 17 565 22 583 17 574 l 18 557 b 26 494 24 542 26 519 b -92 -8 26 356 -51 96 b -196 -167 -121 -89 -160 -167 l -200 -167 b -318 -61 -260 -157 -249 -62 l -406 -61 b -2003 -381 -1019 -61 -1801 -107 b -2035 -479 -2025 -411 -2035 -444 b -1732 -769 -2035 -619 -1871 -769 z "},"":{"ha":625,"x_min":0,"x_max":0,"o":"m 428 -12 b 713 286 586 -12 667 142 l 715 300 b 671 338 715 324 693 338 b 629 310 653 338 636 329 b 494 161 601 229 560 161 l 485 161 b 360 225 425 167 385 199 b 614 517 497 269 614 414 b 479 622 614 575 575 619 l 474 622 b 318 565 417 622 364 600 b 363 694 339 625 358 667 l 365 726 b 219 872 365 814 308 872 l 196 871 b -349 846 96 858 -111 846 b -1371 967 -701 846 -1122 874 b -1586 1164 -1442 993 -1586 1078 b -1557 1225 -1586 1185 -1576 1206 b -1556 1229 -1556 1226 -1556 1228 b -1611 1263 -1556 1242 -1597 1257 b -1679 1275 -1633 1271 -1657 1275 b -1918 1039 -1801 1275 -1918 1160 b -1793 853 -1918 972 -1883 904 b -665 689 -1582 731 -1112 689 b 158 738 -349 689 -42 710 b 1 182 129 632 1 364 b 153 1 1 83 39 10 l 164 1 b 239 38 206 1 239 15 b 232 129 233 68 232 99 l 232 154 b 417 -12 271 76 335 -10 z m 285 288 b 249 293 274 288 261 289 b 379 493 256 328 328 493 b 417 432 396 493 417 468 b 285 288 417 371 363 288 z "},"":{"ha":346,"x_min":0,"x_max":0,"o":"m 169 1 b 467 285 328 1 418 142 b 469 300 468 290 469 294 b 421 338 469 324 446 338 b 376 311 403 338 383 329 b 297 213 356 260 329 213 l 289 214 b 253 285 263 219 253 247 b 361 693 253 406 353 640 b 364 726 363 704 364 715 b 221 871 364 811 307 871 l 196 869 b -350 846 97 857 -111 846 b -1372 965 -703 846 -1124 872 b -1586 1164 -1442 992 -1586 1078 b -1557 1225 -1586 1185 -1576 1206 l -1556 1229 b -1612 1263 -1556 1240 -1597 1257 b -1679 1275 -1635 1271 -1657 1275 b -1918 1039 -1801 1275 -1918 1160 b -1793 851 -1918 972 -1883 904 b -664 689 -1581 731 -1112 689 b 157 736 -347 689 -42 710 b 0 181 128 628 0 361 b 151 1 0 82 38 8 z "},"":{"ha":863,"x_min":0,"x_max":0,"o":"m -968 -783 b -908 -774 -947 -783 -928 -781 b -893 -751 -899 -769 -893 -760 b -900 -735 -893 -746 -896 -739 b -912 -701 -910 -726 -912 -715 b -879 -619 -912 -678 -899 -649 b 929 -286 -687 -336 349 -381 b 1294 7 1117 -256 1294 -222 b 989 225 1294 142 1139 225 b 831 188 932 225 876 213 b 810 181 822 183 815 181 b 800 193 804 181 800 185 l 801 201 b 865 464 814 275 865 382 b 729 589 865 528 835 579 l 710 590 b 550 511 640 590 589 556 b 435 597 540 557 510 597 l 431 597 b 272 506 371 596 318 558 b 117 617 250 590 174 617 b 57 599 88 617 64 610 b 53 586 54 594 53 590 b 74 510 53 568 74 551 l 72 492 b -33 118 49 332 -10 261 l -35 107 b 150 -8 -35 33 79 -8 b 208 17 182 -8 207 0 l 208 22 b 354 464 208 111 260 464 l 361 464 b 388 431 382 461 388 447 b 372 376 388 406 372 376 b 261 74 372 376 261 192 b 293 -4 261 40 269 13 b 368 -31 319 -24 344 -31 b 481 19 418 -31 460 0 b 488 36 485 24 488 31 b 486 46 488 40 488 43 b 482 81 483 54 482 65 b 624 456 482 190 567 456 l 625 456 b 650 431 643 454 650 444 b 564 231 650 382 575 278 b 556 161 558 206 556 183 b 733 -15 556 46 636 -15 b 885 31 782 -15 835 0 b 1025 76 936 64 985 76 b 1144 -10 1096 76 1144 35 b 950 -121 1144 -58 1089 -111 b 707 -126 882 -125 799 -126 b 90 -121 528 -126 313 -121 b -1240 -396 -465 -121 -1065 -156 b -1274 -494 -1262 -426 -1274 -460 b -968 -783 -1274 -633 -1107 -783 z "}}}
